<mxfile host="65bd71144e" modified="2022-12-06T07:37:57.428Z" agent="5.0 (Windows NT 10.0; Win64; x64) AppleWebKit/537.36 (KHTML, like Gecko) Code/1.73.1 Chrome/102.0.5005.167 Electron/19.0.17 Safari/537.36" etag="vghLU-RAXAEQlqwk7ZZf" version="20.5.3" type="embed" pages="2">
    <diagram id="fuvXXeiaOKksui9xYJ1W" name="Page-1">
        <mxGraphModel dx="292" dy="561" grid="1" gridSize="10" guides="1" tooltips="1" connect="1" arrows="1" fold="1" page="1" pageScale="1" pageWidth="827" pageHeight="1169" math="0" shadow="0">
            <root>
                <mxCell id="0"/>
                <mxCell id="1" parent="0"/>
                <mxCell id="2" value="" style="shape=stencil(lVrLchw3DPyavbL4Jnh2nP9wleVIFUVyyXIS/73B2uLssLHTY98UB9gBCaDRAHFJH749fvr6cIn+2/vb698P/z19fn+8pD8uMT69PD68Pb3rX5f08ZI+fHl9e/jr7fX7y+frf3/9NCTHX/+8/jt+4f+rXvKu+qEV/Y/rv3hXrv/w51X++ellLx+dz4t8cKES+ewiyvdE5KtLcZGPrmQi311c7U/zg3flc3QSQL4LkW8u9EU+u1aO5YseryzyxeVO5Jsrqz16AeT+a3JZFnk1kMnr/TSQb8Selp2s9y8uMfnuegd55l/Jrq7y3eVA5MXKCzlvj/P6tnjzNEB7cT6gQiYn6M15QQVhXzBHCMEVEkO9u5ZWheg6+ULw3nk4dXEx0k8ksIn7QQ/h1zgagc0UqovrNSl0dKagSLFmTg4zN45cDVBUvOsk90XvdTWpbuh3X6G5un6haTCx6C6urX7Q/GDpqekAtyTVBYJHovAG+RBcJsEk0dU1mDTi6RfitHhTUMhoRCG4tIZG30D5vsJ2ibcM2gL4PsrINHn3CQYDTR2xZrUGMIuNFs296qmJQlWT4NR13sMRcpc1mDTiGVQWxQ34goI/+ULRUgaeixQFcjee02pOgikXcwZPUUDLbV5drUnIDp29SxkVKgnXJHjoocAYTJsw9KsKFVFgKBA/pOKS+YIwEqOOa3itLB8GlEajQMp0Cq4WVGBIpmXWetqTGhRNPgxPM4WKzFN4TivzquYLjBsqdcwVFRg51BoIfpAtuu4rNGQbqsBMChnRWBUYPdHK74FfNU6AXI0oz+qDPYESSpLRGttwgDoZ4/3Iw4oolWab+szIMwIakDVoDWZht+HVTp4lgmFWWoEblQ8AFsEJsd+7tvprMAYWEK4Any+0Omv7tOZAC66xhg3tqY3WkIK8sEZaQqor6+8XjR8an32t/CXQMqs0dr1/rVlC/KXkvQHtVFJIEiCYDk/xvpIbCgnpjjbd7MgKEnG9I721zGCozCvfFCLtOlUB6kcQblLFcqA/UZlCMx1J5F9oWDTVM5VBqXbOgEQ0sFUeoFcDmwWGIf/lrBYA8uYJfYf2Q4NEJwvBTAoiBfZhD/SplKppBMQVKU7uv2N1PWEUHoka5zi2ep8QkIyV0lPgUneWAvKJEE3NwdZAvrDzCjJZTycvKl/Rns7s14xF/54wOg9dFy2sQ76BPGO9Qx4SmPM/mZz4Fs+RxKfKlw7yDBRVHlrrSMcJo9KgPdS/Jt+3gD2SB+YU6aRvDPZQ3rP4bPb+hZ8XEXqW5kN7UJ6RacsswzTwSB7w0NOmafgL8YTh/4gHk48snsXig3B5wfv3BJ/HoBRGcDwe7uRjYfHQ7aT+xP6O9YXiiWB9iRPwDvHQ5C+zXybc7/KRxwMw10hfMn5bvswp7+5+mP0Z+9swHX5fPll/0XoREA8Drde38vZr8aP1HQnZvLAj/tCNvxj/MfifOH8TnN7mOeM7lF/9W+jkSeUtP2T3I/N4N/5JCa6pR6P14AQXphHjGYBk8GCI5hWgsSNUQyE65WSqADVAnVyZ0wpOhUYDyM5gWFxSGGVhFxG2tB1jeaP9G4yGMydmwYwMcqUmmUQogZ7ZEPvSaOWo+ABVOfJm7HC1pWedQEJi07aW92DEUM1IgsYpFu7WJzU6kMeRDbdH6yiM/RLvhrG3lcwr0wz53QiJ36d0lK/sTdgAC7/PNl8FdiMzxsz6DPedfOEzSJyxbcBxlMRihoqM2wd7hMbJtx2zNTrmGU5bg1q2F82j8g3lSYTz3TrRfKfAwnoQ0m4UeEdmh8eZvSsE83IhZ9sdYgbgzA/Jvl8K7bLGrMyegb3v1DmN2yuwp45mNhKEEp3UzYhXaH5qvcBo5aU/R3MG/iycy6RCO4XCTDKh0T0NvpJxr2W8IxOTimnve6QTwGpgr2e+qiLmyanQ4GvR7IZUOmtvSl9WEBhrDWz4LPga0YU21eJxPUcVTh7PAch6o9NkVYDqMzZY+AIAzB3U04l9IeEKlsK9Z3sVGZFP740V6PEEBAym0y2skV+rSfVkSSdgs1w8pcI94Z5UDpRU6a3DeEPBk9F5uzekhT6yNSDB1/nRkrGnP8GXiVDOFGCkGRKtQKoA0Rq2vYn7ChWraOBTxLET4VEhsu2qiKshytdZn32rBjuFylfW4MlNFRgTUDoLVbTTzrbd2YmLJEE1WZD8UMhQJE7Y2dLFk4aT60YnQdre4F4VrT3aPkGFLvRJWMsnOCBTrjdWQiLIs8KjnKTjSwzl82l+/jbpYEVBaVjGyZdn9ns76aOTtY4NZ5hgdiQv+PuB80472eSTx4aTXNa/3JNnC5XDngjyDHmHPP4+nZR1jAdP+6Pk7csTZdl+NkM3efZyoPIJJ9Hs5S8ZEnL6+7+3A34qr3/cFs6/PD0/X/fV9/8fF9T1n67L7enjTw==);lineShape=1;" parent="1" vertex="1">
                    <mxGeometry x="98.50942662485204" y="48.82957310504651" width="257.4157434385422" height="300.4615169625881" as="geometry"/>
                </mxCell>
                <mxCell id="3" value="" style="shape=stencil(lVrZchw3DPwavaJ4H8+O8x+ushypokguWc7x92lmi6Nlc7Ydv0m7wHBwNRrg3sUP3x4+fb2/C+7b2+vL7/d/PX5+e7iLv9yF8Pj8cP/6+Ia/7uLHu/jhy8vr/W+vL9+fP1/+//ppSI6//nj5czzh74ues9iHUnD/XD7oFvJ/H/x6EX96fL4S95bDIl4tlNviwXJZxLPlfls8WvGLeDIfb4snq+vTg7V0Wzxbd4u4tyJeppqvi7iz6m6LN0udxJ0Q9/g6sbyw1cPzmV9HyUdzlZwT1PskK458LxOhmF9jVaw3IV/5/YcHvFDo5tbowqQm4gWH8AltPuJcwVtrq4uCzuZofo0xjFZBgA/z6tToZ0WcK2Rra9RinXE8V0D9rTakYEUUAfK0x1WhybyOjhMjwyoRuBgsrQrFTdQ4V0gWV6NLsSxyKRZLhEI4UxgdUZyrl2q1Kk5IjgPXkBrCaHg9r+XcUCDqhM3o1i0KG1IxR0gdJMKkOhPhUIjWlQ19Pu9QyDO7zgHVTZ8cCnhJEekcLIZNQZ2QLK0g0I+SOlfIViobrWo6lwkqh4KXNZ0bgwACp9ya++x5h0KVfar4idSHQp41eK4QuLM1bXRJDJXNWRdoj4L0VHFADWF0QX2tcajFojqhzwo+FJJsiNVzg8MnVSQfMCKvyIczs4hDjVbXwMGqpE5I1la3lmxJoHfd4L7EmfDnCshWssFbEm4dOLe6FemYFOs54nooVInetfMroQbVCc0zzOQoTwD0emKRmrkh+yPxSJSoiHQDzGxNMSmyl5nYAm1VtqLkCQTQAKqy4egGh0KchPRUAbDliQn42erPFfA8YnzOmjAa3YBAICL2AgQA7r2zghNx6I25xujcIr17nxzyWkE0FCjExgrShj7Z0ZUNUZ/QPbvVC6O9c1wQiJyixuOIwgpdRa4zkoGvKKyEAs15yL6osq9zjUJBJlPj4Q0KXUAfFOJ+grKhbW4FuCq31umTay8po7eZZsRB2VCZViYv6f1QoKJ2cowbNmwlp3rW8BIpNMlOoJAqKyhKBgWeaZpk68ilUFih6ORj2DjS8ZYCNeqBZPqEvsVB8Z+hQBXn53Lj5itRegdJBYbRW4mqiWO4tbOCaqMIXN8KSLXRn1covDQZXVEpJCvkpayTD9MwBa7I6bW7DVurRI3RqDfuoGhl22oac5RXJ2QG4zFHiUgPOkMnRDnTDMK01sPgcOqVMA0T6auTHNwifbQuwhzVRcW1bT9W3CSat3gozQMYi4ri0m3bYGEsUmy9bicUuc0BvadcKk0uNsYAsUa6Os3WI8/HmHKKiANmpE5TU5J9Gi9APBRuUEvZsg0QVU8cZXNr08S15G05k2RTxFBFi75W5B66bOnduuzTyE2CGdDxKE7AFBa25YxKPtQXtaye5dSUy7Y6qXKFhZKneaBrLj1AhWzosmXlbTN4xX3PNUCPMh+hYAODHmVfP/D5XKFxfsNqNWehf3R6pSKtRocicEUXC+qV4ra48xKNQS0qrXNggxibwHaojaKC1B4u1pmc/7OoY2aWONY5wksx8kUUgESNTdHzJFf0PjT07TIqyyuLUJmSjUat1v2Fr4yS3mGNG6wV73/ApUPkbIXfVKSDZx4amuQ/wXHyjYsgETjfedky7hT1TVBdwdXrNoqvCY19lEjm05xg3nFGUjI8jzvKNOpcPnCgixV9eUd3WVkGoXGTPm46z7vPvMt4fxvVrBJvNHShBX46nKk2V54TCN5Sb+959zauLlWweP8+skHUjGO8HvLi+Y47COSVfxzPMLC3i8aM6nAsr8jIsT26klfD7UackX1qet62T5DX9tLKDfmgJlvHCwZ/fHJDni+VZG395A8YfiiOP95/K/Hl8enp8lOL6+/5txX46PK7jPjxXw==);lineShape=1;" parent="1" vertex="1">
                    <mxGeometry x="119.26284732094484" y="188.25719177620977" width="211.41762470637912" height="95.79316278449653" as="geometry"/>
                </mxCell>
                <mxCell id="4" value="" style="shape=stencil(lVbLUhtBDPyavao0T82cCfwHVZh4C8emjCHh79Fma40lvJ1w20f3zEjq1mhINy/b++fNEPnldDw8bX6PD6ftkH4MMY777eY4nvRpSLdDunk8HDc/j4fX/cP8/nw/IaenX4e3aYU/M69nkjixIr/PX1KgnP5+uZsJu3F/QZBCXQwhB4qAUDOFbgiFifs6oURKdoeqBLBDahRsDBKI2zoh6u9sCK1SKOuE7mPujQoIQUhsyF1XAAcqVJLHSwYRU7YBd6HO6/hAtVl8pgriZSps8UwJVEDrY/GtUAL54UUxZ7yuX9H5g82/qlDA+SNJsPhIDPBqAnv+2mF+KnWrn9qWiq/ox51f1y9AD0EDtgVTRfcICHHJx0WGigBC8inSEiALKMF5QGscUAzpiogCEJHGkGwMqtKMdmCqzjYCy9Cu2KwCfKVoQw58VvqKjtj5vi3OW9FptEXohRqoGlNzvg/UgG/Yn6cJMVyfXY3VNwHhxclUKIL8RArWN5Kg6LLvK6KdA+Tzu/ig6bYFKFowEHD60nkzw06dhao9kjaDBnbQu85dZlM3BgRtbW4HNRISnWrGVZkXX1zHR19lbILJtd3hM8Lr3WuLEJbedB0vVKyKEjV0eTff6ip0vTYF1yYCQ9f0L+PB1F3BDhdt5MxQnQAZTY3KxqBJgklt1GyS1BwN7SB+EJymGNBbtGzJTY7/1MX3Rs3/IOjD52T7OO5282B8+d9PwvppnqLT7Qc=);lineShape=1;" parent="1" vertex="1">
                    <mxGeometry x="131.37469019897526" y="237.78274810368214" width="25.432919390079633" height="11.374098644679748" as="geometry"/>
                </mxCell>
                <mxCell id="5" value="" style="shape=stencil(lVfbbtswDP0avxKSKEric9f9R4GmS7CsKdLs9vejYTgLmfoMe3McHlE8PLx44of3/dPbbirp/XI+fd39PDxf9hN/mko5vO5358PFniZ+nPjh5XTefTmfvr8+L7/fnmbL+enb6cd8wq8F14l5BpX0e3mRqCwvPi/mx8PrjXke1EawT2nbvgyqydlnyrJtz51EnX0l1m372oi7s1eqwF4qdX//LDQAoBUazQHsRrVtA7oR4gHMVMY2YGQqniJJxIDTMUh9DA1fSTsNcYBuR3QAUGIPGIUqAOR0lcEV0SDCXHQvPE0kKIix/n0FVEiTNmrFA0zsBQAq5QBQKkAbmomzF1PC5WCpqxpdMBKHkEoMQpAHJr2jCfFqmb1PxAAlagD2MViqO0i1AdTX6OwTeTA5e167JSIDQCPxHrq9QQCNNdfrSvTHqS6UJAIaSJyxPkIMshK9VaTZ09o7KVKf1XD1tGbYu01qIyROKAOWDKC+IAbOgwGSv5LyWlNbQXMAWNtAAIl9xmjoqG0UKqEeLCosjSC+uVVVKL4u8UoFVZwVZAAINeThfwEmtTAVrYAUSKONNa/XkWIeAEuica5LpgQAtVPyV+JGGTQym5rVS6MIrAdbTdQ3Mts1UKvs1FK0H4BVWxTu7AX0vUrJl5vtSg0EUOLqk63aQE+y6eOVna/L3If2aWXjZvVJIF4bZZ7PbDeE58fSXNvHhnlQUIeT0Hqb70WyduQNMsOQYkrgdI5bXoZDU0i8NtOauw2lcTRHjfqfO7k9/N3nXw7H4/I5cPt/3P/t1fLtwI9/AA==);lineShape=1;" parent="1" vertex="1">
                    <mxGeometry x="124.8417465758746" y="230.98367009597848" width="28.90790061589246" height="20.083039187289728" as="geometry"/>
                </mxCell>
                <mxCell id="6" value="" style="shape=stencil(lVbZctswDPwave6Q4InnNP2PzMSpNXXtjONef1+qGrECG++0bzqwBBZYAJzCw9vx6fUwiXu7XS+fD9/n59txCh8mkfl8PFznW3uawuMUHl4u18On6+Xr+Xl9f31aLJenL5dvywk/VpwKvCwocT/XLyHDu99fPq6A03zeAYogWEBU5HQf0H7XYABZ4QhACqL1oBFJCUCg1QIqAuHgC2o0AO8cHEMIUrIuFImlCTlb+4xKSAfkgULLcyQBwVkGNSOG+/ad3mZfFIWc78Z4Sk/ynfiH8zPnm1FsjbOHkhp7j2gLkCpUCKB5sBGlAmWy89t5HaDwhHLjkGyNsyASDsHBD51QkEjRgkCshxJQWBUExXqoDqkQgN8i7oACIbqWilxGoSrxIHHMkjYPhIPXrdl3rZYZIEL+Aqi/D1CIHyPSTCYY6tCbEY5JD8VKtVYkEk+Thc1QFThqP6oiwbP5uI3bLrtKVZQQBvtAZ0vaJtXensyW0BXTd06gBWitPkTkEyKbvn3+bwChGap+HNdum/fv2ydIGOzZ+mgCKDqeTwgvWzkN8bOu1LTt7L6UUYlCm+CjlXSlPdkayg8Ls60n0vW7fdoRfCG8g2iNFImPJShbhKZENuEX1rbKbSI7IuyWVmfT1IQaWZ7+9zb1D4D28Ofy9jKfTuvdb/9/vOy1T+tFMTz+Ag==);lineShape=1;" parent="1" vertex="1">
                    <mxGeometry x="166.36807305705133" y="264.73208816738236" width="13.88502612964544" height="10.80294632128198" as="geometry"/>
                </mxCell>
                <mxCell id="7" value="" style="shape=stencil(lVbbcuMwCP0avzICJCE99/IfnWm68Ww26aTpXv5+8XrsGNlmp2+yzJGAc0B0/PBxfHk/dBQ+btfL98Ov/vV27PixI+rPx8O1v+mq46eOH94u18O36+Xz/Dp+v78MlsPqx+XncMLvEYcJpAwoCn/GnQAh/dt4Hu1P/XlhTxUIjT1CKvv2iSFWa89AYR8gCJQMgBGC7ANKhGQ9SgEy7QNqAbIhS4LKDqBCEQMo6CZJAU1SS4bouxTIACpCdNJaY3tDVSLRAQRgy4PemZ0YSgK2LmFQaTjMFf3d+FRdIjTtDdVVIDk+qTbYUq158FzKGmNDRAV2bsgCOVpAnKLau4FsXqWAeDEESFZMwlAd5iQCWZf0CK8g1IFqmbtHtVdBGCwgQ8kOQJuAtDcUT308nbeIIXoAgWhd0jSwE7RKLdmgpU7MbAIWal5Q7aVJC0Ys1WVuDNuADGEl1+g1GoS6KojiAIpMfWhRcuJRjRNPC0B1AJJXjaa4zAm1Db/OnWS7guqqMwWoDnMbAHS7QKK25NKslk1AJEAbdFTiHKYpATaPlurb6QJILXFUpt62TVzLG4l7QWoLbthxzmdgGzHND/d2AO2jq3ODVzz6/Fh/UFwZrYpTxwZPFHO676+VO5dg+zDIlICd9GS2gnBPz4BWcATs1T2gTU6Yim5PPJEbe0//X53x/m+vi/tA+dafTuM8uvzfDqC6NQ6v/PQX);lineShape=1;" parent="1" vertex="1">
                    <mxGeometry x="163.1668981875266" y="262.17949160409523" width="16.044586486114667" height="15.658636480387713" as="geometry"/>
                </mxCell>
                <mxCell id="8" value="" style="shape=stencil(lVZJchsxDHzNXFHcAJJn2/mHqyxHU1Ykl6xsvw8mE9ImpOmKbyMKTWzdAKd497Z/fN1Nwb1dzqeX3c/56bKf4v0Uwnzc787zRb+m+DDFu+fTeff1fPp+fFp/vz4ulsvXt9OP5YZfK656krCggvu9niShUP6efFkBh/n4AZA9sQwAFqq8DeBMnAaACOW8DYiVpA6A4toVNwFeI3YDoBYqCBAswDtHzm0jCoVoPSRQpUTZRJQoRRARVZNygV1wFIstkUB7N8afAyWP7E08kiiCJkfyY4+16xHk2znW7QN5UH+vCYysS7X18DYgtfs6oFBFnMhU8xiShyloz8KVEDzwoEWSsQkSqAgApMbi3jVHGXR5oR2PgEoOSE1DimPSRagggGsRd2L3K7bKmgwgQw8+Eo851EoVULUSB2uPpMNUjDSFHGpbK3m3d83jhnSMfdEKQXs3xpOZPJQyGxbh+RsojvezVgwoR72P9WflLah/oXylzALiL5aji30FoyW0cjSAnlQAYGcZFAKsqDDJqDNdEBlIv7BdaQ7um2WYZ2OPto0uZTOue9Nv20ebAJ7ulRtjeo+JkX22g0hXNBhcqkA/rg8dxwI0sEh8TFgzxvvgSjaaA3pVqIt/Jek0wvNdN7xJIgollIRYDwmPa30TGGYnPUEhffax9h8A/Xh/Gz7Ph8P6tPz4v31L6tH6Do0PfwA=);lineShape=1;" parent="1" vertex="1">
                    <mxGeometry x="224.28268811318026" y="285.48743000466845" width="18.42129771414011" height="8.967430199999626" as="geometry"/>
                </mxCell>
                <mxCell id="9" value="" style="shape=stencil(lVbLchpBDPyavaqk0TzPjvMfrjIOVAi4ME7iv7cImQUNbKdy251V76il1mPSh7f10+tqCvx2POy/r35tno/rSb9MIWx269Vhc7SnSR8nfXjZH1bfDvv33fP5/fXpZHl6+rH/efrD7zNOKuVwQgX++HtCJf45+Hq23252V/aqVLO3Z6q6DEiRIjtAyNTqMiBHkuYAmim3ZUBRSskBYqHAy4CqpNEBUiPOy4BWqHnSlSmDKLXWP88AC0OAgDYAKiUBgErVk26BYgGATNFzaIkaiFJTYu+S3RkBafN44GCsKuBgMUntBgA4WNTjjUsZiK+Y1NQDMpRGiTc3BKqAtIkveHmfwgBIG0DLKA0UJXOp+Qq1MKACKoVydQA7qUB8VUaXSqKcAMA+iwdEKqjibuRtNzDgYOIbSFsqUV+yEhWf6dJwATUKHmBtQQBAmImHVNuluAvoUHLSe9sSCR0KIvYyvw+IFHzm7BcFsWbSoW00isClmol9mK7isKSmUsYrBOm1EstIQoBeTTsSxzAxKtK7ABDXHHq3vhJ4AGFKph2vDfsF6q6XmTYPrdiTfxcQuPeheSwyVF/qnXGeuwKDpKNYpUHKMvYAKcTAnvt4mu1jn9sL9kO1icBFgykMOYbuWCV6d2w+ApGG3n3mdJEA5+M4nUP37r5ASX3HZjgHbeUaViTGrUt7PV3sUQlL6gPmYo9S9b9L5L/t7eGysb5sttvzwnv9fdxw7ei8HevjJw==);lineShape=1;" parent="1" vertex="1">
                    <mxGeometry x="224.85516217486224" y="284.6607149725437" width="17.693030467125254" height="18.784540221602583" as="geometry"/>
                </mxCell>
                <mxCell id="10" value="" style="shape=stencil(lVfLctswDPwaXTEkCL7OafofmYlTe+raGcd9/X2heigHsLWZ3CQRgIgFdkFO6eFt+/S6mTi8nU/H75vfu+fzdkpfJubdYbs57c76NKXHKT28HE+bb6fjz8Pz5f31abacn34cf80R/lz8uFKV2YvD38uXKNTy/y9fLw773cE6xGYcuFFL6w5JSNg4SKUs6w66LMU4FKEC/lAiNetQM3EFDo1qtn/QEAwcEnWXQ6aEc4gWVoUBocSBQvKwCqiDlinbpLUyDSTdqQRrn6F9puLiMxWwoUTR2sdGGTUSJWevIHcUP1lE+2iT+yWjYNPNow3vw6n4V5supQjsM8Vo7AMsly7n7uwD6odM3cFDAaETBkWWhqOMWRmtfcXxFU9L+xhJAnRgm3BcSrK2o2o5NkMKSpbiDQNkaNOqdNmaaZd0UGS+ERYlJeyKQil7BwZlUBAda3RLBdShDBVZ7BM1IES6alOOnTrCiMTG10ZHfcRDNxf7QB3YC3XLYk0XbEclxHZdIkYsTh7/AAscbwZBgD36WXsdXK7jFB4kok1V18mQEAOH3j3NBM++GIJXRh2HDFqotdGRw0G/dCC9VVllk+gVlq2EcSC4woSBFRnis/xC+xQ4zOPDNmptY0SvCbwTvFKhHOn0tSjlD5ljmS9MFTD/pmxKDjRBwtCF9/MVcedmHkfYFnoasPEXbqwQ382/Mqi9gqYjjsDDyjy+3XmLKiL+oiNX+4jiF5Lq7BlsX1XWCZeMDd4HU08brnvgdNVw1Y9vtB9F252pO4Rfw4kb90wRXws+fY/4yEEfrteWl91+f7n1vF/31xz9dLkipcd/);lineShape=1;" parent="1" vertex="1">
                    <mxGeometry x="228.6529056850502" y="121.57262133385711" width="16.42682479440873" height="19.655319181494292" as="geometry"/>
                </mxCell>
                <mxCell id="11" value="" style="shape=stencil(hVfZchpBDPyafVXNpdHMs+P8h6uMAxUCLkyuv4821OCVFpq3vXp1dOuYKT99bF/eN1MKH+fT8fvm9+71vJ3ylyml3WG7Oe3OejXl5yk/vR1Pm2+n48/D6+X+/WX+cr76cfw1/+HPBSeZosyoFP5enuRMuf1/8vUC2O8OC0BlDyiBagSASIENgCMVBoBEpRjAbBNZ6BSDAYg8AlTrktoMGQAqSfUxdJQlfW1jKAm6xEwlWh4SdQDQrIu1kDTR6T4gVWo2hiSQ6ZSpJQvo1MN9QOwk3cYQiTsAMKVV0AkBAjF7Cx0EXSk7A/oHlKTxt2vIjRIQxpoEhgEEClapahGRpv9v5vvYSEDtqP+WAU1xQ8KmYv2JmbhCAqqt/qi6BiJS+zlbQKRWoIh68BaQSyrTbjmOhRLSdaXuXKpD6bcBjaplOeJCUECztKmTCRSzVmJ1urgycxtQqLti1iYI0qrNwZdapAiUoTkRNxgeMK1KbisAIE58E1aPAqid7GnTkANyyNf+3A1grYUVaShDgbL1X1UBZTQGwEJ2gijzU23+HtR+1te2eV27ze2Rs2rXAiWkU7O7gAsVQJj0sRhcM1ooggw18RYyE4MQehmMXseskCBAo+x2C00SbHirli26nwg0Ea2JVgaTtwFhuDwAGhYDInS7cVEvvLy3Urkg1EsB2ubgB2HHXTg3T53UsdHcBrCPWpcs1FRzoWrlyqpXVA+rtVCdzCDowt6CdhgGVHMZDW4xzgvIEtcxmZZLG1oL2xjfy9EDLOji6Qd0x/u8pjV5AFphqhBHD0A1J2HMjWvQAa6FnwW2yBLahUUHvhWftm4GQYtu227PY9zK2G8l2iwZiE8BdTWgKyrq4ldJHYcVNMv55GYtzCc3FMPjo55efB4U33b7/eWcuXzvD5b66HIozc//AA==);lineShape=1;" parent="1" vertex="1">
                    <mxGeometry x="270.6408154032256" y="112.43140979722943" width="18.157380108014422" height="25.672701724719218" as="geometry"/>
                </mxCell>
                <mxCell id="12" value="" style="shape=stencil(rVfbbtswDP0avxISdaH03HX/UaDpEixLijTd5e9Hz5AXcvHBBuzNcXgkXs4h6Sk9vO2fXncTh7fr5fx59+3wfN1P6cPEfDjtd5fDVZ+m9Dilh5fzZffpcn4/PS+/X59my/npy/nrfML3BVczlT6jOPxY3rBQbL/efFwAx8PpBpAzdTaA1CnzNiBFSs0ASiKJAFApVAOQQKFsA0qhFg2gNup1G6BBdxt0kXHnfQBTCgaQmQS4lIUk2yxlyn0bwOxdSkwlbwOilql6QECA6LPEnRpwSajYmLlSAnXLVG2dOVIF5yeqNoBYx40b55dk7SMxYKoQO1YMqm/lJ7v8DKbft68jumEfqIL863ElOvsAwuVGXGy8FASkM43qrIQgQbpUAomVGQnwZ5a5PT9qRMghpZclkHK2JQBoPoK5BAhQKDjKCSUECJSdaAIVwCElXXc6ZnhD7N6lGYBol7zM1CUBLrXx703MiHeFspWN8iIhXpBYWkclIuiNmYKT5drK7vdSita+wdarJLIVy1A1MVPzqmEQrYqwWHtV5X+0L5FEnD8ZDA7RJmXHq/YlAYTrWl97wTxwQUJjWPvOOv0azFFrXjWNqQGKVm3tNoje4PTT4Zhc1QLujn10ktWlCmP4I2Yd6RGc33wE2i4zGH4KaFaW2gkS2hCU9lZnePopkVxjKZh42a9dmRjwSDcgp/sM98AaKbKzb3jncvuKFgy0rVpJHOmg/7ryiacQnH/zUunmWYLzTAHZlVhXAMAJBUQ7PJQTFeVI11bX23m0m/sAGSReAQXS+p/X/b8A6MPvr4uXw/G4fJzc/u+/RvTV8iWTHn8C);lineShape=1;" parent="1" vertex="1">
                    <mxGeometry x="263.0379255075927" y="167.08906655311944" width="15.552141590480915" height="17.287813419943177" as="geometry"/>
                </mxCell>
                <mxCell id="13" value="" style="shape=stencil(lVfZchtBCPwavVLD3Dw7zn+4ynKkimK5ZOX6+7BRZrOwq67kTQc9MNA0zC49vB+e3va7GN6vl/Pn/ffj8/WwSx92MR5fD/vL8aqfdulxlx5ezpf9p8v56+vz7fvb02Q5ffpy/jad8OOG40i9TqgYft5+kUKh/f7l4w1wOr4uAI1qM/Y9UwP2mUoy9q2S5Pv2kTgY+9pJ6n37QLUY+yLjRnfsgz2/BGogHv3Xnp8DSUTxZ3vfxBQ7yk+Lxl5P6OB8ZioWIFTBfWOnZgs8Z2DTvqRx3LBnGE9jCt3a64WBA+VLtAyKiRIAiEbENqVKoQIAbVRorlmnLgAgVOwdlESMihBWNNI8xARdsFhAHonbBlRqDlCpAqJqmoJlautUQUi9U7K3bto6IK89UbQeeiAGd9AAYvAeChKX5MmqRwRQuRYoOw+FBJBJ1SRb9qnPCEqtAHaAQAnUoYpXvNqogA5tKhmW37UQI0Cl4gBpHLFdOKZkuVTjSMM2oI6IlwAQkvD4exFSAh50yriWmy4N7iCdSvBpzbipxVEjDOW5B/jTXwtqMNYZNxuUfB2JQKZshWmiN+pplRlb6amBAEDFVdx4DoO/21ySEfFSBBBAy5T9HSoC8EpmVMhA4aaB7zxkWAcFuBE0+cQisAEA5FOqiW0gHRBoi1EA27QWxqqRhwrNM4vhHlOU/ZZ8umggEcjKVhuSTnYBgJQ8vVlgT8fVQEmRGvAQ61gdF5cugBqxrOqAe1o9JOuh9JGGbUAbZZplplIHhdOsu7Graot6Oq1CEky+NAcwAyIknwKKzZIKTwFzOhW/ROv2wciD7i7u1dDG1LuXJbHkE6waUVZZEij3Wmk3dgW3qG6dLkuLrW4boW+B4F2g3ZtndV/cGm2uXHxDTLss4AZnPyCkwg767/fePwD0w9/n5cvxdLq9Tpf/++eo/nR7yqbHXw==);lineShape=1;" parent="1" vertex="1">
                    <mxGeometry x="384.2931408952875" y="150.42554104729243" width="17.495179148153284" height="31.306060190652715" as="geometry"/>
                </mxCell>
                <mxCell id="14" value="" style="shape=stencil(lVZJcttADHwNr6jBrJiz4/zDVZYjVRTJJSuJ/fuAYZESILGd3LhMY4BubEN6eNs+vW6GGN7Op+P3ze/d83k7pC9DjLvDdnPanfVpSI9Deng5njbfTsefh+fp/fVpPDk+/Tj+Gi28T7hSqLQRFcPH9CUKZfn75esE2O8OV4CcqBUDSJVKXAekPv+eASVT7+CGSpzsDYFSgy5VsTEk6p/EwAbAjWKGLkXrEgcS4FIJ1C2tynMC5xvlbC+gBuxXpbCa84FCWD/fIrXsziegQeve/0id189LIbESNErAH+kzfUu8iQKQrDMVJ1mnChjqgaqVLFZKFbikHru0i5QRgKm7SlhM3Ce1ULCAHCgXoLLac4CFhvtptHBydQPSuUSS4GOI4IbcZk6uWEJK50wxeh0YF2e2AFUadqTi+wXjZM2d2LLUiIEM2iPZFo+yBjpejTPnV8UG7Lfg/dFiBvZb8yozCbAvmdiKXKiixBZq1n9mCqA9jgC5AYBK4LC0qyVRVQMQc5d5BMyAWj7zyYlwoeG+ap2aTaOOB1uWuVIuQwF3YeXdVVtfxu/9qIldDDrYAK+aZ9Yj7SACHLpVoUKO1H/rj1aOgNLUQuGbxGDQj1L2IiQSoHISPzcjzIocqdiOqomKVovqFVsG++rcr85+Q60l+1JLcNUp4kdImQf7/aQOVKw/Mq8+a63LtSLtpYwBjiAuMGIFZAfQ9o5uYJ+kY/tFM01u1sGCRfvfHfgfAPpwWblfdvv9tLFf//crun6a1vv0+Ac=);lineShape=1;" parent="1" vertex="1">
                    <mxGeometry x="411.05909718522344" y="162.10488526636425" width="12.273016341661332" height="14.201818852081601" as="geometry"/>
                </mxCell>
                <mxCell id="15" value="" style="shape=stencil(lZfLbuMwDEW/xltCFPVc9/EfBZpOjEmTIk0707+vDEO2Rdu36M5xeCxSJC+lTu7ej09vh86a99v18vfwr3++HTu576ztz8fDtb+Vp04eOrl7uVwPf66Xj/Pz+PvtabAcnl4vn8MX/o9cCmT9QFnzNb7JlMYXj6P9qT8v7KMjG5S9lX1774ltY88RLuACSWwA68jkfUCiBoQpIcCQSw3gmIzZB4oDqY3ZM1kHAEvSbmpgkgCBJA0QDYUIXYotkAxZEIN4Su0uZalRbQOBokq0r6WyBzjXAgHGII6yAiLlBABLrg06ZzIoD5nYayAiwJNrd4mNwbXBFFdLJABwIskaYJAI9qsVUg1rG3DERicigUSwUGCdaodXEJWI0qMICMQq6FLxDHcpK4BhDKWDnNeAgBXs2iWGHTQIo9WARw1hazUvghYLe1TUClJ7aq/lgtF5iKiDCqBcCj/JhleyEeubbUCq0C2qNaKgTU3Toh/QtpbExRWQsbjmsAKAS5xXtVTeICCQFx20R4BbARGWxq8Bq0WjzAck94Z82w1lACVQepMqThPOUESyV0VxmrmZAvAn6KqQVD3c0zDTDhMbq4TsCoaS+oxbQerMnwCGIbjVMPF1pG6HbIjb5uR6UNk+ioV6zKn2eFRlU09q8/cNOLoVtcpe2QsoiTI01GTD57BSwa6VO0sBfT/Vrp1qgjzYz3kQTzVHHuznYtTPCUMJHoSqdShAqSsBSJvgWKVs2z7U5acmhtpbxF/rFjyxzSN1tkc9nMppS00PysD/394tfrYvD/NF5qU/ncZ70PJ/ffEpr8ZLkzx8Aw==);lineShape=1;" parent="1" vertex="1">
                    <mxGeometry x="436.97670513409867" y="143.72596647430998" width="15.89235382682341" height="41.792045716686744" as="geometry"/>
                </mxCell>
                <mxCell id="16" value="" style="shape=stencil(lVfZbttADPwavRLL5Z7PafofAeLURl07cJwef1+qgmSTiqbImyyT2uExQ+4gD2/7p9fdEMPb9XL+vvt1eL7uB/kyxHg47XeXw1WfBnkc5OHlfNl9u5zfT8/T79en0XJ8+nH+OX7h9+QXI9UyesXwZ3oTiMO/F18n++PhdGcvlaQb+0gs2/apk4ixzxT6tn1W+2rsG/W6bV8zxWTsuVHjbYcm1CwgYXxCp2wzlNKMcesEtinKQh3E3COFbBxKogSSyiFQCMajVuoZHJEo27Tqm9pAEIm4WYdOEQRRIyUL6Q7lx6UOc5DLEYUKCEK0EjZPXSiBSsTum6N1GLX2TrG1btqu4ATxQWs/IkRMbAFVgTnSDDp7TM9A0eIplQIKmAr7zosF0Jk4WnslTwJdMWdjsQ8kwJ6ZxAJSQSgAEK/4rw4I0SgP2YfAqImYqnMQihE4CBULqWRqIAbNqjgHBQli0BMcpMrUECSe1WFxUEEAKsndF7oqN8EJWgenkqMiIQeeub44NCwwM3PvDiigtZMfJBoBo05afV8nBfi+Uq36GqDJtpJsLTKmprfPEL/MXbzYx7kPP7QvFG28Sk2ojRrAiprQQXzTjQ6Imlpi9pAQ+TWnrfmY06cd0MhRAC6rHQp20ia2Q00nQgWQyjJgFocOya9tXG1jjCsNcmBKdh8ZyY8gKRXEZwnJS87zUFoqzfPg2nLoFpLOdrTxaCO4QauVQUuY7p1usumimgE9RTwkLrPKbkmk2F7iBGVe29tpKic8DJdVeXHQfQOp9modYd3OUQzRi4ayvKATeKbLbT1vIKtqH13vYdHTqeB2ZxJANw3ATRGBK6RmPPjrC5rlWoLurhdQ5HnR9Nt1CpU4rvoa78yfva79314fbnfDl8PxOF0t7//3d0l9Nd1D5fEv);lineShape=1;" parent="1" vertex="1">
                    <mxGeometry x="467.8757155834112" y="159.8080922625802" width="22.422611171059998" height="29.306999818119948" as="geometry"/>
                </mxCell>
                <mxCell id="17" value="" style="shape=stencil(lVfZbtswEPwavS7IXS6P5zT9jwBxaqOuHThOj7/vqoJccS2P4TcdM+TsTQ7y9LF9ed8MHD7Op+P3za/d63k7yJeBeXfYbk67sz0N8jzI09vxtPl2On4eXqf395cROT79OP4cV/g98Qq1PJI4/Jk+tEhN/n35OuH3u8MCz0o1dYTaKMXbhJTn3xdCothuE3KkIh2hZJIKCJW4l1QihXCbYL8zd4ScqCRAYNLSEbRQQIRArZeUKmkGNhSKvdEpUERGmw09QeIcmVWCmomtI3CiBAgWuKgdISoVEGkJpD3BcqWAVGrEvVcTZSDoGi8kAH+thyki/UytX9/SCIRAstcTSBQ41CLKDo/SNKUVPPBnKlTF4RXo0UC1OnsFFKayT2orC6BfhWpw8SpAv+HFVRkFUDNqJdBndJ4bwbp/qtdfYIkl9Z2rzCW0jo+Uev0VxlcKKT+wvgi19oB+awiuL2L/WH1pfsD/hnc9C8fX8E4/zh+rx+AaEMxPMbn9+jj/pVKNDg/ri30+36nfTFkdHvaH5mdxhHqsHqU6f6L+9ih+nKvO/zJ3vPWpV+f1LhvYDoBQ1Ve89ewAQmyHk9q7aAwiyNGW/XFl7JJ8mxDDJaiLWc+A0ZrXlDOMc1Mfh2KTGFhd83wkuzSWCCXZgam6TpRhqdn5x52IzNOMenv0kWsJF1uec/lCKHB6x+KNNkdn4KWYqLEnNJB9Mfp6XgR/PRBU1O+AOrb6gWN4lBlC6ky2HYEeG4DV+7SCiRAoObxlFtBzVQqWuhjPbv00e+CGfu4bdrMRB/Tz/HeBj+Cyor6BNaYE8MUfAO9chu5fnuzh/83rbbffTxe35X9/U7NP0y1Pnv8C);lineShape=1;" parent="1" vertex="1">
                    <mxGeometry x="496.21600720836636" y="146.36895067112175" width="15.324044134000133" height="47.20836296594996" as="geometry"/>
                </mxCell>
                <mxCell id="18" value="" style="shape=stencil(1VjLbhsxDPwaXwmR1POcpv8RIE5j1I0DJ+nj78utoY3F9Y5RoIfmZu+KK3I4HFLa6M3L493zdiPh5fV4+Lr9sbt/fdzop43I7ulxe9y92q+N3m705uFw3H45Ht6e7k//n++mldOvb4fv0xd+nuwkUpLJSsKv05NGnP88+Hxav989na8XanVYL5U0AgMmDoNBTBTCugFXKuMOOcEdOFGJg0FlqgwNZHSpKqUEDCJpGQ0SJYASK3EaDQpJAQZMeUxDrZTaukGj6jxqFHV9fe2Yn60vIIJMLH59AkkwhNT7X0GWhcoCoFQBQBSzz0AD/oTu7VmKG/h+oOD8MQ4BPIPHszSYr0CRx/WlP7m43ig/xpsL9McIpGPCUqOADCrl0aPYSEERSPEQaet7XjTQ7GM21irAKBbKbTRgSgikSm3cgTNlkOXcetnOBpEqCNqyWtwOhRjEYDR2LllpCIihKckod6rYIFMbSy1qx+2ywazoMzUirGUOS3ZHWG3Ninf0qQmUIwtCRp9agqluhqLrU4Y0ELBmiupcanAHE6ziuPGOw2WL5HNtWyign2mQ6yMWREE+meyJh4lBH6mBJPlEIBkwgrex5uosDGs75EUvRK2tSqfzbCBd3C4bxIXWh2s1x2MJlQrFvlleFwYVxGAg1tElww3phqVJXD/E/WSqatewImVAPmNOdbDaExR08fy2ElEsNG4Qa1g37LWbDW1PQQbiu/SkVYh8JseLokYqUDPVxQ6w4qIXy1Z70a6VqCsgw42RaixGE2sBDProVKKLWQ/NbraDOi5l2Nr/3kD6vDyPJxkrX+jcnHuQPQE1PTUcN20kODBl9eTT2Mf8y8ODfW8MWgtsEDF3qp01Xgb0VhvhxzaaDDfAJQ2Lo49ALol61SgMZ7IPc/RBQvb/HX2i9/8fH30WGbhy9HHf1y5RH+Low16BS+qIreDvbjCsaATgWXwvj9IFdoVv0Z1KCtQ6k2vHN2J0EAt+ss0UUL0EX/MRjoQ8D4Cz/x2wtQJ2MyfDJm6S4r4fIDx2RHNzCJ6y7aCa/PcRnvbazZsB0sfCKz5eRH8R345tqsca7VsfBVAulk5fL31aXVu/vMEDfLh+42c/3q8LH3b7/em28fy9v160R6erSb39DQ==);lineShape=1;" parent="1" vertex="1">
                    <mxGeometry x="377.3246617030852" y="274.3299470541415" width="28.328562513467887" height="23.94201290839692" as="geometry"/>
                </mxCell>
                <mxCell id="19" value="" style="shape=stencil(lVbLchpBDPyavapmpHmeHec/XGUwWyHgwji2/95aLxAks53KbVlao0d3a2eQu5fNw/Nq4PByPOx/rd7Gx+NmkB8D87jbrA7jUZ8GuR/kbr0/rJ4O+9fd4/z7+WFCTk+/93+mE97nuEIxT0EcPk4vKmX5evNzxm/H3RWeG+VuAlKn1pYDciIRE6A5a14OqJohmQChUpbxjSlFgw/UA8Brenb4APA9UrDn6wtQf0/UxNXfE8BXqnaijaQCfKdcbT0CGdCA3mwApqw36rYizpCyriMNtuWAMwiJ4zidWblNWie2PUiBGVqiblmWShEIuwWqrqRMCelUz7M8CEMh1UTZ9sD17L7bAUJsS1LpnbS+FCCWh5hJwJS0JNd0p9Jhz8lONUFtN7VKcd4piOZMbGeq3kQsa7ne+wnUr7orbqJn8y0J26kI7y61WrT4GKmD5RXDZflcIio1bP9kR6T7paGaqt/YSjKjplWnljQRyNrtAKBT/ca4FZy1aWCdFPwK069EAxl0wwWbYRoDUFIsxHZr98vKuR3wzZxXXC5wTRx8iorsTGLFrYs5AR6Sn6rKl8H57IWh9kB4NbPtWO2XgZACRSsLtXcGSv1mBV0fAvHuQ6jricF84tknF7zuS1C/+OVYtSNA8P/epf6N14e/F7f1uN3O977r//1FT1/Nl0S5/wQ=);lineShape=1;" parent="1" vertex="1">
                    <mxGeometry x="410.58842605497534" y="290.8678083740285" width="15.984769938588443" height="11.545932808799193" as="geometry"/>
                </mxCell>
                <mxCell id="20" value="" style="shape=stencil(lVbLbhsxDPyavRKUREnUOU3/I0Cc2qhrB47Tx9+XxkLJUuudojetliOKwyGpKT287Z9ed1Pkt+vl/H336/B83U/pyxTj4bTfXQ5XW03pcUoPL+fL7tvl/H56nr9fn26Wt9WP88/bCb9nXI5Uyg0V+c+800jmja+z/fFwWtorBXH2iSmnbUBlCskBzGUAgCYU1QE0UMwAoJSrBwiVuA0IzMTsEUqpQhfig2gWRIBBcPSATAKC0Epx8KDEAnhVqj7q1qiAK5XW87QAtAYATLLyEEAMlticPaBSAGKSQrl5gMBUS6I40MpUQdASqXoPWqgBbUim5PWt5hNII3Nn/QPAvUS2Kog9S7WSAg+l9N8fgEJFgTRKZ30BQCxZvTQZr9RQyUWKbQwasWRCkBWtgrpAI/UxWIUEhoChbZg0FMjbCrIOACFBLLVO4kLeEeTB+lYd1GqXBB6qNWNfootWdV8bqV954SKj/p2JV0E0IFexzjgAct/ZBKxaHwKESjxMiNKTf58mUm+fEgWQBx4LLsTebLfs/XRoeJyQeB1ZPKAUZMyYUEWDofvu5rHL9v5lEukQLNRosDrz5zMlwE1c9RYs0GQzIYznI3sd7e3+wN4mgvLAT0Hsa0/OJ/0ouTkQ+06H58d/v6f+aW+Lz8fby+F4nN9+y//jY8+25odievwL);lineShape=1;" parent="1" vertex="1">
                    <mxGeometry x="415.3104949026474" y="287.0970288063626" width="7.928427495063261" height="19.392682230973037" as="geometry"/>
                </mxCell>
                <mxCell id="21" value="" style="shape=stencil(jVfZctswDPwavWJ4gSSe0/Q/MhOn1tS1M457/X2hqpRFSN7pmyxzhWuxAIf49HF8eT8MwX3crpevh5/j6+04xE9DCOP5eLiON30a4vMQn94u18OX6+X7+XX+/f4ynZyevl1+TF/4NeNqoVAmVHC/5zc+Eae/bz7PgNN4XgFKJMkWEAEgO0qhB1Ty8TEgFUrSAUKBFiJT6F1KnkoGAEeZOwA78uExQB1ItQdUqiCGu8cNoHlzABA1rT2gZhx0Ju7TWiuxA4DSctIA4sl5CODeJYmUQZa0DrXPkmRyqA7BckkqBAQhZyxIY9c+INlKe+fIgTSFhQkrEwVUzjOJ2CD+Gd0HBMrFpqmCqL2zpRbtUQCQnUpLhQZSD6iaVpAkDYH7EFRHHLKg1OjrULkJzz5ASIyFRB5RI9kWrRFmNVSSaC0k1A+htfwqhoJ1qTqbJUSlqeN6gCgbAZWmnjb9ELDyqWoYgNYBFC6m1pALoDSyPNLW1Fda+8eBGEJuIa4AgjrUU/YbABABrzNONi4JAKjObYJmZGEXgETDSkB10MCiWe18Zsrw+6k/zwyZx1ZXE1NC7bmpspI9Iw0r7XvLUM9tau9XWR3uQ5jWBkQ8bsPpLvVUAPF0z3A9LRguAYXbBG/n8STReWxypDUG/qhIm53BUQXyokPA+OOJgX7plImmBHDT0zEW+grEJuL753VmJJPPCKfOhtVaEeSQNEFfugaSeuryDSMiimBp2gXgm4TvA9gOHVUCtFOpPMsGgMRuGgA9SXXdRhvPtNBv9nNU5v+4AejD/f7wNp5O8/Vj/b+9b+ir+a4Sn/8A);lineShape=1;" parent="1" vertex="1">
                    <mxGeometry x="437.8995509960457" y="281.28612981178264" width="17.642490876788315" height="30.664787459949935" as="geometry"/>
                </mxCell>
                <mxCell id="22" value="" style="shape=stencil(lVfZbttADPwavRJ7krvPafofAeLURl07cJwef1+6wsYmZU2RN1nieMnh8NgpP7xtn143Uwpv59Px++bX7vm8nfKXKaXdYbs57c76NOXHKT+8HE+bb6fj++F5/v36dLG8PP04/rz8w+8ZVxrFfkGl8Gd+E6iEfy++zvb73eHGnvVzNfaZWl+3lzY+D/uYqIMDeqJqAalQKeuAGAKFYF3qxA0ckamLAdRKua4DWiKxPnGiBIKQTiEagAhJArQ2qtalziQghiqUm+X1ysNdRJY7RwRAbBIKbAGROK4DCmVrL5WEQeYGJR/2mnsQc6BkpaesSUb20eqCCzGwj5SdfSAG2s4kNsmXpID/Vz5tymqhDviMkYLTaSYWAKieIQUIEHbsFJ1LlSLSRKLCPmbEkYpCiiU1UgQkpTp0/wFQlwBLCiiWJe6UEEA7lmVJMqwcFYZLnPB4c59W8SxpG0RBx7wonUYd5EEjTN6+gJjrwiEmBv1I09w8RbjU2JaOhNE8Vuxdy2aGKQijkdyoqANhJy+i2gbDK/y0xUSoQNadxPqvhYbypQlu7AEVlbJQz75ZVFSZcVGZDEfOpwGFF0Mtwn6nISanuk4dnFCjZ0k7PIM0KyduCuqZBeRZe0mzhVPSSP39ns1eGZflAk1yWSxIYTi5FgPbGFS9DcSgHhe3UnW4jRQdnA7QxqC4P9jaYrngwdt9wIKlqKMNBJ2rz7SuhQ1oSQHFVlwMVEHHU0C1atUWjGLmweGHlKihCGQ03JtFGP2/roRur4X+lDgG8XUxR3tzUeEnZx+BsMuiEvD6+NmLwv/t9eF6K3nZ7ffzpeb2u7/F6Kv5BpQf/wI=);lineShape=1;" parent="1" vertex="1">
                    <mxGeometry x="455.37585473125887" y="292.5979348791092" width="22.108445429684025" height="22.476025079190435" as="geometry"/>
                </mxCell>
                <mxCell id="23" value="" style="shape=stencil(lVfZchpBDPyafVVp7tGz4/yHq4wDFQIuTK6/jwiZ9UqwnfIbh1o7krpbs1N6eNs+vW6myG/n0/Hr5ufu+byd0qcpxt1huzntzvppSo9Teng5njZfTsfvh+fr99enS+Tl07fjj0uGX1dcpsIXUOTf1x8kUql/f/l8jd/vDov40CkEA+hCIa0DUqVaLCBSa+uArIBkAK1TBkcqlWK3gAQBNVONBlAbhbIOaJGSPVKRUdV9QKfaLCBQzOsA7Um2R8raJQaARM0CUh4p1gCuS7GNUd4HBOoOwJRR0TLmOgAhj0PeBzBV+4QOmaFTao5KFAXEF0qW3I0yqLgmKmJ5QRHFR+pWC5k6qFfzs6WR8hTMWHn6jzPzBIhRf6qvNxCj/DL+HvE8OLImAy4uHuVvhUJ28QHlbyQ+f0camNO919sxo918dSDgPCpKtuef3XItf7bnKSTgPCoYsYJRRQLf0v44V1EzRvqa6bjQF5pX8J7SqQNrr/1Wv6g/yk/XTxU0MEXlP9t659Wwpkeprv8JnUf1a/mWqCN9qeda/aprY/8pNj5QQv7QfX94EGptXhxcPIN+Kh9C8vGg3o/GSxvtmOtVRwUFiHhDDEIdVKAAN2GlELKgwOw9TvekABJJ9/eVnOGelDnfzLoELwddn+DWTBrGuuZz1c5ZJ1/QJubR9hkgcFPqdaY4Z8nQunL3o9ZrINKCXgPF1iDaJTA51XqyNYhuY3QzjSPfDNCqAJmCtrV6QEf7wI9hwa77gh5TWj4ANCnfqwCUHEe2RTwDgwk3l/1OCUxZaWT3wUXhwADY+5FUyNMbbUqBnGC/X1V7FZxH97H1U+UcWmhxXDcW8Uj6H315+n+8fnh/U3vZ7ffXF73l//7NTn+6vhWmxz8=);lineShape=1;" parent="1" vertex="1">
                    <mxGeometry x="472.35396895021495" y="277.628009052419" width="21.593255914189967" height="47.03014583439813" as="geometry"/>
                </mxCell>
                <mxCell id="24" value="" style="shape=stencil(lVfZctswDPwav2LAAyTxnKb/kZk4tadunHHc6+8L1UNVhOTN9E2WsSKOxQLcpYf3w9Pbfhf5/Xo5f93/PD5fD7v0aRfj8fWwvxyv9rRLj7v08HK+7L9czt9fn2+/354my+np2/nH9IVfNxwT8wSK/Pv2QiPV+PfN55v96fg62Gcd7FukxPftE+U42Behku/bF0ptsJdCAdiHQCUNgCwUFQAayXhCypRBBOZSDgMgZgoJhJxJxxNCpgZcyrmnpANqP3LTXqQ7PHtEDL5fKpWxCHPVN+0bU0r++yBgZV9kpSDAXqjWMUGNCghArWauBI1aBUXmFa+TkqAYlNoYg3Anyj2fkozMDsSAqWo8GqMuSgpaTTPFMYZqeSigbkp15JFVpoKgW6Mw5lUTBcQMIRmDNicVuRQ9lSwNAQRtIVb1gAzSWqXrzwwQUhBDjRSjj0EAXa1Mbexn00hBGmZlir4ODOhqgDie0CrUJHMpOBnOnb/bQQcKxeu2gJariXRkq6mCojpUX2kDMKIG9zItASAGCzGqBzTgkiUxiA8acaltpbVg5fOA2t/cA/DYonZmQ1myfhgLZ+RLCFD8hDZ6Z5RWG9HuBMFcUj/fphYFWarz30sRAP1g5AvNu8RAjCt3YVwIWcQd15yQMRTjqUUdvRvcMwzghpyJZ0Eys6r0BwDLkuPSpIW4RZ0IiPZ1654Yu0XDhiLaTKYBNQJyoIS4JN6lmHFapXfwvDtIr8z2ssSerbaToizl1cqaQh/12/veit7Zxi7aidkDprSiFdQmmgMoPMEWNh1FwNiFChfUbzMmlWiKThvbquNQpQ3g5/S8J28Dqt+7TTXQ2A2F2PV07ZN7G5ApuRMaKah0iF1UZoBSgXtoH4EzWxnv3uZx8CcooneXiIV9RmTtvFmEXAAxYtfdRU7RCOXVrmRVAd/nldJnSNT/v69+ZG8P/y7HL8fT6Xa3Xv7vL9P26nYRT49/AA==);lineShape=1;" parent="1" vertex="1">
                    <mxGeometry x="313.7267369708868" y="388.8245848313709" width="22.21660549439048" height="29.644232841402186" as="geometry"/>
                </mxCell>
                <mxCell id="25" value="" style="shape=stencil(lVbZchpBDPwaXrvmHunZcf7DVcaBCgEXxjn+PtpslqAB2pUqHpZd9ejoljSr/PC2eXpdr1J4Ox0PX9c/ts+nzSp/WqW03W/Wx+3Jnlb5cZUfXg7H9Zfj4X3/PP9/fZosp6dvh+/TCT9nXIwwyPQLv+Y3ASH8efF5tt9t9xf2qUOKsy/QfN++BGh09opK7FtC9fFEgbT7gF4g3kGqqPE+QCMkOEDu6IUAKqL3UBIiyUHtvOoBilQJQFF8Uasg9/uAGM4sLYgmtK7mIosDdEFjMXU0H5NYWkQZakJonunCAREte4BACREWgKoHKJSUSQqKF9OUlRBARPZl1YRMxGRFVE/15JPw0C0AH9IkYMKDAYr30AoqycFCKp6HynmQgDq0dENiPGSU7gEmRyWANlYpNwgBaECLI4AxbVILVyFl1g9tVKsl/ZeZ2wAZxVdtLrCQdBHzmTgDsH5Q9EEaFZm1qCwpXohPWEh1DMnkTYdAQh86rlMPYoPOE3cxqm4jbFp75iwt+QAgVwDWo6YEn4TpMRGADd/qk5janGRtC0R9Dq0jEDHZihJPdYt0bCjiID5zwNboyFvlS7GMNa2JxmO6GFZiX/rp9sJCGtrT5iqxD4vwz/1f6flX63CqGCEgLAPubJ/oyIvjeIkVndZnXDxUQAXJN3JFIiO+jbs88r2J7kddQCRN/79Xwo/t7eHf/fNlu9vN19fL7+N91V7Nd938+Bs=);lineShape=1;" parent="1" vertex="1">
                    <mxGeometry x="350.4829682315533" y="396.6929998602361" width="20.74924236416632" height="7.3897567516630716" as="geometry"/>
                </mxCell>
                <mxCell id="26" value="" style="shape=stencil(lZbdbtswDIWfxreEKEqkdN2f9yjQdDGWJkWadtvbj56hxFRtDr1zFH42eXhEaaC79/3T226I4f1yPv3c/RqfL/uB7ocYx+N+dx4v+jTQw0B3L6fz7sf59HF8nn+/PU2R09Pr6XN6w++ZwwKxTFQMf+aVBEz/Fh7n+MN4XMRHgRBNPArEtA0kAgkGiAUwbgOcoWYDkADLNlAqJAskTTJvA5Ug2ZRShVocgIGtSDkDsQMUqGwAjsC4DWAIEGxOEvycKnC1gK4EN6dgZSoC2ZMpQxQD1NSavw5gs84VKEAOMCXQmemmwzpBTffFJ0rdBlSUbGXSsoIHcFPxKlN1q5YEYosoCOTUoABamSSCOI1QoNgaOEH0AIZqv5AZxLFfUdWTBdR9fh9KNzYEkjM3irrPNi5dN9W6mSKgTSmVJvSWXftNqmZxUprMaVVilcEDKhRrDfZHmQLV1qCdEX9uiE2pZD8lBkJr7wjBl7V2gAA6KWnjeqC6bi1f9oMC2Zvf3wW0TdxNMt2ijr2JW4nLPjj2RlXJ7jjdQNHpdILcuTu2xqwfo63A6xmnZnTahoDWeURtrq3Gh5bt4tCNTsFfTp8pQ6fJAZI1NnKz+kb+/aBHdzMToNVH2sJqeO53garjqCkgtrvYZs3G4QzJxvuHFFKbzrd4zzyY26y95VO893/zzvb/eH24XRBfxsNhvl8u/+8vlLo0X0bp4S8=);lineShape=1;" parent="1" vertex="1">
                    <mxGeometry x="352.8562829917678" y="403.0617201474048" width="18.765561364171845" height="9.109681040971054" as="geometry"/>
                </mxCell>
                <mxCell id="27" value="" style="shape=stencil(rVjZbttADPwavxJ7c/c5Tf8jQJzGqGsHTtLj7zuqIVWk7QkK9E1ROF5yODxWm3z3+vzwst2k8Pp2On7d/tg9vj1v8qdNSrvD8/a0e8PTJt9v8t3T8bT9cjq+Hx7Pf788TJbT07fj9+kXfp5xQXKfQCn8Or/oWUr78+bz2X6/Oxj7kIy9JtFE7YOxb0VGvW0fJWRjX5uMfNs+iw5jX7oE8vtdYjH2uUsfxJ8swxKUhihxCBFX6xFiYowmlW4pjUVSICFXyc3mTBoJoSAEm4MyJ/2qPTKk1qElidcpbRc5k6a37UeaFbAEHEVJzoZKtQHEIS0SwJARbQ66FKLSGC50Cl0kQtLoPs0QXiZHDJBiT6idphk0BbWls/BwPQ/QtnVJq3QGgM4sTT1JZ8UT/Al9SCDS0zY7MAPGIpbrALBktT0lnwHyrIQF0EWJ+jRIdydATOQEsK72hJVabhVQ6f6ITlpAi1KjByQi8DokJh91JEFUsFh9Ilgbm9quo6lKJNrACcV2gZGlkqDr0ngXQKIxgKXkxIRpQVhCHjxLGHcMoJKLB0QCgJh84gJtNJBrTj6GxABVinqWCiuI5rv3WPr/LcBlplmfASA6LakEkmktfsmAWgs7IUp3eRiSSZ9pqPmLimNrQ0OIFycMVqJgvXpAIQMCJdqzD5p1MhTQUE8rkwYAwcWA7slcUoku00XC/wSgRN3g7VUGS1yTZFnCjGGdDxWX3ZDLdAGF+JxakftRCEDnLrReQUnQOnwMRelOCUC1tGLZqKS3avdTEUvoYEOu+UGdEhVfwwx0O1mi9TBJw1Zc5GsuttBu5R2x/xBAbn5NxN6qRBo5iLodLkkmbQZ7arEFVAKd09jkXdcog++V3ccA3hpxKWJOW1qh1sgBbvnGhSyTGOLShVY3PlbTAPjrRpnbwi2Xms00mkBkd6zmpyiuFDToMjf3FYAtrrjFuVbZlU6gGOYesQIo26XnG8zannjU/G2g8z23SEvePpAOgOpNniE2QeOFP5X6g1pz/JQP7P/1O8NH9nj4+1Hjabffn7+JrP/vP4Lg1fkDSr7/DQ==);lineShape=1;" parent="1" vertex="1">
                    <mxGeometry x="399.3956613933842" y="379.91753578392195" width="21.192596494209056" height="42.851366159400754" as="geometry"/>
                </mxCell>
                <mxCell id="28" value="" style="shape=stencil(lVfLctswDPwaXzEkQZDgOU3/IzNxak9dO+O4r78vVA1tE4q2zU2WsSIeiwW44Ye33dPrdpPC2+V8+rr9uX++7Db8aZPS/rjbnvcXe9rw44YfXk7n7Zfz6fvxef79+jRZTk/fTj+mL/yacdIo6YRK4ff8JjUq/PfN5xlw2B/vADlTiwOAhZqsA+x7jQdALpTACSmS1gEghSQBQKU2xlCUpIAYAqUwAGoiiesAcyCOJ9RILa8DiiVxzFIRkroOqEIlj1lqJOgEoeoKx7AOhYnHE1IgDgCQKLQBEKUneg0QywiIlLFLMrpUe57fty8UxpiZCiCGVUFG6kWKIKeVOwu6faAAMlSrr7JlFPijlo7R3lIMSKGZZOSpUAC81tJp3+0VFkwr8ZjPyJRRAMW3ZrTeQwDxFZtCBinV5FvTYkZqUdXX2EiUGgBkysUDUOPUsKhahTQymqoDZNyamYKLIXZmrXUaL+qQATOKyZXr5YRdSl3fblT6hxzFNOoXVSQu2rXn1pqKymzaIq7VEiBetRlTnH0A8ap9Ljp/GMSr3OX8JkVoIHzUPoar9FwTmiAn2qKZi9EUNEK7iuFVfRspiiGSjDXQRhEVLXg9akIMALaNOBY1xdtIoex4HbBms/Gy+CMqyKtJomOqNliI4EXbuIum1KLQEikA+xi84jHDCNJCte3MBrLKddGcQhkk1TyWsQxKCuRIjPx+UEXQnbZ/OQnWPlfet1evwEYjLI9htG/Qf1NHdbQzwUZylzvv7yZtBc1peur0Kxa8rUkn2RVgwx8sFwZwejENHRR09t1sGo802Na7NLpkTMxov4t9+7gCFC5UH769/AfAHm6XpZf94TDfte7/95crezVfzPjxDw==);lineShape=1;" parent="1" vertex="1">
                    <mxGeometry x="425.3888404632644" y="405.4134935386513" width="21.667923522220462" height="19.67513660813711" as="geometry"/>
                </mxCell>
                <mxCell id="29" value="" style="shape=stencil(lVbRchshDPyae9WAQAie0/Q/MhOn9tS1M47bJn9fXW+4WNjeTt/wmQWtVisxpYe37dPrZuLwdj4dv29+757P2yl9mZh3h+3mtDvbakqPU3p4OZ42307Hn4fn5ffr07xzXv04/ppPeF9wkSnJjOLwsXwJpPr3w9dl/353uNifEpXq9kch5fuAXKgGB2AmifcBJVDyN6RAGQBUqEQPaD3Im4AWiZsDWJAMSLfcI14BjSIIqSmxB0imnAFgPa8DSiQFN8QQKPi8aqBY4BWDEFqpIRKVJDlAVQoJAAolT6IlLESi5IWwOyEHI1189X3m4SailrFeLQ8BsK4Wsk9Tk14utwGRYvZpasRAa20knoQdkUGaDBC8EMpUgRAGGDiUTBFzYA+QQhk4Ys6SV04C5GA6qNdhbgzIEWs1rwChhgCpB7AClCpydRmrT5gyaGWzIfwNYrZFALMcex2sMSBDNGo+JC0U8A2DIao1GoGdaahW64bQo7nnZAUUrEPspXbhOEUWVdIrQAEcbgNA27DOKG0k3cANIuNUNIcoMFDmruuFRTMgzVfCFWuGiAPJ4NAAB4Q1Lc8gV8qAQeoTcN2fYYri2FdzgG3SJPDnpwwzejXeuJKC/ITe1S+fGSD+q5KIpY+7O3zV2yBGCuB8U3OwPuwtMo5OhrNZx2xaMaDJTK0M29HQ/N9H4b/32+LzBfqy2++XB+zl/+OL1T4tr930+Ac=);lineShape=1;" parent="1" vertex="1">
                    <mxGeometry x="466.6526361765691" y="409.63911555884226" width="19.614813151905082" height="7.61820553809514" as="geometry"/>
                </mxCell>
                <mxCell id="30" value="" style="shape=stencil(lVbLctswDPwaXTEEwBfOafofmYlTe+raGcd9/X3haqgYiIRpbxKFFYHdBciJH972T6+7idLb9XL+uvt5eL7uJ/40ER1O+93lcNWniR8nfng5X3ZfLufvp+f5/fXpFnl7+nb+cfvDrxknHRLeUJR+zytYoKe/K59nwPFwugP0DlgNgBpwAGgVMhtAzkABoBaQZgA1AfM2oDTAbAC6Z6rbgKyfxQAEQXoAIEg2JSlQaBvAFbBYgPIm2wDqIA4g0DAAIBB5gAQpIUOrPqVIaZXV1axKBqzSyHeJ50HCanwCsvl0GSVtxVvReoEUiKb5uHgc1t2otyTroga9hYSKVaCpKSKCENhm1HLMqACSB7RAMrUduxoqUKCBGhu7BagRc9g6ztidBm/rgPZBhgolSql6WiVBDXTIDNW2vyitUXN2z5K0GICQ3Q4CHNRAPDprmaopQQpowurH6m2LoP9ljMS7GjiaeZDYk8SB0Ak6ehVKoMJS3p3MOaAIoTpbEOSg3tX4aNyRL7h2qNG4YEjWdwWhByObtdttSrrCAUUleY2xQQ040nOvWlLrmIHr8QxkR/ai+np8HQNuOcvHOFifkDgO7hGvLgny13ko4uIx0LincQq/x0dNoweAy189GnhaLcz2/xhaQluE7LDjUGBtQRevFol6WDyfbVx91j2dPnQZLhbZ2sE5CBePrAP+9z74DwB9eL9+vhyOx/n2ev/dX1d1ab7q8uMf);lineShape=1;" parent="1" vertex="1">
                    <mxGeometry x="473.6606208976077" y="403.7772250836731" width="10.767729169905351" height="20.12417788007292" as="geometry"/>
                </mxCell>
                <mxCell id="31" value="" style="shape=stencil(lVfZbttADPwavRLLPbnPafofAeLURl07cJwef1+qhlSRsibImyxzxOU1nB3Sw9v+6XU3xPB2vZy/734dnq/7IX0ZYjyc9rvL4apPQ3oc0sPL+bL7djm/n55vv1+fRsvx6cf55/iF3zdcoBBGUAx/bi9aplL+vfl6sz8eTgt7psrGvnTqvG2fqFZjn9U+bNs3Ss3YJ/x9jpSKBQRKGQCEshiAxpTAiWKhkgyAEwSkTCEbQKXStu1zpuQcTEe8a18qNRvBXMS79lUj7jZiKiBDTYhtzfQDddteCgX7fS4kANADZRuw5jggQJ4OMBc5UwVd2puvmSa5dQDolO0clEIRFIHDanKqukBn6tRsEC1RTBAQrQfR6UOAQtk2niaugM7oiYqtXK8koDW0ci6GLrAQ0ii6I2kagAdJlNkDOqhc61TFAxIYt1YpRwto1EEMWqbuPGh/g95o0ZOkJhoeKVK2rKeJrihoLZwbUR3aCADFF06ntoNeUhIQB8iQV0VJxaZVS1mAB6me6kcAyJLMjbA4UgYAzXqwdVCfjAeI2acVFU7HJbjWCNQRk2nnrFqjoolbLQf1yWAhdp6IbjGiqDVEPLmOZIjqoDxneWlBhvcRgaR7FxUNRFvNqEAmU9XiWaBCrtSR6yuujGgrqtBwHnhiz60ZDasZ/YBnPgmYdcW8USJcQQrw6q1N7bWVVrFZyoKzxBOrLPRbAt2n4sTrN6YAWqOy34rcYdAqON2S4wrpO1Ufg6pSNKN64uhiKJQAC4yC0LZ3VhYAWVLF5ti4RGIQtErCYitd5zdbgGiD1pXBSAB1EgeoUPWp8BbXrTJN+X2A9qYtnO76ho5UvNAdiQddZtKk8RYKC60gXhGZAtB1RiMs3l7AwNXVAuJpPu43txehGnEGpBS9HNOUortMmAhotm+wyIHYlaxCvvjs9fNje334f9d9ORyPt6vy8n9/N9ZXt3t1evwL);lineShape=1;" parent="1" vertex="1">
                    <mxGeometry x="506.4803306071267" y="404.30906032747805" width="20.9510815461756" height="30.042948324102554" as="geometry"/>
                </mxCell>
                <mxCell id="32" value="" style="shape=stencil(lVbLctswDPwaXTEEwRfOafofmYlTa+raGcdtk78vVA1VA5LQ9qYHlsQSuyAGeng7Pr0ehhjebtfL18PP8fl2HOjTEON4Ph6u402eBnoc6OHlcj18uV6+n5/n99enKXJ6+nb5Ma3wPuM4QwgTKoaP+UtskOvvL59nwGk83wFqBc4KkAgy7wMyQ4oKUBC47QNShMAKUBmikxIWKKQA3ICLA4hQmgJgCP0cNhENKuodJKXokAbUnLn0FTbjI5CuAkeozvoBsmbcaqe0E2+q3CKgk0+AWnUJiltkyVaLoqLLN9v4IrJySiwaSjo+9wy3K0wbACIHUPvvBfCXiskR6SMt3EltAwiiBtQEmBxA6ka880FyRCGAUnSVxd3eDnJKegcOkDzSuNJ18p1WoemUxJqecTBBMDswNOdYUaS9sqZnhQJRS48rVEcZBEiWMjpWCMC6e7VFvHvWNFamvsJOPBlVNCAnHruxlngRosN3JSLRdXBK3ABNfAFyNCTxeRXvqbrZCycjZGeDVID1iVKG5DCWBAwFlDvQo7w05+XShOzdHtlqKEBzKEszN+3Rv50m19r1g2MBJqs5hOB4TIYEaoZv87q1NFNTMrcA0hOa8YA7g4jDq8k/9sa00yRWFyDm3pn2tii6xMjuDSgcDEA6h1uE2nvzAihdJntV+L9R7R8A8vBnMnwZT6d5sLz/bydJ+TRPofT4Cw==);lineShape=1;" parent="1" vertex="1">
                    <mxGeometry x="527.2221958240602" y="427.0317921256859" width="19.556468224572427" height="13.956954669957781" as="geometry"/>
                </mxCell>
                <mxCell id="33" value="" style="shape=stencil(lVbRchsxCPyae2UkkIT0nKb/kZk49U1dO+O4bfL3xb2ReyLXzeRNPrMClgU0yd3L/uF5N3F4uZxP33e/58fLfpIvE/N83O/O88VOk9xPcvd0Ou++nU8/j4/L7+eHq+X19OP063rD64KTRK1cURzeli+ZKv/98HWxP8zHlX1q1GSwZyGt/weURiUOgFSIgQdtpG2M6OZzE9AqhTGFKlRASM3uG0OqShwgoIwhtUAVeVBKPAISCUi6CUkaAUoReLCIq46ARjEBQKQ85hBDoACy1kwxexeIVys1j9qw0iBeS6LkPGRSQFOJJGEEMOUIAIHiGFKtVBv0EMaQaibOACC+gYzppgBQKY8AU7wAWtWkM5ZalRR4qKF35AogoA4mpjjKVa2nkFy5l2mVQwUsmZqDazmmglsus69DA4VbqfmGMLkWODeSE5N0AW8DUm/6G6CQAPVZAHXM2nyirG1wqesguwJ0tRWW342BhqZrpBh8SBV1UN5IuoCQCvc5tKL1I0D+DCCJV5/1FJqutuTULblMAqQRtSunA4T7VtoGeJJi7ktp0z74/RCtHUBLv9N2tMEG73fxK2wF9tsnQz5TH3A3dojRrvLzK1IBs8KokDH4QBnIIRbS4OzRXjP3TqBmD7g3MlyxbL6CeLj5JWULAdBj0srJ0akg/s8+2T62t8O/9+HTfDgsz8v1//49aZ+Wt6jc/wE=);lineShape=1;" parent="1" vertex="1">
                    <mxGeometry x="532.9538861687997" y="426.3620155169431" width="11.109172127640704" height="19.517939168321277" as="geometry"/>
                </mxCell>
                <mxCell id="34" value="" style="shape=stencil(lVbLbhsxDPyavRIUKYnSOU3/I0Cc2qhrB47TNn8fbRdrr7j2FLnJMmf5Go446MPb9ul1Mwi/nU/Hn5s/u+fzdtBvg8jusN2cdud2GvRx0IeX42nz43R8PzxPv1+fRsvx9Ov4e/zC3wmnQpZGlPDHdCMU47+L75P9fndY2MdKXDv7kEnDfUCqFGLvIFO1+4BcSEsH0EIVeLBM1ntIgRLfB5RM2TpANpJyH1AzsXaAEinqfUBgJuYOUY04AxeVknpATQBglKUHFDJQ19pC7jvdfEYBACbNHlBASCWR9Z1b1OE2IlCoKxegTNaqaKskQEymVKIvUwEhWZgDWDaiQoCKBwTkQUhc0pkEsMkiZde5RBFVqVBwVYpUADdKG/oVIIGQSksxeEBEIxQoswcYmOprioukBQGabrAHVMTvRjXxfTA8o2tqZAQoFF2VCiWctB/qCqnRylrYAwzod2ucqgdU0LhGjbwa0Qo8NPKtZSMj/W5EWHlg5EFIzZcV6fc4oitxjVgEvgYYH5B+RJsYMiBfMj/T7ROoD3HVuCSzz5sAvVDt8o5WqHxSfEjthkFIofinPRgZSJr9C6RwQFdvqFIACTOlfnYaTYBuh3kLuQQ/bwW360/izSFHvcYz1NPA88t6tQ+o9NGvbfihba1a24OZbLVzQsQkiDt5bs0iX6CM0rZC8eUE+WrwIx8g07661v7fvh2uO/TLbr+fVvDl/37nblfTvq6Pnw==);lineShape=1;" parent="1" vertex="1">
                    <mxGeometry x="169.52541698482378" y="460.5345544825228" width="8.883275739120336" height="46.08139666279965" as="geometry"/>
                </mxCell>
                <mxCell id="35" value="" style="shape=stencil(lVfLbhsxDPwaXwlJlETpnLb/ESBOYzSNAyd9/X1nYWhrce0pclt7OcvXcETt9O7t6f51v0vh7f10/Lb/dXh4f9rpp11Kh5en/enwjqedft7p3ePxtP96Ov54eTj/fr1fLJen78efyxd+n3EqIS2gFP6c/0h9/PPlbP98eLmwDxLCbB+lBWbfymRfJOTb5jFLssl+dXjVPsG+z/FILrfttYjO3zcJ8bZ9NtG5PlElk4BKl+QKFKSSglqQPlcoNal6G9CSL5GaVLsN6PBQJwCyCpUA8No1rYqxroUNLWodaV130UV17oNJZEkUsdlDK1I7KVMXaxOgJymk1U0HM1eASWadU9HZw0UdriKqjkatLhAlcVGylDnr3qQxvqq0udcoXCNl0ijR1dXGJ65PHDo3e2hVlJADdPYeskQSEkYyz/RrkU7EAphDskbZt4Q0t9qqZFJWJJ0dXSE8jZd15oalwcfrAPW6AUBgACjZBpCY9Nl4vQLgk3RaQTVXpULFUrv06IdaCb1zEHUhddo4AOLsAWrI1BUhJQcoQ9xuVck29O5sgNb5WgFNEmErOt2SB1QWUhQrGw/sUEQRwyYHUiXMgxsgjGhnImBSuu8DE1cAnFai042phvnFAVxKPIfu2Jpp0hqkbOeBlFXXFC8njnnIUjeAyDzUoXMXgMa49FFAxkHu9p8mhchMKVIcNQJtnEH55pCWhYUkDXHX6ENqpKxtq95YsQhbcbI79S5G6b2cBnOVch90vH6wYzuZPeRIz+my2XNBFiMyk9PYdi7XRLIwQTVc0tj1CwFgkXf0jtARAohxHIErIFPyYXV2M41tXUmV8D23fWPfZ5srAG51wH2jcw/JeTC+6m5WuGU3INSIaRBh7XSgZxzK6joN4YmsrMFrKwCd5ND8fQBHkhIH5omxLCuEGFVi8vEYsc9+ZwV32bTpuHFeVJRp2EfvuP+3x8O/C/Xj4fn5fB+/fO8v4PjrfHnXz38B);lineShape=1;" parent="1" vertex="1">
                    <mxGeometry x="165.81808437395307" y="455.3754601824353" width="32.998744001748264" height="25.812849652348177" as="geometry"/>
                </mxCell>
                <mxCell id="36" value="" style="shape=stencil(lVbbchMxDP2afT0j+a7nUv6jM03JDiHppAHav8fL4lBrY0HfHEfHq9s50uTvXvYPz7vJ0cvlfPq6+zk/XvaT/zQ5Nx/3u/N8qafJ30/+7ul03n05n74fH9ffzw+L5XL6dvqxvPC64iSD0oJy9LbesMDH3zefV8BhPr4DFEaIHcB7SBkDMsG7DhAimMeAWFBCB4gJ7MaAkFBKB0gJkcYA75B6l3JB8EYM2iOxkxQh0ieVCGR4FMBefyCmsb1DUA4VkIztuWX8ah+RjYAJru8Kcf+w/xNdsy+CYMRbe6L3v9QSG/as/SkenK38pL5JC0GsFoLPfUPU/BvvJ7io7Z1BglqdrP0hw16QVLyMYvjDhKICDgjGB5gbQ66A3EgxBKiWIJP3FUA9yaR2udGjAlEcSO1mkNOgerpAjB5KmvSVY5Z9QN6Qvhj+OEjW/iSTk6oCNd5kcib0Kice2SgAbfJPiCaHWfVcBpvvi+qgYGqQAyvO1wwY79foNpwUY2581H6r6olaCW83BEN6koXSpuftMeBbQa+zssAZKUpR60R1MhuDJictjJzhjaCF26C7AuCNplt0v++iKt1GyAvHSdlbg6/OoSDK3gXDvs56Uv5bJaj7jWKlMyf9oiFqW2lSf9tedIkTgiGji+aoSYBiyS5tRmsVVrPCgqwAvinZCEC9sHA0lb3miNV6k9sGNirCx5bM/wDUw9+d9mk+HNaV+P3/egeuV+v+7O9/AQ==);lineShape=1;" parent="1" vertex="1">
                    <mxGeometry x="184.4320712680285" y="493.873140020288" width="29.88744774634165" height="16.72656067310595" as="geometry"/>
                </mxCell>
                <mxCell id="37" value="" style="shape=stencil(lVbLbttADPwaXYld7ot7TtP/CBCnNurageO2yd+XgiBHpKwJepNljvgYDskhPbztn153A4e36+X8c/f38HzdD+nbwHw47XeXw1WfhvQ4pIeX82X343L+fXqefr8+jZbj06/zn/EL7xOOI7U0ojh8TG/S/OL7ZH88nBb2KVHpxj5WinEbkBNVNgCu1HgbUJgk2ogaxbYNqJFqM4DciEEOLXhAUQ8gJAnULaAKrFLXFG0OonUDHrpQFwuoxAAQQ6AQLKJTQi461WoAnakA5nqjbqnuhXIGgELRJqGfEBRSnItyA3TKARDRKFkPizrcRyTi6F0U0E1NI7CCUG5iAYBKufoySQeATMWVKVEAZVJAsGVSqgWFlL2E5NaQWzmIa79EHTS4KsKHFEkwD2KbST9RkAehIB7AgDjt5th8SAG3a3M5MDXkQShZpqUQVyg5z4N8BehOEHHurq2QqtNoxqKu82hcaBTN774ax5+zaou45tpbswIeJM+CXAAEN59bKRoSWilNx0a2ALyD/htQV9NY5wga+FmnsQVUHbdA0zl4gC6tijY1UygGoGsxgbk0bv7V4k2AuJjnvxerXYCAmNjdDrdReNc+kFi9RaYKaqQkuO/jGbNeoXCDKgM2Xb18gDajn3h5Xo/3+aJm6WLKwLyucoVH0kqUgRKoTIz+WMBrdiSyOHtG9tpZwdl3dO50atlVB11s41lr7fFZ+/UZrA+fN/TL4XicTvDl//7m1lfTvZ4e/wE=);lineShape=1;" parent="1" vertex="1">
                    <mxGeometry x="194.51664577933298" y="491.90879978181533" width="17.342930633146125" height="22.844076687303414" as="geometry"/>
                </mxCell>
                <mxCell id="38" value="" style="shape=stencil(lVbLjtswDPwaXwlJlETpvN3+xwKbbYymySKbvv6+FFy7oWKPUSAHWeGIr+FIAz99HF/eD0NwH7fr5evh5/h6Ow78aQhhPB8P1/Gmq4GfB356u1wPX66X7+fX6fv9pVm21bfLj3bCrwnnI9XaUMH9/rtD7Ut/nyf703i+s2d+sE8U0jYgVWI2APaUeRsgiaI3gBgouW1A9VSKASSm5AEgETsLEPIgpCpUswHkQBIBoFKyIeVKkrcB3jlyNiYRitiFtzEVbWWBSXgxAC1cRnWNFGwjaqZUAcBRDhZQKQJulEySekABZSpMrvMgJCAk0fM6AMOQWtVt54pQQB4yhWgbV6kKBtikJcAJegwpa6fRBGnSduRSIQHUaGW1OaS42zjLpRSId6jBPaAAnWnk6wCJ8g69uyqpTxRS7echCzGQjbUZjZCujzJQVMp2hMZyo+gRSAVUfK0H3fGgc00srWzUApWplJ4bd3VYR8T5Brl3AZJYB4AktFG50z6BV0TyvZTpFDrgIeSZzgv9MiyT9LdcXGZq1X6Z4MVe2QrIF6ha6rHyHWTsiW3XWG8sMG+O2FZUM8L23ShohBHE42YRXVgk5IBK+p4SPszSv1EfsfZKCHB8JLF84PmG3+ius1Lh5zfK+pDNSjWba7XQ5a/aKb096u1/vtn27XXx74H4Np5O0/vy/v/+Qalb02OUn/8A);lineShape=1;" parent="1" vertex="1">
                    <mxGeometry x="229.79653997599803" y="481.6082285081093" width="17.956625730107817" height="9.000010575673514" as="geometry"/>
                </mxCell>
                <mxCell id="39" value="" style="shape=stencil(hVbRchshDPyae91BCAQ8p+l/ZCZO7alrZxy3Tf6+ul5JLXyW386YRay0KzHxw9v26XUzxfB2Ph2/b37vns/bib9MMe4O281pd9aviR8nfng5njbfTsefh+fl9+vTvHP++nH8NZ/wvuCoodGMiuHj3woC/134uuzf7w4X+1NAFrs/oKXbAEkI1QA0Qgy3AbWCgwFwQnau1BhsKXBDzQ6ggCyHVNC8CA3JAvJdQLMAqagO6VYhlkPRmOQAMnI2AM2beKQJZCPMRziFqxklWUADiwMICDQCipOlonWNFiDIzdGS1nW4UkAsDkCQis0SIflqLTatxfeDAqqNIAEU3StVSzr5ai0BbA2UqDtkHZBBzfoh3yvcQJojxAPI6AdmJKdwKr5BS1z6yjpAetY/SSe06hqoWtI5ITlppaBytX1Gcu8Lt0wdLWvNtHsnGVnPnvLSFFEGB3G3+XohSvfLJ6D20qwDCM2q7yIP62oSxDqGCE5nmgFXd/IAWfvQYNLUh9IqQNU59G/1iDchiCCWQ9bu6gAqyKovS6/MOoVRrTm64otj807S5bu6P4x9T8cwO33vStrqz+jIIlzNaFW2c772RFsxqu48jFeqi66u8zgYSm9pN8o12IZB3u0j2B4f3DlFMsrBt8z8phroujPk/htMP/4/4F52+/3y/rv8f3zw6dLyWOTHPw==);lineShape=1;" parent="1" vertex="1">
                    <mxGeometry x="232.92988533349103" y="488.71983319915876" width="13.102737556457669" height="6.881250208768279" as="geometry"/>
                </mxCell>
                <mxCell id="40" value="" style="shape=stencil(rVfZbttADPwavRK75J7PafofAeLURl07cJwef1+qglSRtiYo0DdZ5iyv4XA1yMPb/ul1N3B4u17OX3c/Ds/X/SCfBubDab+7HK76NMjjIA8v58vuy+X8fnqefr8+jZbj07fz9/GEnxMuUAgjiMOv6UWLlMufN58n++PhtLKPlKx96cRh274SF2OfGsUMzq+UsgFwn13eBUgkbgYQhaJsA1KlnCyASt+2HxO09kvN7tq3SrXb85ly2wb0QikagDD0EMNN13KCiN6IbVVbow7arDFVW9XO1CsACHW2gEICGt36fN4CaFSBh5ZJbB96hzm0QDl6QAWdrsWXVUMSRG4mdjlkKoB7yqUafVkDSLo0Km4+K3VAJvUQbJWa4KSjT7pqWUHjavJJa90aAjTKzkOiBqqkETu2KiCApJXMQTygonlgEvE5lAgA2TdOqwQBlVrwfUA6plRLN53OaOJUKd08YCHTHIIjn44UA0AkcSKghQYeWrkRgYXw9wFM0Ya00rb7ZNKsxcfUEwAIiZVjFaaCAMHLsWqboKFuN63uJHioqy2Talv8nwAdalfXUj/MwXrQNckopIU6q6WVAJmyttqSibHep0DF6kxSqQIe9CbQrGzkDGWDM3VLDa1bBvzmdLNGde0BfrPMI7wAClQB1o1i6a3aVlAOYd5QC1sDFCa9YHUHYFilqFSzVzidh4A8sK/SOEBgQXRPpdEB4t58Q11lEEEGab4PrkpUQTzsE9YeoAWnpzn7Mm/tDXu3rZpGCIj9r3f0j+314e8HwcvheJy+J9b/+w8IfTV9fMjjbw==);lineShape=1;" parent="1" vertex="1">
                    <mxGeometry x="279.18818261497586" y="461.45370702343064" width="18.2447627057893" height="20.966228950236314" as="geometry"/>
                </mxCell>
                <mxCell id="41" value="" style="shape=stencil(lVbZctswDPwavWJI8AKf0/Q/MhOn1tS1M457/X2haugGsLXTvOnYlQhgd8kpPbztn153E4e3y/n0dfdzfr7sp/RpYp6P+915vujVlB6n9PByOu++nE/fj8/r/evTglyuvp1+LF/4tfJ6oZwWFoff6xOu1MvfJ59XwmE+viO0RlUMISeKsk0ojXowhMpUwjYhBwrZEFonTtuE2Kh1Q+iNBPwh5rHiK6GPqu4TAqXsCdK2CZVqsXihBEpIVKLFF+IMFjTeXvGBOm/jtaW2Q1JIIsLHavGBckXryc2OTHUF1pNIbH9ahCNuFOzAqvYTrF8HJrahVWWNJpz9xGqjhAhC0ba0dtgi7VFwPUoUQA3M1O0fFu8Ba2pXm1WF8PDeFoFt0SLEiBCp2Bq61gDmrF0SK6ReSZCXb/JInQadEKmyIcSgagdFaDbceDmAJWWvbS0hoxJIXLjw+MKG11y2SBtd3vKyzVOdMvJO8PmrMkL18sj/Kx7ndaFuJ6ZGiEATH8WzatIOoGjBwGm5+nhPDU5MsyG6TVADEIxA0rDJlUAFhIWmrdOQ5lMHeN0zPR7ZTNO/FI8HI1tc6/ECTKa7kdOoShqsX/dfdoeEEfj38ULNaW5s6ffx3R9CNAYi8mS4cc2S+PgXzRFkpOVWDeI0odGEhqAbjC1au1SArj98VvsPgl78Oxq+zIfDerJ8/94fJfXRegxNj38A);lineShape=1;" parent="1" vertex="1">
                    <mxGeometry x="301.1332453059456" y="467.07676436521115" width="20.004243298349593" height="14.380992995712177" as="geometry"/>
                </mxCell>
                <mxCell id="42" value="" style="shape=stencil(lVbLbttADPwaXYl9ktxzmv5HgDi1UNcOHKdt/j5UBanmWp6iN5nmLB8z5O6QH972T6+7IYW3y/n0ffdrfL7sh/xlSGk87nfn8WJfQ34c8sPL6bz7dj69H5/n369Pk+f09eP0czrh94xLTFomVAofsyWT8B/D19n/MB6v/Eukxs4/VmK9D+BKNfgAQlzvA5pQ8BlJpZABoFFJHtBIGgQ0dQAti2UboEvGC6AFCqgGK7p5QKGCIkSK0QOENNwH6Nr1FdCI5T7AeqLcAxSkJIVSF0GpAB649UxbGwroEnPPtLUhAfGxpeR5UKYMumSAnD3AGo0A3EcQpojkbU30ESRRQDwUYi8NOyIhpgNlL28WSJz1JHYApZSg+DriJFCKUN7qa5BMXOAAaTeiShFoKQYbMJ+TZkooRFuUsAJMrqgIXpbEqr68DOE2IJF4qtu6PLeJEKo3I4eIMHGqr+GqD9tq4kVsVyEC2H3GbJO+iAoAJrbgqZv6gIZ0EwAmIis1v/uqwJSizZwH2JWCNlOl6HkwC1rfidgTbZYCeAukvqeWYYb+nbbtDm1ASObf3bmWD6Ag3uxVuPRSP80Mu3N7oVMBbGk/NbZtwOlWWvbNDIth2982du780cRMf/fnF3C+VdddtJEEaec/H1T/9rePv6+3l/FwmB9/1//3rz0zzS/F/PgJ);lineShape=1;" parent="1" vertex="1">
                    <mxGeometry x="301.6989060983167" y="467.8871138195086" width="13.132204860815364" height="14.667257074790541" as="geometry"/>
                </mxCell>
                <mxCell id="43" value="" style="shape=stencil(lVfLbhsxDPyavRKinuQ5Tf8jQJzaqGsHjtsmf18uFuuasjVBbus1Z0VyhiNpSg9v26fXzRTD2/l0/Ln5u3s+b6f0bYpxd9huTruzPU3pcUoPL8fT5sfp+PvwvPx+fZoj56dfxz/zF94XXCLRGRTDx/IiEC8vvi/h+93hKpwzheDilRqP4yMTs4u3L0gGAKXgE7JP5DoGpEbVrxCFmowBuVISB0j2Jo0BJZNGB8iJGKRUIxVfQxaKEQCUanWAEikAQCuUsgdkKqAGCRQ9b6VSRYC6NvECaKRlDNDaM10DCahBG+UOEGGXVKj4LtUCi1al7IlrgXKAAPUpNZMGkPcMaA4gkSrqkvZqFVMr0JIVLcUP3GUER21tPiV7I6iGSqUbaSVBK5RV/VcAWMONyVhKFbiMRpLkAQnXYOMifVsLsBllan4FIy6jFXgV85U0QoMppRvxMfAlK5F9l0zeCa2QKXlp2AAxmofS28w8oojpStqlxHjipLeZmikiHpTYq7UK9KVZaj6lZisA8XEI/ZZlZgi1of0EmRnCNlkR3o1n8pG+5WaC6qrHIRHdCrqSP6TaF33VhyGCv4SwrnRDp3gTakqxa6zZIVC4UZs92VKoAerqjVsKQ8c3PTffJxvrjA4DqXd8G+sKdq1c+uOGjQSDGuw0UvwKtvNm0CU77wTPXAnrPnYfEFbnupxPrNEgJY6kXq9J1gPI/RWoeRoSw62de59JAToZU/KsxYvx3I0P1LwXxwItINx8P8JzgDXU94dl1dUovpvODBkLvcEwr745iM8+n/ZJOurpynB75l6guDmxb+aFjfv67y8A2IW+eIH5NNwe/t+VXnb7/XLVuv6/v1vZq+Velh7/AQ==);lineShape=1;" parent="1" vertex="1">
                    <mxGeometry x="270.0606889418525" y="489.8627984845102" width="52.390424255426296" height="11.060492978301227" as="geometry"/>
                </mxCell>
                <mxCell id="44" value="" style="shape=stencil(rVfbbtswDP0avxKSSN2eu+4/CjRdgmVJkaa7/P3oefIs2j7DgL05Nk/IQx5S1MAPb8en18MQ3Nv9dv18+HZ6vh8H/jCEcLocD7fTXZ8Gfhz44eV6O3y6Xd8vz9Pv16fRcnz6cv06/sP3CecruTyigvsxvSmRvPx683ECnE+XJcBRDR0gF5K8D3DkXGefAoWC7KW3l0DFw4CMg6AMACAIxR6gf5FBRCLEqQOofdq3T4V8MPa/Q9y0L5lq7AMSmNKaKPYADlQZ5WiVpMjkKnBRKfUuNMoESNRCriddAzlQhiqUDSBSRqxdi3gGqPIAhyKUfA+oVABAlVzyCgA4ZCaJNqQAOKg0qljSEgBAc2JIe4rIg4p1VTiPPEgT8wwIFMEESIlqsRMgoLS6VtcZIFSAh6yk+yxlHFLxxMaDpwRIa07M2FMPAclbP0fLAQKSrUPOsNKqnGrqoJVGgGqlUVJjtefBVFpbKqIhEKka8QlMq2ozm37Ircu365BaBy86LoJZXFZaWsy2PTH5Xq51bsI9ubIZG6mdGHsNkUxeA/SgLZe4r1yhhAHSz0qdbS7+X4AZTDFSQYdcIOnTKg6eKDFT6UPSc5rBoSUrD8zkgQd2VHr1ibYc4MCeal/ppB5ASFzbuTw3tWvq2ubgSXoPOmcY1EFJp9WcKShL3Jad5ZwBU0A92HnvIGnlYNUaoFo1S7kvnIoPaYkzsVHr3FLbALFL4rhDoZA8ebPmlsZqe0nM7YRaAkBax62yWoAD0gjebidKugDAv6/qfwfow5+bwcvpfJ4uFsvv9iahr6ZbCD/+BA==);lineShape=1;" parent="1" vertex="1">
                    <mxGeometry x="282.28659360715847" y="509.57533743442195" width="16.10140481852386" height="20.119739279116175" as="geometry"/>
                </mxCell>
                <mxCell id="45" value="" style="shape=stencil(rVrLbiQ3DPyauQqiHpR03mz+Y4H1xoM49sLrvP4+FCbqaZW6axAgN3umOC2JZLFI9SV++vH85fvTJfgfH+9vvz79ef368XyJP11CuL4+P71fP+yvS/x8iZ++vb0//fL+9vvr19v/3790ZP/rt7c/+i/8dbMTcSl2q+D/vn2Sxgc/3/Av19c9PjmpgM+B4NVVBbzWc3wQFwTwTQnefj9P+OwCwcfotAE+l3N8Cs5XwNd2js+2/nk96oI/x6t3xQOenac2pwXwhey3FFcr4BtZT00YD0rPv7bhzh2e+LdFV8KEL86TeGvqRBFP1tMKrqc4If5qzeU53iqNf8O3eT3i6YLE2/ezhyXQkLBHaJoN8iMDD2tqTjIxqC7Mh2RZVtkTiouz16I45W4L85Jic4HkWctjxVveF1eYQXJ+ToRsz2RLis7Pma+culoYK95CKYzkPjYQlyH2mouJGgC5WPo1ZmBsMWen5R8NV+/SHEv9GPgTZI5W84wSP9gC8uw4C5ZCjrVWF8HAQoMZbIx4T7ktp44t4gid3SMo63mX27ImQmNFncImOG+UpY7YMSVCTLrx4mag46SPDZbo654je8gLtZoBo7LskbstCZV4LmXXBA0i2XSyPUQ0YCkXy+CtnQHj+2g5vxgwcu1ElxcD8oRg3FvQIJEM6hJmMSgkljpZQ7TmEV3HBgv1mUHiKiwtocFkjxWcBk9QSn1SRv3Y5QNznNXAsiRQY8ozYUXpKUr8YGU5NTT4N35PSvuQXnvWIAZt4VZeH3Rk127LlSXosh4Tt+T38xIWW7Afp6eLUH10ZNNx7mBpMJ5N5PcD0raxJiuHASmyV3QS1oIqJmcaER57haSDn07wYV5PrFT0+FGKd6oqE/8uStIixJN4M/x8/vfu6gQPGWNZWig+QGFOVPx7lJ3C/etdnOPBulVWlT0mcB1K+sy92OqwbPHYSRlLk2BeGtnohJE6coOnqR5QRHleY4Yf73AhB7kt9Q73hGojqicOT+Pb3WLIVo11Km6VuClh92QHSc49IWfyEDM49GY0CBJqskCL3KYs7nDGBxHlVaBdXBwhcoez8hbRTeFBRCqQE+0bluZqi+gzqgdqoswhg4fucJ4ey68zXg0449nahxN4xgBmI6qAUooPGCJ2eLw3ishiW8N3FpEF4EyxpBGvd7jSeF+yiXFkQn0gI+bOmADK33Dz/wG3c5/jPQ91dJZNc65uqv8sm+at1uG3s4gEFhMu8DG3JdIOQrDNMjnODmdpmrqSoPgMbCB0JiCjUu+VEAkFQXLqSotJe1fn8zElJ9RdoIxNKSaahRANpkQj5WI4f33QSDuFqWkYc+aTTgAquCl1IeevC17HOO54/LF0MkLHvhX91XtowjvWqEGvp1TgyDoXU0o9lk8NmvQ8Pjk2iActNBPTXTtHNIjsCTr63/3cgDfpuKREvdzL4DI9ZEPZrjMzGtDCu6g1M2AKqV93wCmF4fuzcQwO3kzHsFQzrhA0YAPNg5FSoG10H1qFxYDVvYUeuwFTqXmJVr7pvInk/ZyYbDorMl6LNENVxgJ2wccm0VoGI+4MWMk0ikvL6JoVnaIHQyslp2Sk2OAJhRb9GpdJXaHXdTUPWbufcpE91LKQQBlTnbPxO45Ys0ts0xVvvHrGkdCozYV5D/YJK279CgGqyYPrKI85XRq/5VsmdX0ez26XlozTRD1tZwKXFJYhLIEsXeAJqdD5fluoMjZ+dZoXA6GioV8wQD+ZaP/ZR7YgyCsdE5sBbLpXPW6A7Xmghb1PSIE1XGRbsLKP979s9t4LoAc8GznW5b6+0hFiv3/H9TChWgq+X1HpiLW/PwAz3DEUPcZ7VJKV0kt//2E+n0I1SVpmuPxarL+/EQDPrm+6XsD3JRh59Q40AJ6NMUQxQJWef7+VwKEjmzeZ7oTpF3+fxPCCeNa4mBCGGqjUv4YH7ZLp+yGyzNAzpfaOx7aalWTDw8Qh08ar4+G1AX7t5DHe+IhbljvSB5rcH7wfxQZbgvny4P0rwRl94vH5X98He4i3P+4vn327vrzc3l3bf48vq9lHtxfd4ud/AA==);lineShape=1;" parent="1" vertex="1">
                    <mxGeometry x="886.2138681372692" y="189.8736663086794" width="169.54978156458037" height="162.6234466019" as="geometry"/>
                </mxCell>
                <mxCell id="46" value="" style="shape=stencil(lVjLbhsxDPwaXwmJEvU4p+1/BIjTGE3jwElff1+qhrZLrj1Gbs6Gs1qKw+FIu3T39nT/ut9xeHs/Hb/tfx0e3p926dOO+fDytD8d3vXXLn3epbvH42n/9XT88fJw/vv1fkSOX9+PP8cbfp9xgRIPEIc/5weciNu/J1/O8c+Hl1U8U4wmPlaSeD0+Ewcbz1RAfKHcTHwjSdfDO0UbnqmDcF1cik2XGMXr59j4QIXB7gRq7OJDAPFCKbt4kevxSV/nykW1gvhMWUx8oYDiG1WbbwwQkHV9+0ExYz4Un3Hs1AsA9MmXJWWcg+gnWcolppYBQEhsDqlTAz0gzZM6V0qgzEVpkQxA8iTKZUCibJMuTBmtIHMTJ6Bi5pVGya5Qy5SCiwB9X7Y5tAg/qWprdQsQYlC4mim4FRpeoVCxSfdIEa3QqPUNAPTbSNHuUlPFAVxq2xxw0k0Vpto69NmDlwHNS1hNJGCFHqbELVyqsIF0T4oD6JRAAN7QO1EHDdR1l6wsaQMJBnRbOBWeAGSmCzVbuFSog0r3QtVOEtXajJKuFG3SvLDrGkBsDlypIkDbrFBnS10DlOYBGbC1dy9kmgOjbd2KcSfBK7iOSxH6ixgW3VoQ6kjwEt1uUxI41EcS7pu0IfAKyX1Sw9xQJjiAvgLxW7ddPKBg9tW4WQFVTqnDPoeEki7U3CfpEyBMCijs6xDARFGAWOnTSt8A+MkesZJVzyWlK1Sy6oecNkQEI0gB3e6StlzCPSphA0BJdz9RFAB1plPuPukb9HamVaWvoEr3qe4rhwXlWwGu0vkWoLoWLbjjPgxovoFyukUNt0tZGwjJzIatavoyqrR48uncLahwOkZt0jrZoVTyxmxkzNbguaSOqIB+UHcSrL2/4eHU/zizMewHsmTip6Jug4BtbcnPrFEZtAJ71RhNizxcmFN2ASwj5rIPrR6wGnvXvLHfJpUN0KNqCkPz21TBgKjRHwi0+OgsXbo/Gw8viwDLFy+AAJWsZK8zg65oBd50EC619DnSlh7tc05eBlQ/qCVCu649X2ypM6arvs87pgrVOG8ONToV0czKQtVNFIGuT722Szp26O+HtbA6EwXaGR0H0YprjNAb60hz/r5B1RgZOqmE11Cs3A8u/sZFkbPeaj1A0SL7A03D5srXeOwPyLdOu7kqADqGLv9d4hu8M0lzbCwUYnhlEue11spXIa2IXipuHK6WY/zK86CbAC0v+3gG+xn8LGd8D7CZm4z3M/gTBjfoRsIm3wr5EPyBe/ATqNDmEDb4/6F4gWM/zO5Y4jPsxzCrubqmRnz46LX27Xj98f8O/fHw/Hy+gl//39+566PzfX36/Bc=);lineShape=1;" parent="1" vertex="1">
                    <mxGeometry x="887.239436878365" y="267.7663745282771" width="161.54713614463844" height="44.68766122824093" as="geometry"/>
                </mxCell>
                <mxCell id="47" value="" style="shape=stencil(7VtJct02FDyNtijMw9px7uEqy5EqiuSS5Qy3TyMqUESDbMY7L7ST/keTeFO/Afg34cO3u09fb2+8/fby/PT77V/3n1/ubsIvN97fP97dPt+/4K+b8PEmfPjy9Hz72/PT98fPr/9//dRX9r/+ePqzP+HvV5wvJoeO8vaf10+CyfW/D359Xf9w/7hfn0wq0/pqrBfrg4l5Wu+8cQrgjI0zIJsoAK4alyYAHuGLACRj5y35bFITAGdKm3XkTbDngGqKm9dDy+58fTLVT+ujN1U8P5gy2ywW44QAfrx9rE/W+KTWh1mjyWsjGxd4fQxCoaZmXl+iWp+W9U25xJBuvz6fr7emRV5fhQdZk5fnZ7F/a0Lj9V7YC9ax83poTD6fHBrrg9AP1tPzrSlSP3bxHydIAt/Oz49tsMyZvJnXO7F+097O/5vYTzRhtm/Mxgv94GmzfWOQ+wGlBQr4KjfkirHzG0Icn5yxYptDDCSjXAKUFusMiNLngjWJAFaSVggmzTKAiZOQIWBLid+gaCUkUwoLLWUIpllWq1dE6gbvbJa2I78dq7WxWuF6VgE2Zt5iB3pThksL+TZjVTBAxHlLOehskFmtGQErwh9CU75JZTDOmR2cY6G9EBqukckOcG8V0QuFxWiS8FZEMHEkHhGEt0YkZSqM8qDxY0BhtXY1COfrJLrEdBO+1FnaMiCJAEIaIOLuAaS25Nj5Lso7AHhLIE+hpV5JLG9Q9SAAYSEBZYe3XLynSiU0kj1tqcn02auJxoCm6ruw0L2VVNkBc0UIplIx3bfkGHAhdKE3eBkPvaQrDJBv2GqWPbcKEoB7U6uANK0CCByRZ+brUgmqxPMqFT7NVBXTcbDQRpWa7jvNzHYoQcZDdCbPvlS2FHP2hkoNmNVayhxApYxy5RjQuLyCDEX7ErlGhgwKkEa/tQGiKcr5wEIEsLJly2vJWsYjjgGeq5nuS8LS2DHRDII2qjdAaHK+KrseAPycH/BJEa6Br21gOyi1QgZqPGHpKgKom2mWAb4khd7CZQMkGQ956Z2xJdVLFssACN2EWotnoaE3lXZL5HYPzuJEABXQ1iw0LK36w65E8qUkpzBlrci2Hvl4IrGEaHdvBQgmz1oCVeYLAFHl1nadAhbDJSE0AHHxJdWGAhBmLYEqm4gHADxx62bK0zfM8dCs9CUA2pzjmq5bsYEw26E5WS/Vwu5dq2Tv2sZ4bQOkEVKHAGyAaAbe5YUdmufGr1T9hsARB0uruhVKLLPzFTfY9hiQlwyUZIcCAM0E4N4qx7UlptGWVSV05ZSVdacIQLYMUB17a8ZFlkFV9wAc5GlBxgBwvZQkazi7NHI5j8r07BU0CUGOUVkRgEzVSZVZEQAaR3ViUluqPEUoW/lxBqCRNQCKZ+BMaamw1ICpFW53e0kmDAH/zpm1lNWWMtMG7JBFZm9LHQpLS3fNXDDlJIczAFSKoCi9D1oivkcEKfpuC7n2GFVCVxPXoFbOt40A9rShvTWuxKRkaNwEQa1BB3WjoIYplVrbIkORNRwARN9wvqiF/kFAGX3eFnEXrpG5nCkX8ZDYvZEVVWZvgQdMyPWSZjw3QSg2pFotj6Wb9iVUCokAWbYoddESLKOYDzohmtllgGOEXQqgOI7jzgBEfb1gUZWr5WFLr/qUECvADl44BVBTg1ZN1/ccck3W92XNilFyJQDMZHoe2t9A7WvWprajTv2fHQQCjOlbRxDaJm6Qs1YrYpSC2o5HHAMCR1CnDbUlZzwBdPUNu7p5S9XJHqV31OR8UU4r4Qh0uon6XnUQeZklVn04ld3grX2fpYR247xhN0ZQEQcAdXKwjCqY+paWgklNyQBYpwLqUCQvg+z+TjXOCTxmTkU6H55XqCSzcjSI+OJRSBgn7ceAwicQSKMqgFLkyxmwg5qHJsu+BEurCVM/ySVfctKXYuItVW246JepQB7keQxYjuMBkKeKSw1Xt0OMY0DjCw7QkmpRouU3FD+I50xoalEu+t1+nLZMK1We7rN6Oui0kvlgaaodYtCWrsvpbpWVbloMF7ysEt8P2Abg/YDtYEs/2wGbZaoMUVo6NrZ0yPqsqYxrMhugybk0WIPa3ahHUtGNTnIDFHkih5C3y10tNemDThIBiqTKN0fYJ3YB6PG1NNTyTkg6GJ2oiPNrJZBkX9Zv5FmWwan7Rdshy666V61iv6ZCB2xO5jjQFiWUfriq3tD4BCJc3P5xfIMp6GtzYbuUstFM1tdUIjccXieU4FhoryeuXUuUUPRUza/M58f48njiWtm9Q5GX81zgQXa/naoGG6OE3IW0Oh5Iy+1IK29fvt9Ofb+dSut/qtupdrnLVsZBzYl/0livZ1HVwLD/98twwl7LlCToAZqz7KD91qMIeLfc8QcrqZNct1xOdbrvdI2ZGu+0KgE6Phu7uC4buMyOssruV/bn9VYejCGxUL1pxyjqbL2vtF7eiM4879BTVawnkrtYX/jE6mI/hQvBC3mXn6Fc6LPwTzKcnAf1psnSejXN7+sp08uicX2+zhnr/vUF2R/+mc7levzx9pugL/cPD68/Kdp/z78hwkevvz8KH/8F);lineShape=1;" parent="1" vertex="1">
                    <mxGeometry x="897.9915980136714" y="272.9837718324045" width="127.11418355286287" height="69.5786576835145" as="geometry"/>
                </mxCell>
                <mxCell id="52" value="" style="shape=stencil(lVZJcttADHwNr6hZMNvZcf7hKssRK4rkkuUk/r3BsIYRwLAV3SgKTazdwBAf3vZPr7shuLfL+fR992t8vuyH+GUIYTzud+fxIk9DfBziw8vpvPt2Pr0fn+ffr0+T5fT04/Rz+sLvGZcp1wkU3Mf8wpFzf158nc0P4/HK3CdK3tgX3rYPlSoreyZu2/YcyWl77ykCBylTyRpQqdRtQC5UdQYhkQchlULsNEB8pm1A89RWHiCAKRkPhQroQss2hxgpRgColINuQyCHQmpUNCAFagDg3TI4HZGZGkqiEetWFxlGnITTs1oztQDLZABS6Qxa3SLlpAGNPArJk4sWgKavVttqCTJlAMi9sUvSjSpIunKftQXgKIDO1WjHNQtpyz0AIWFFOaxC4kSMPOTO+WW+U/e5WVZDOWkc6MO6ccLRBkJaj8YknTeGr+kcxCfyUFcA6QPmqCEQS9J3ctRRRWVayUAJcPomodGNkGkpuExGylroaW2JJesyTYUD0zfJsU76qg7/KeC3EDVQWOlAAq0osa/NBVAgJXKinG2dGlqMQjpdJ6EhUhr2VmlK6p/4924vdv5ktzJgqRwPwSiNh6tXZECnIOPqQc7cZ3MRJiEEaJssTc1pEbII6BA6ga+WIloPvu/YhaCiGSAeZ2WPHYx/RWc5AxyIx9njajpMQL6OWMd/47bytr8ec1lYo/tbyAOtiFZbIqy+nHWrUxVM552X8E1zefh7dL+Mh8N8s1//b490eTUf+PHxEw==);lineShape=1;" parent="1" vertex="1">
                    <mxGeometry x="835.360606593187" y="187.52051061086001" width="33.50901322164441" height="7.315058473717727" as="geometry"/>
                </mxCell>
                <mxCell id="53" value="" style="shape=stencil(rVjZbhsxDPwavxKSKOp4TtP/CBCnMZrGQZJef1+qxq5NyjtBgb754IjiPdSOb94e7172uxTe3l+PX/c/D/fvjzv+tEvp8Py4fz2866cd3+745uH4uv/yevz+fH/6/nI3JMenb8cf44RfJ1zvJDxQKfw+/RKJ098fPp/knw7Pl/JMvRp5plS35VunbOWFkgD5TDEZ+Uo1bstX/dueHwM1YECN1KIFZOKyDShCwQEaFd4GSCO2APVRBhokUuoWoBqAk7J4DaxhaQAQKGYL6BTBlbhQKAaQNTBAA6fFxBXQqOZtQOpegzCMQyrUmgVUKiDSI9OCAZSIAWqidavGnkEcRu7bKxU1GmlIVMVmt6Yj0pBIbHrXTAV5KVGzbtUKSSgOTOIKruM4ZEpWQ4sUQT1oHIrV0JhKh5Euth6aUEaAvpi4AtRocKWRrQ6gR4DAcfNG9wjTO6sGmxraOQW4NavRNtJdluza6hrBARqMgwTKyQNqAFdqvvPptEBuzVMBKaAAL40uNAE6aPfa58QGLoZAARih86O3SQUCMIU0GQGsjmpEndwENETtZNkHooBQK8D1mRFqpKH6qd7r4rjrRgc/phUQECBTtTXa1wS+HrmwnHcBQFORZSqIslTt9ezTgpiuJKBt6Bit05U66AJ5TtdKDDRoybmZpYAObBgAF7hGAgpCa7Q7o9fBumW0iAcIMjr4iaKAhopapj7Tl0tutW+fSwrAI0imioNkIxAHD0BDTgsoT3FoCFCmAdEWnf8JsBLziwERgVsrNeckhmxGiYVL7ggLVAegdZHOUMRatcXY89vapTbkg43ZByxgmoeDZoCuqtTKnR+X3eN6XhPbbjGIEvSnIyWDiYHzxTeXQfWA/DQUzqvNRj5EW2UFT53m/T/YMEhQ7Tu2sSjdFuAfXdQczROcEDEtm93FyoC4rdaYWya1XRbgIh3lYq+klAaOQfZJxA33uuYbi1KaCgCc/VQbR+B+Xab1E+XdYJ62E+mCixJbkl8ZdIVGM0fjmqYlPYNIl+QBFTKqMjHVDMmIVpbL7QSZQgv+1SPADUY7iSOdK7+6Ls+efgXI/du6l57lEfUfnTY5eZTW2smbPx+R7J78qh0WEn1dPvv9K0A+O5gfe/8Ae3WUBu/PjM7vy6PURXxBnzivEGd5RIkulpTzM1sAAf7nZ7kP5fXD+Q3w4fD0dHpCvPzfvxnqT6f3Rr79Aw==);lineShape=1;" parent="1" vertex="1">
                    <mxGeometry x="841.0682923386339" y="192.19476338607546" width="15.603306034381148" height="152.02543451450128" as="geometry"/>
                </mxCell>
                <mxCell id="54" value="" style="shape=stencil(rVfZbuMwDPwavxKSqPO5x38UaLoxNpsUabrH3y+9htxItCdboG+uOpTIIYdkBr572z+97gZn3i7n0/fdr/H5sh/4fnBuPO535/EiXwM/DHz3cjrvvp1P78fn+e/Xpwk5ff04/Zxu+D3bJQpuMnLmz3zgyfl/B48z/DAer+DOkLUdvpRtPBsKvsN73sZ7Qy40eKYYAb5QbPGOitnGh0KWO7xL2/iYKx0VbymC+1Oi5Dq8BfcXS6n1x5AB9xdPnDv/owP4SKnzXxhGD2QKpX3AUgEVUQqltiI4UgQptmYJsVoEV+/YesK3pEpaAjLIZNqosyNGaYi9S8VRRlFzdWAxyJRB1MXU+xaDAoPOuVdCCTX36wZRBR2JQaqzSLGNIXE9WTeQoGObOCEauaQMvIXynFxqM+0iBZA4HbSVhgEa0kRr5xIWkMqb6AfcrwvjRgNQlZfIgoanS9smilifHaVsKYAcrOjTJ2Ksz64FRCZGJIl82y6WJCzMUtfGcqGMXPJV74t6EnZJNeIrHr7IQg+HG01DTx8x8J8abxJ2QvNWzU8xsOAFPaAlNwzqT28A0seQpPWKIQYG5FqtMIJPQEKhr9ZyYydRs8HUF9cDqPJaatVXztYFVxvKIoYAdypDviU0RnLAHz1uA5yeWv7CD+jyyh9mSiDBKt4Phv+PTysZBHzqfEH3VTng8vzkwnwTLh8fu/nLeDjMq/31//tdXo7m3wH88Bc=);lineShape=1;" parent="1" vertex="1">
                    <mxGeometry x="828.2194274987517" y="338.5748720017292" width="28.320518100376603" height="4.69029261763535" as="geometry"/>
                </mxCell>
                <mxCell id="55" value="" style="shape=stencil(lVfLctswDPwaXTEkwOc5Tf8jM3FqT1074zht8/eBqqEqQtJ2erMlrIgFFg8O8vB2fHo9DOze7rfr98Ov0/P9OMiXgfl0OR5up7v+GuRxkIeX6+3w7XZ9vzxP/1+fRsvx14/rz/ELvydc8BTSiGL3MT2JlOKfB18n+/PpsrCXSrG394U8AiTyrgOIkEsAEMiXDhCEpAKApxx7CoFy2AdwJRc6QEpUCgAkSzpnKgIAwQJKJgEneI2SCatz5Nw+wjWKDVBTC8OOvXPWIw+iqgy8pZwBZV8p94CkTxgc4MgbgJ4AYhRL+94MKBQAheqIa8+BKQIONZD0J2ShBJRUc3NgBkSY51opRBvWCKphIYMZUalmeITrfSpMApShwilGGqF5uQ2QxnEGpFZRm4BSm9QWAMRBHUh5pVaQuaKpXrkUgfpyspkrsfWdbYBQNlESYsBBtWZJO6roBG4U50wXqA11KRq5JmKQuPG1KWpVPGgyo9SMS0zVw8StS45R4goVtgABiavz9FjUKGpkKu8YLWk0HmqhGmxYC4iSVlztxadx8yBxCjAuFU8RtY28Ib6MSGsB9YlTecMTXBv7iwJCUdLXZkyPJYpq2lNaNYGCtORXpDFAx341HBi2GV1+7FD07RO7c51tWFHXYN96xDymIzHQUmzltWytKKoU+++rViMQhvd2xKUIxe1ltV3pTAQF6uceNO9v3JrzNqDYE4ShknSXMaR9btvKXhZSn+cAOzEzub56BK4y+tr1QeVW4Lsy6rOs5Y8WVh1Wvf8O7nqjKqqxR01YnC0cvHvqBi/B2oN4SrTdyLVbx7Z9plRMfND010uJZBN/tI/o6pn6+OsIQfarogntwD37/7pU/dtef/y9wb2czufpArh8b298+mi6LcrjJw==);lineShape=1;" parent="1" vertex="1">
                    <mxGeometry x="810.0001171560536" y="230.2453723319768" width="18.871274542857236" height="35.27902111428034" as="geometry"/>
                </mxCell>
                <mxCell id="56" value="" style="shape=stencil(lVfLctswDPwaXTEkQfBxTtP/yEyc2lPXzjhOH39fqKpdA5I29U2WsSIB7C7BgR/etk+vmyGFt/Pp+HXzY/d83g78aUhpd9huTruzPg38OPDDy/G0+XI6vh+ep9+vT2Pk+PTt+H38ws8JF0OgEEZYCr+mV0Lc/rz4PAH2u8MNoDfKzcTHSknuAegKhQGgULEAzlQ7AGQK3QBypohy0JyzzVk/UdcBTUjsCoWpghVapGRzqIkaSLoKRTGAlijGdUApxHZLXSiAFXTHqVpAoRbWAVIpJAtoxGkdkNtshU4Z5MCVevGAv28WAan6Ko0AsKVYqHcPSIBLjYR9zjGDHVEpvqgCiDFTm5IXESlQcz1I1EGXxTO7KxNRgRKlaHnXqaGEo5dCa7AFrCsEDxDQ5KwZRg+ARNUmJJ9DQdoJxK4LAeZQZurUNggwDFVncVLIUAole9NTIiXU6Ku0roBKDfiwxBmgUwRlzdrp4AGIGhyoWvHcnC7LZAqXHG+WQNyI8bLlG32iRmTvw1qlCMoaSFyR5OKzK/HR6Z9JQI3ujdeE2Qq6XS1hGVCp2grVSA1UaG5hRQWIHEDPBSsGYXguKC+aBWS+KHYZwN71dAJg0DUulK3c1AgzAuhJZvv8wRSjK1Rre3hM4lkbrkPKMk+DV6fOC8gk9diwvIhwRhL9vo3HjqeHf+wunrF/SXPxSPl1dip8EK+O7uPRfpqOR3JHvurnjtS4nurO7KZa2C/1tWDjMR/unsv/A6AP/64BL7v9frpF3P7vrw36arpy8ONv);lineShape=1;" parent="1" vertex="1">
                    <mxGeometry x="823.6606874776103" y="236.55220067124026" width="6.271531155283583" height="36.546254536028414" as="geometry"/>
                </mxCell>
                <mxCell id="57" value="" style="shape=stencil(7VrLbhw3EPyavRJ8N3l2nP8wYDlaRJEMWXn9fZpYcDQszhS1xwS5SbPsIftVXd2cS/j04/HL94eLtz/eXl9+ffjz+vXt8RJ+unh/fX58eL2+6V+X8PkSPn17eX345fXl9+evt/+/f2kr21+/vfzR3vDXTU6My03I279vD6oJtwc/35Y/XZ93y7OJfljugynufH0yOQzrQzGZrnfj+2MxtZ6vjybFYX22Jsj5+mCqDOvFmWDZ+ji+v9j+5HC9M76M5vTUntZYO77f9ycn64Mb9S0mEPvoeUb3Ju4vj++PYjzRNxhJ4/pgPDl/Qn9F1ZecX9Ceuj6R81TjCp6HxY+bDBQz3cCpxqPHku05cSygKTOmQNIgJyZymoEgUE0uxGfe+DGoszqZCSRjIWuE6uCLsaOVxHYzHIeFM27cQYJxxA8hGgeJGU0NRCAbgSMlE9kOCiQFBXwi0GJNiXikTHK5hWZBAZYMUX/2aCWWnRqbxU4CxHGxTn6I/ZDH+amxVNFKwgTiJJA75h8LaH6B48Rk4geNfj9ijPCakFWHEcQUtAPZISdM0eIoCCjo1vFICtuZeFq8iWNolGASqVNq9QqFJ5rIBCoCWVGYIbFUtsK0E2CO0wPgkVSAWKnIwZEYzJSKaK8ClihdXf95Z6VMQkOrcfYowOp/jUgY1HHCdtDwrijArKQCsEOuxpJorYKcQWu6J7jUdhiPFISCQBMYPa0FIC4ExgR6J4ofVFqZnONKu1FprXqW7SDIZJQ7OeYHQce5QvNBBeq4gxOa07VgnVYBy3YoyJ7XAuBpt/C0cg0/Kc2sVNFKzazMcRVLVnMc06FOsbRxg1MBiKWNch0TLDuxbq31ngVTRe6QhONMxQKhJcPxHQrAhu3RcioAjZtb6SDjDoptC0cAnamcGquAH2FD4zExcC2mjK7WV1Czlt7cbeH67svTJJ22YA1TgwFQQl/BgQa1Tr0pOsXvUYkaaKVuAmMwVcsBX5BMaylOXAdo6xt5YNEnGEwl0L64YR/ssGjkSu95PipQuxH3R+LIhJxsobRmULjLrHOOrpMaonURGrV3JB8NvoqsbxXeBdF1lUCa81C0VjlapoRYwIBMWi+ARrDMraBMMJgaWPIMgpa6wfEiqWeBxQ5TV0ODKd9bg3KPhI9WORW4r47+zxP/vTzRTUr/x3liExhhprVBC9Y3WkkbrbwoEMArtWaxyj5ZSWyfFp76AQbMkQ4TW/BNrI+Gd+41cAfGle0Qkeq2DLmraW9YyKzkcFzZdCACbfAgKMBmg220AZQs9dJ9OjzxKMA83cYzAQUYFWgDINgh0smdJAw+FYiLIRbsEDrBOR2TWRRg3CGniZ2EXvXORn0w39RgEXKkVDsK7QRYjUsZb4BUIDGBeLADw6Xk8c5L45ftECezlg3azsbGGSZ3nAnMg+mSKa2Mfpp68cLehuuCAiy8w8RDla2z4Au5+3U/fSQ6hK0d3kMlE7DTFDhQT/u5a3K0xmlFk9EPUigueYehoVkeiFndFEua5Qxb3TSYzoUinwvYjGqWF3bDZtFKOdAaVxDHsqP8Sjuk+c6YXTVN631vcU7W29mk9M4Vik/ZbpGPDWT8GKfCp+RusmfuGp2cJ8J8OVMKHbAxUfjI9A4e5kqaeYxhxIkOV5r5EVlYok1J6sptx6FXOanfY26kcHHhHYE40/vu1C3Xl2toEldNycg77YyRo8tJoGXkjpY2CRnzxNEbq6k99fRKeWrsIr1QFvwQgFcLwStDTtzv/GpmuVz/eP9A59v16en2fc/+d/ygRx/dPgYKn/8B);lineShape=1;" parent="1" vertex="1">
                    <mxGeometry x="883.104920070167" y="157.29328405529282" width="173.12824910426457" height="27.81859423358037" as="geometry"/>
                </mxCell>
                <mxCell id="58" value="" style="shape=stencil(7VlJbhxHEHzNXBO1L2dZ/ocAUSZhmhQoyrZ+rygPqtkVPR28GrBvw2HHVOUWGZl9iR++3X/6encJ7tvry/Pvd389fH69v8RfLiE8PN3fvTy84tMlfrzED1+eX+5+e3n+/vT5+vfXT+PJ8emP5z/HL/x9xVVnIQ5UcD+u3/Ro2f3zza9XwOPD0w5QkqW8AFqdP3ETkJNVvwKclXQOSNG8WwC1WBJXisFiXwHZujghJHPrlWoz384BvllcvdSCJQ3Iib3ki7DBWVyNbviJLLzkzNOVunkv4uDZrQBUAShuXmBLDScjXboVx0bncA6owSoBojkROCSCD2vgdPLVQxyqt6QA3dqaSyVLG5DMtS6AXK10AfAW1uTLyCV1gre+XikVcyKXhhPXK8VmReRSSxZXtyIdg7Ihz4KcgOC1l7K1sgB8tCIKCACuacvqRoFzL1pVPgqW22qBdf18j/S8YgzEoJDBlqoMQVntddNjZ/7p/LziSFRiqvS8Ygtwg8v0vBO/3zdO3z0v4tUD0xcIUNiLrpQK+0fdJ1mO5P+o7pNnwr/FV94/c7yCNRFf3D8QEUnigj875U/QRV+Zhzz6gaqYaJ0qoJnTTJdWl0bYIGwGN6eVVkBcXgQNbTuuTspajFTYsJ6Qu0wLAMIKgJ6JghrRohp1HLRFZXScPtmpl/eMJkHlZg8662lUaq1YUDY0zqXRl5UNzRJJtiazG5GmjoP8VbkEo11hgDQa/L5eqeuChhjplQGKgUtlowHwSu6AMhzboDi4RO45YFmVfCUcpHOTrAQAsRJSQ7XBcSU6IWv5n+cFNgAGAiHZSuV6aLrzI3BUcQBE0aqQGtQaBkBla+JeDkBTBVQ4l2B0VTXdDjUNAaR1aj9MVSr5BglQHNoczM5KlMV5nxLlrETresLo8epKhxaNApL9wU2v70tUpXfjJjpOUAB4vR1sUMmX5vyxH5IEkaHi+qFElRK+DVDzc7O6ZitmFCWVACCtjYRXBZQ708wgT+VWz2QMHlEjPf7tqbFDX6o4ZB5WMSRJIqus31KeQ83psLoCYtGsEQ4zT5kK6rTHrUTm6ySe0xJd68E72R/+jUMPGfD/0PNfHnoqq4sqNx14nojIx0l+ZwDa1sBiRUS98ZotOrkPAoDoOoJeRQ71zosLDD1BGb01mP0+SO0W3ZaVu5WTEs84guqygOvEEbCatsJ12ymdZQbv2foczc5KwZEG025CLTdS20EqpDGu0gBQ9erPT3mzAbrMPjRaKs9daG4vbdHLGx+hGCBue+kN0OR2cfQkz1arQPjEnNqLLNJ0iEOUNh+S9S2Sty90eF5rvE1u7dSOGm49pAUN6H5+c9ulkYUwdGgVN4qBVSfUSReckTyvYobSFfWZDzvkMTUJpQC5RUxfNy1wWx4VHm7HOxU1LoS5bdoxgGrmUDu0y4cckN05HgrazXngTF7wksFL1QlACAzoSsBE3qyAlFQcAKA4oHqKOiEcRp4ke/pYHlUGKBsQpkAUkyUnIXDE9YP91eiZpyrdAxQTJ9Zhb0rlVJt3NlpO9P6wu0l6h+YOqfHOavL9F6v48PZa9svD4+P1re7+//waF19dXwHHjz8B);lineShape=1;" parent="1" vertex="1">
                    <mxGeometry x="986.2657151087196" y="98.51717034693144" width="29.25777004460724" height="58.34806893309309" as="geometry"/>
                </mxCell>
                <mxCell id="59" value="" style="shape=stencil(lVfLchpBDPyavao00jzPjvMfrjIOWyHgwjiPv4/IZm1GuzTFbVm60Uhq9YhBH962T6+bQfjtdDx83/wan0/bQb8MIuN+uzmOJ3sa9HHQh5fDcfPteHjfP0+fX5/OyPPTj8PP8y/8nngtE4czS/jP9EaoyL8XXyf8btxf4AMzMXeEUEjydUYrVGsfoVJQQBBqpSNoowoiVMtBO0ISYkAolaR1hKzUwJEKzynOhJIopuuELCR9DjVSAnWNTDF2hFZhIzST9H1ojRQcSS1C8ITSrhNEqbhOfzZ/XRyZSvIhGjhTYNJFEhkQErF4fIggAMXsq4r6thC3qTcXhC+9kGye/qt9vQmLAmUKSNqU3PkTJdCzEKmoJwiQkVUosycwUoUVsNwTQeNKhAxUZNOueVEkUNRowxY9oQVIaC5CmbW+TjAdubJaGVCfzfQWwkaNVlmUtUHl2Si05gkNRAiNuK/SzXEW0uhDFJB1prxwGAW2ajmLr2oG2uNFnws1MP2Grx6P3EIoLXSkaBYo6V14ptoHsFuBgR3Jxx1wce8w0p3dCn0L7GZDhhHVXyMpUAG6i6bjPoLesGyh3OdgWaHb2QhuYbANI6Icsu+zwEkwfMkOLyjlOif4caA5pfUEAlWPZyC7ZPbWzz7Ptr8+ZsEbJEMHzqZ6cXhG246u4IFP2DrlrIjhmJnoo//9CM5Tzbl8fdA+aAtkdgKaV591fPLOKLBf9+7Mt/H28Lmgv4y73bTfX37vF3p7Nf0Z0Me/);lineShape=1;" parent="1" vertex="1">
                    <mxGeometry x="916.3352928715278" y="427.18088783608016" width="6.205139057173483" height="54.24612947042283" as="geometry"/>
                </mxCell>
                <mxCell id="60" value="" style="shape=stencil(lVfLctswDPwaXzEkQRLkOU3/IzNxGk9dO+Mkffx9obp0BUjaTG+yDFB47C7AHd+9Pj+87HcpvL5dzl/3Pw6Pb887/rRL6XB63l8Ob/q04/sd3z2dL/svl/P76fH6++Vhspyevp2/Tyf8vPpFSjI5pfDr+iIlyvHPm89X++PhNLOv1Luxj0y5bNvHRpHtB6iD85NQKMY+UAzb9lwpNWcfgH2uJPZ8pgriL5WKPb9D+1qJgy2QUG/bDlIouwIJJZBB04CTzUCopG2HHqjZFHKDX+iVss2hyGj7ukMfPR0OtY0yrKMi3Lo0PKRDj87UbNatU86wTMXWtZeB9fVGRGLXacUuqGtpVLN1wCFl9g6zOqyzgalXH5OAJDRii27tZQA51BHwrEh/4biegqd/z5QqoCd1d34aNdiwzxZICl4B8au9rU/T+gB5yRSs3LVKDeRbKNp8W4H5qrpYWLdMEbC/efJP7AZMi4FS9A4N6W+kVn1EqAOq58uUkYDFZU0F9kwdXJOVyjBpraH9Qo9UUUi8oLICBTmkwfQZrjsUsCG5M+I0pNp+7EzEBERezFk9X8D5iymiCWAipOwrlCDRvJre5HLD3nVAe4ztm8OEfCBE4kCn9QGwrhQXNECIEGq2PsozAfaK4AWREQn+135qGPuECwBQTgspUukCLNMZH5oPCZVomvGuphGKqeieYosqmPgqzmxRIbfVZN0h+3mg+1gEX9AAui2rlgHxRnjo+WyZQguqBuA2HVYmoJEjY6G+OeiSDiQ+d79yKlgKGrJlpDjbUQMISdVF3NZfB1+3tv7gltpEBUl8GuozS5oBvHWuRZsDpw8IJxZ7jAnX/BjkTAw3qSLevqCLCPXi7RPoAftNjW+SvN4zP9G0PvCi5qe4NiAA+0Bs49cKI2ouFn6V2AogpPY23wmEABBhaNWMBAFBdO3iiyb+hxdlffh3y346HI/XS/r8f38r11fXGz3f/wY=);lineShape=1;" parent="1" vertex="1">
                    <mxGeometry x="914.6736577333975" y="422.94835224103406" width="30.776655150993065" height="27.414108689639534" as="geometry"/>
                </mxCell>
                <mxCell id="61" value="" style="shape=stencil(lVbZbhsxDPyafSUk6qD0nKb/ESBOvahrB457/X25WGi7ZOMp8iavOeI1Q2pKD2/Hp9fDxOHtdr18Pfycn2/HKX2amOfz8XCdb3qa0uOUHl4u18OX6+X7+Xn9/fq0WC6nb5cfyw2/VlwnkQXE4ff6IXaq65fPq/1pPu/suVFNFsCU0n1AZqrVACoJ37evjbhYByTg/ibU7P2BQrhv3+NwP+x5OHzfvlDsxr5Rj8BeqAdfUe4A0KnYBJJWFGQQw5bhQORKpUEXsdkehNHGe0k4gDB15CETR1slTSIDQBgRbwDBfa5UHaDBpDUA14iWqYG6ijLfMk8qBgixFU8tlAE39D7XuBKpIUAZVd+4IZQBW5eQbB84YQ/KPjcAtHFAn1pWsXrQ1oMiad+K1ycjJgXK3r4j+WSKNuNKjIin1Hb61KZhfUY78ViZWiGguwrpzMHyLBZQlChgCC8zxs1UDRIlXcYI2qjd8QBQXmYrnkoZ0UI8U1WeiHgLoH8EoIvByVMBAWghZ6rRAzKoUoqj6gOwLAsQkkqFbZV2s/n9uvpOL2QBZRUKdllp6wuIKPsh2RluKx757dqcAFUjsY1HGpwWYWyyPVHB/f9sttKhOMNYMpvUOjXA6+jjyYEEcIjHbbvdjKScvT3jeop/XGiEiA8ffa79314Pf9+GL/PptD4t9//7t6R+Wt+h6fEP);lineShape=1;" parent="1" vertex="1">
                    <mxGeometry x="961.0685154318219" y="445.6386776884807" width="18.915114584672438" height="5.149786720870225" as="geometry"/>
                </mxCell>
                <mxCell id="62" value="" style="shape=stencil(lVbLctswDPwaXTEUQRLgOU3/IzNxak1dO+O4r78vVI1UA7G3k5tEcQWAuwti4Ie3/dPrbsjp7XI+fd39nJ4v+4E/DTlPx/3uPF3saeDHgR9eTufdl/Pp+/F5eX99mnfOT99OP+Y//FpwSqXNoJx+LwuJcvm78HnZfpiOV9s5U05u/9ioA0BpxMUBMpPofUAbKYsDcCLJ9wHSiQOgUwMpdSYdHaBU0gQAjVIAKDFIqQtpd4DKVFCETrk6QEtUUYROPQCUOmOAJ06EpELAyA6gdgwNFi0+Qs/UAdO9rkLYAIJ5YKq+6DElSghhYvLytrIYFKFWtZerZYn0rULFa6MnGkcAaDElzVQEAGqUq5iAgTYswuiJaJUSiiARUGUl/zZAV0dugESKLGcW9h61vqBIfUzJ82AerR2KiYNHrQakPlktvNUwUkEpKanEU+rgWE1q4rtAa2tVNwFXat6oLqTY1aF9K696vFdEDvo25tAxtRhhXkFVl0iEJVlRhBy7qwEUUf1RgHW64KD5F4Dq2qOptUCqixXtm6W0lfzb9+jWJDZt4N7XVjFv4rPuie5dKmE/wzPK8T4xR1ekVWrB0HW1x839KXaMYicAGrF99fkww+vqnXOywJshxSnDVhgYJ1H3NhgL7KnvNKrUgJE5zjAFDhibGrdsiAG5jZpvRPjW/OBM+N/t9vBv/HyZDodler3+HsdVW1pGXX78Aw==);lineShape=1;" parent="1" vertex="1">
                    <mxGeometry x="956.5539876585588" y="451.72950530827677" width="24.538468912452572" height="6.396596884483188" as="geometry"/>
                </mxCell>
                <mxCell id="63" value="" style="shape=stencil(rVjZbttADPwavRLce/c5Tf8jQJzaqGsHjtPj70tVWNXkQuMG6JujzKx4DcnVFB7e9k+vu8nz2/Vy/rr7cXi+7qfwafL+cNrvLoer/JrC4xQeXs6X3ZfL+f30vPz9+jQj51/fzt/nE34uPEeRZ5LnX/2Bz38efF7gx8PpBp6JnYG3tA1vFLOCM0W/DXeBYjR4ZoAv1Oz5FZzv5fxgzY8A3ygkhfdUQHRColINPoLwRGfxjjLwNxYqzsazbOOT+GvxXAG+EScbT4DPkbK2PxADe3KjWhQ+UwHxL7Gnc42PJCwAgiSsaUIl37YJNVDWBC/vBCmuhZIOUXDkQIyaszENGSatxa6RToiePKjqVvt5KyGTQ6qs1HTaYiXnAKFZ3STf47ZFKNokKa0IKlsIzVSGBBqUxkzQiSsZdi4hVN1bqlQvilLrBnSCpBJ1FyE4rbZWiJEPlbIhNKgHIXC1BOiDBNEQcm85WwSXrdMRKE7OM5KWsDqUBzFA11KRronCmm0tSWkwqtZsaylV2DXE6aDzIOUdUB6KNUk6c0MmrV3oVqJY06bzyRugpqXz6UGemBpWnOndaY3bpuK0SdL+UeIcr9N7TXXoA3XzFToR9c5+IU7ocq3yBGvU68y1RAmVa7UjepY51qjXJt3E4X8xIrHWUMNzsbFdHGTwRTQXC/lBpaj+6rBaZdyPZVQ7U38yhIBJsgyYXCcH52IehpCIzoOwzuuM9kEmL6rweV/SIyIybK/zQuYtIdzZ+PT2IDsjKj/5d3XWhwrCKjtr1SKNES6h41IsYWXwhnHrFgJqTeNaL/sJg/Ie7w1CqB+5lwgeTbnh2nPPA3uriusg3sBzHs4H84T7mnCTM6R/Hvx18CLD5PX5AdvPdi8Jsh+CKh0Gg5d+A/21eNel+m/2uHznfOOvw9fgIZ4FKmBIV4DZHaoBN/cPXuHvwuXH368FL4fjcfnYcPt/+3VBHi1fJsLjbw==);lineShape=1;" parent="1" vertex="1">
                    <mxGeometry x="1005.6777370960913" y="449.556169874424" width="105.48062434711187" height="6.403267881637021" as="geometry"/>
                </mxCell>
                <mxCell id="64" value="" style="shape=stencil(7VhdT1sxDP01fbWSOE7sZ8b+BxJlVGMUFdjHv5+7KqXxbQ+atJdJvF0uPr12fHzseMVXz/c3T+tVSc8vu+3X9Y/N7cv9ij+tStk83q93mxd/WvH1iq/utrv1l9329fH28PfTzd5y//Rt+33/Cz8PODaqvEeV9OvwplKVPy8+H+wfNo+n9o2KTfYlU0oAwNRnABfqCgCZSpo9qmTApaLUygSQTgxcKkI6x9yMGgMAU6kTQBNxBYBE2maAkpXLgGxUZAJYJQVBZx2nfgQ06h0AOtU5BuvUMwA0kvmUTElA0FmI8wzwqFDQPEI8AUCXSsyDAwwFnUj6BMgpQbp6mnjhkl2277F83J5B3hpliYeKQhbKM5E8awb8r4ukNTJQbZWKRnt0PnXBIqEE/E/UQuV0EvD7ifLMIc3EwP8Uy6ALFUQhklmNGsP8GuWgLZUSKoJFmUmiCoqAheoccT1y6jwj3AGNgAIALm41CGqjijjtFJ6DdgVOgNQOSHOZ1TLenK8yP5MA8MQDl7SQzjGwqz7ghbrGzzGwyx0qfBu8OQEgjbcS244DGgIINYsxCIjBpSFZPCVEPtceCdTIpOBYT9TwiOChgJc+EUS+ChnyqUcJrrjveOOzEITTqwFAjtxwAOqd3ou5RYAh9rnGcQRUxO8SZb4qJJMXRPyCt3MgG11JwylV3Kg0Dj1eox245EWtC/ahwc2VOvROHy4z4JK6x3MevIIMZNoTlxYA1B2cGrIoapQ4J18PRa1jHL1Eb9YYNGpw+5kosDWP2e8SINYDvwdogd4yhvZ/A/AenmZ6i2C2lpg4UThxCw9uHgE2JpXzbVSHMp4AMhrRe5ysWsLTqsWgm8BRbz9AzwXkswkjNfaeNUuleqMGQX9cAj4uAf/DJUBHdz29BOAU51A5fqBALpx1YSZu3u7QFxZTiTTMa2dA6OiVMjjTsphKOMMhozC12SW/3CAVXq4xGI7Ee9qF1Q0Ubbe3uZQ9JKyoFupszK/n7W1saYZ9gqzgFONNUOG5jE3Wmz3cVNU4bifov9/cWvx9eNPrccZLcK/lLS3IRB4MuWRvs30ZOnDe3kY3euMPmo3+elX4rr0/vO0l7zYPD4e15un/4x7TXx12oHz9Gw==);lineShape=1;" parent="1" vertex="1">
                    <mxGeometry x="1009.4614738245596" y="467.02786219431766" width="24.78779316626901" height="41.61953104044824" as="geometry"/>
                </mxCell>
                <mxCell id="65" value="" style="shape=stencil(lVfLctswDPwaXTEkwRfOafofmYlTa+raGcdtk78vVA1VgZJ3mpsiY0UAuwsiAz+8HZ9eD0Nwb7fr5fvh9/h8Ow78ZQhhPB8P1/GmTwM/Dvzwcrkevl0vP8/P89+vT1Pk9PTj8mv6wvuM886RcxMsuI/5VaSY/774OgNO43kFkEjexgf9AgBUISkGwI5SBIBE7G1GjmoCAE2gGkDyFOU+oMSWQAPkQDHcB2StQQygBAqg6MxUkgFU39qwC0h6gi1aEokDgEKSLaDAlBKTszxIpQjaGhOV7gQhBidwpiI9oAIeQiHve4DU+wBfqHAPyAzU2n5d1VwBDUx509QCEnIUrZAkU4TxvGHZA5aZglW2MMxHyFnZSaAM6tWGui4hTxUcEDJx6AHIayqK7QkJy67XaSAH5kUK7XsrgAA3q3V6liNkQc1Zu5RSI34fUEm6lDJVlFLsB4wK1QEeonp3Yx2oJGnjZAUoyM2qVVvD6q7Y14bbGRgFaMMH8hs7ezTD2vxZdckjeZOvPQ0CxsXmLlSeE8jns/HKqTWP3gow/0TBAoqnjOypN6WVRfbQC1NLbQnJwRGsI6ZaDuIilH0d6T5hSVZleZASL5wuwpNW1T1AZ55IAehUE+5WGIaqi8s4WVYe8kDWsfRT28MO6QAT2yEHSdZx1A0812Syv4zovRy7eOTjslnxNB64ZhKxdPEM+KqFUh9f0SUe+mmKb5DJ5Lbe0CS4H69rjY1nuA1+emf+D4A+/FvRX8bTad7w17/3K72+mv8d4Mc/);lineShape=1;" parent="1" vertex="1">
                    <mxGeometry x="1028.6664913867917" y="469.3339040276056" width="5.876069864728379" height="41.2631051043968" as="geometry"/>
                </mxCell>
                <mxCell id="66" value="" style="shape=stencil(fZbdcgIhDIWfZm8zQAg/17Z9j85U606tdqz9e/tmZ0c0uJ47xP0I5JwEBl59bp8/1kNwn6fj4W39M76ctgM/DCGM++36OJ50NPDjwKvN4bh+PR6+9i/z74/n6ctp9H74nlb4nbmSKZeJCu5vngmZ6jzzNAO7cX8FVKEsBuBKrgKg9oAE8gkCbLeUhEoEQKSUDZDLeWYRKIl8MEDRmHwfyBrBG6Amyu4+kDxxMoB3jhwgYu7TVAsVkFcWCs4CTBEoF4RctKeOxHIf8IXYpikHikAIf+MNUW94AGSSaoAoFIE3AlOyeWU+p2E5S9yfQZcQILVuQOwZdJNoS9Ls3wA5u2XZTIHECqeJ9kDpSaauRiNVcAY1QhdBzeLBli5WazpkSsBLV25uRaqWRyFawTQzRRIQYirJzq5atkBqLfouwqUxLBepthWb10vrWZY6UOAeyKCCtDV625mm9gmUC4Wc3VLJMMIE1BsA2FW9JraVlQB7n3c9oMKhCLEvIM1zBPZ25/umNQ1tVEC2G+fFCC8g398O2hNQuQlVu752DBfA+q0ptnqO5JFmeuIuo9DY7KjY71UxdJV4EntifPWorW++R/dC4t7V3DlIB5cHx2bc7eb3yvX//QNFp+bHDT/+Aw==);lineShape=1;" parent="1" vertex="1">
                    <mxGeometry x="1049.8179596980665" y="497.795330769066" width="4.67253977211567" height="4.665236216357243" as="geometry"/>
                </mxCell>
                <mxCell id="67" value="" style="shape=stencil(7VjLbhsxDPwaX4kVKYnSOU3/I0CcxmgaB07Sx9+XW0fuivKOm1NRoLe1V7PiczjSRq6e72+ethuenl8O+8/bb7vbl/uNfNgw7x7vt4fdiz1t5HojV3f7w/bTYf/6eHv8/XQzr5yfvuy/zl/4fsRpIZlmFE8/jv/kRCX8+ufjEfCwe1wA7HUKPUBIp3VAVOLSAwpxXQeIUOIOoJEK2iFR1X6H3PY8C0iRNHaAVClm4DRT6J1OgSZgUlZS6QAxUABO69Si3gByAcA+cRyIGQACldoBgtCEnC4U+ihliqgyStv/FCQco+q/L5QTDlHqPYb2qBD36wMJqAq1oukjOlFG36+UxK1/c+js+mLhTm49ik/JlPx6RusrFXbr34rw7PrKlIuLTwLxr9G3mX0Afd/s9/ktoKKrkrgmIwb1WaWxwsn+SAEk2Bx2CTMPBGSshlZgJw8E8kS1iulDFK1nQM4MUPumNCZShT6EPmlW5hWZZHydO0BJrY/OA6yM+h3sE4gnZkDvtGU+orAW0t4kS70ik3IjhhOgUMGloc6kimt18pkO08XurNFvUQH/Wvtr8ADEXyW0sC+8TpiQWH1cBY2E4idtPY3SNUB1PkRKoKfLROJMEhKQiMJD5hgDrJpdHkLjtTWadHpkbnNUTDwkznZARJZIy+ADbogwRgkBTtW8yEMG1bqo5mWqEVlWPz3nYkItpBSHJk2g+sxk7bnvQkNY2B2VzS2HaqPQ5Cbcpa6OXrddIA5r0jI0KaJXa1Id4qog19ZznvyMXoFJ7wckzxtGbugMYFJS+p4zhY52yGU4NJhWQtoztcQuBikSY3lg/HlUIwB7KmPc1f/l8N+Xw9Gt/+flMCLg98phi7+Tw1biSHvWVu/LDsAjYeozLIxNUp/iiJtyVug9m85HdZAEm/6hT7IxB7pcmLmuj6r1BeJrI5bQO22Uj5yOtb1esKkCgAwHc1OjDEwKw+C0WkdngNCE6eIIkMH6QSuoUQuQhcHy7Og9NHV8PkbsB4jlWUCtpuLJK3FL5Bp7uVo1AFIjcwjVmwQF0sBfKV2ShdkNhIz7Tb08T4opY5j8dppkxEnFj1mbyxkrVel3sDk64aObOyZZQwmmVVfc2bQFCqsZMFAAGmymCv0OqZ3C10iGHSA3xbQmCp2KnAGoWt97C/sHAHv4fel7t3t4ON4ZL9/7S2L763jBLNc/AQ==);lineShape=1;" parent="1" vertex="1">
                    <mxGeometry x="1066.480592694867" y="470.67965240257183" width="15.058252947487517" height="37.819234659034464" as="geometry"/>
                </mxCell>
                <mxCell id="68" value="" style="shape=stencil(lVbLbsIwEPyaXEe216890/Y/kAglKgUE9PX3dRSFYsdsmptJZpb1zKzjhlaX3frUNkZdrufjW/vVba67hp4aY7rDrj1317Rq6Lmh1fZ4bl/Px4/DZvh9WvfIfvV+/OwrfA88beBUzzLqZ3jCAWF48jIQ9t3hjhBBlOM9dHiMd1BFfQWyj/EEFzJ8tHBewmuT4xWsgNdjtREfSKyvEGKG9w7OSPhiv86DBT0neBth4gI8MfyS/klD0QJ9jAHzY7wZ3Rzx2kMJeALrHC/nwcHmefAgQf4wbu4mJ5QAZ1BenWCdIE6q5ovyXjBXB3DZvRSG/u9tqQ4L/adxLOWckd+WO06OGyE/VsHnA5b2YAXDbBjz+M/EuaQh5wQLK4yAT5rkKpGH0QJhYgO50ch6iiY+kIEWWgpc7qFPotBSdNB+iQ+REYtoEILgNKfXbkH20jke85NCQwuzwLHU6HY01fEMkwdJHk2tJkfdzDBUGKknL2hUYcwYXWFYB17GcIwgfDIrjJmPVIUR5ZGoMNjCSGdfzY/S8rT4u2lsu/1+uKjcvy9vJunRcKuh518=);fillColor=none;" parent="1" vertex="1">
                    <mxGeometry x="908.7499866485596" y="319.7200328063965" width="12.79998779296875" height="17.39999771118164" as="geometry"/>
                </mxCell>
                <mxCell id="69" value="" style="shape=stencil(lZTdbsIwDIWfprdHSZw48TVj74FEGdUYRYX9vf3aVWU4a4O4S93vJDm244pW5/3mVFfOnC9d+1p/NtvLvqKnyrnmuK+75tKvKlpXtNq1Xf3Ste/H7fh92gzksHprP4YdvkadWDg7qJz5HiMGxvwGnkf+0Bxv+MRID/EO3j3ARweKD/AcYSjjhZb5kOC84vsD/TLvE8Qo3k8Jm+UpQnR+BBSWeccQnR8bpozNCizDJ22AQFyoAKIonixiKjgAZYYdQuFCBiEoPjikQsWu9Zx4pmmHecOwmo+EVKgwI2i/yYIKFbMEmwkiUqlkBNYtJ+UMkQfrGgsjFiz4ANaeJU2R+a5mGN3V1tx5N//a6J4icv4yRRAKLlL/1FIuMHFZIB7B5rZt4YSbK18VAaQU/eJv9u2aw2Ecnbf/81nZh8Y5S+sf);fillColor=none;" parent="1" vertex="1">
                    <mxGeometry x="960.149980545044" y="231.92003356933594" width="18.199981689453125" height="21.39999008178711" as="geometry"/>
                </mxCell>
                <mxCell id="70" value="" style="shape=stencil(7VnZbhsxDPwavxKiqPM5bf8jQJzGaBoHSXr9fSm4slfUeowARYECfnM2mpV4DDnibuTm9eH2ebvx7vXtZf9l+2N39/awkQ8b73dPD9uX3Zv+2sjHjdzc71+2n1/2357uDn8/37aV7dfX/ff2hp8HnPeUa0N59+vPk0h8ePLpAHjcPS0BTNUNAMkUEgT4cYcQKYbzAK6Uxx2SvkIAIFNNAyBHKhkAEoVxhxIoAhtY32cAiQQBAuXxSEUPWQBASOIIqCQMAEwpDIDquqNXAepVsesLCEOmPL2/xvPrI+Vs1yd3fr3YoKnBxYM8IhnTqBRK4DxMnG0EGITMTQGIFEDWOXImJYQiSDpHPPq/aARBRnhy4/qE/ROIeVyP45Uoj/ZGB2l53P3I+0oRnEcz2o8AXygiCiRbWbgQAwvUpXFMIT4GcT3lFDDm0DGI6y6N5IJZj+pKDN3AYwxIwPuTpzC6qPZqvE5J3X7MCVZWgBzNlVy2HmJgQcthbywooAo1jowx0wfo/dmGLPSQrK+v3eGn9agVVG+TLlAA56/6b8OCTqP19anXhJN/YNEt5Exr6km+vr6SN1UXkl7XW85wr6vrJHNT3dJehRq+bhFN0mlWgxirzRZQSADxayY3BqEVSxQFPdJY67S0ZOTWTGUkvooWCIhUjWjJsFrXqZ3FAstj1ThN9T0hqmmox9QoDlYLBZgOqOxICFBs+VI3MGgJraOOXlJHIzpoueDRS5osFRntu9ePgNpr4DrA2bbZKAJ6Qlb1Ou3gAYNUW/rJaHSkLN3rC7ciUmdPxXhJoBRpAGODg27VIxlxV3C2qtFi1FrqLD/n1mjkV+wC6Fzg2Bwp4FYy3VwUkIANegA/KTyk2DS9/STiPcrW0g+wFPGgaqxQlKEo1x1MP9QOhiRPmWV8ooTiEG1HUYoGdCTpsnFBIFjINDdHLy2a0noylS6jFlsgKanpWqc6gwKRg80+dRNSw8og07M0EB7VGU1Xw1HuoflLgGDVqvotIUCcxEzGXprvDAkSIh8vvYu7P6MdJkLIxbLhRxv8hfxmW8k498v9VRJvrpL4P5XEelUtFoAUrnYSPw3+0ISqdXTDtNqHXOu322gTW1U6CkSMtszrkZBbQ+gqZ2G0AwBV/TLmEgsxGlJxv18fd/CwvKiJJnDiIf0buwydpdfxdYAeYAREoYLHJGGMdNKKgQYxxWq3U7e7zlP/4Tx10vTXeepy/fvmqWznoxmPI8XmtIojJFIjJTMAYHwtpDyeR1KfoK8XbHt19hfuR/2rzKJywb5p43v6cHOmbdrrFFfcZ7lXzkUTrOBEbYI8ATwCaD8w406sLbRwGRI3ADK62Ilte4I+NU1TG30iiJbqddMEHUVgg4bVEKF9okM7TA3EC7z8v/8b4WWA/jh9krzfPT4evmgu/28/Yeqjw+dP+fgb);lineShape=1;" parent="1" vertex="1">
                    <mxGeometry x="1031.3981623368807" y="395.4172197734707" width="29.41563912865695" height="31.024311107779113" as="geometry"/>
                </mxCell>
                <mxCell id="71" value="" style="shape=stencil(lVfbUttADP0av2q099Uzpf/BDKHJNE2YkLbw95XrWYMEPgxvjqNjaY+OLjulm6f93eNuivx0vZx/7v4e7q/7KX2bYjyc9rvL4apPU7qd0s3D+bL7cTn/Pt0vvx/vZsv56df5z/yF5wWXKKQZFPllecGU4/8X3xfz4+H0xjwwpWbshVoH9o2CGPtQids2IBZq2QA0xBa2AalQZANIgZi3AblQqRbQqZRtQKkUuwHoJ1raBtRKNRpAidSAh1bGEVdApw7O0BNlC6iJIshb7yNNK6BQl22AKCc20a1SAiGJeJaangEcWsSH1CNFEFJgHoldEZqaCl2IVbeofnFMxcYkmQLgVWkSVw+qeFAQCgjOgxIH9K3fi66CXnn4GKGJEu8ig5qT4nOtTiviNb/jNcM2oH8XWxESMK/Zn6E3YhySq2qtEc7w0E5MTVlCHgpVJ/AKO5Pmodgi1TpnxFIbvXcFZNhoVEyJvYeGi5RdVTfcBoSqbcc9wP49l5zLg4oFsaQAl2nB8ta+4bQUSZCWxE8I+aRt9CGEFdBxPTQq7yquo0xXr6X5VCgP2q2TDyl9FZDRSOnEllatuIZGSqRu5a1vBFTcrH7LkopPAEs6opw0WqQAPBQt0WIA+gm0zuRM3daDDt4KACl7aZRAFdAa1YMF5ALlrftRsBWn60lEWiK2adD9B5EUqNkjz29QQGOxWO15sPyhPY9VZ51XGiG0dxulMiBA2TwGx2qfx9DesHd9PoQxs7fsXXuBew/7BbeOBXbDPLtdEgqUR3deyacCc+WmJm7WSoRNFcMlUn1nZ46U/MWrxafm+vB6i3k4HI/LJejt//7Wo6+WG1O6/Qc=);lineShape=1;" parent="1" vertex="1">
                    <mxGeometry x="335.94459199114766" y="662.5607915072134" width="59.86616247586494" height="13.28462801336309" as="geometry"/>
                </mxCell>
                <mxCell id="72" value="" style="shape=stencil(lVfZctswDPwav2JAgudzmv5HZuLUnrp2xnF6/H3hqnREUFpP3mSZK1yLBbiRh7fd0+t24/ntcj593/7aP192G/my8X5/3G3P+4s+beRxIw8vp/P22/n0fnyefr8+XU9en36cfl6/8HvCFeJ4BXn+M71wxOnfi6/T8cP+ODvuMjnuzmeqfv28D1Rq/32hnNcBEkhSB1CPArAQ1ELoAMLkQAgxUuktSKUQ1wEpUfEdIBSqwELO5PukxkLBrQOKZlU6QMqUZB1QA8UekANVkNZaKfUuFUceWHDMxH2l1cv/tVw2ESmUDlCFHMhrSRT6ytXbm+W8JmJjoZADLqXQCnsDVPKIG9zIOQMUAFC6msrNErec2GIroSYqiNoN5FBABnl1kXKyAFcAIFAa8uoxgF0PUCdRDGJbSNlSsAVnAOoksjAIjbIvIoCSybDPU0aFyxSSBXjQ1VrpWi3AIbHkoYM8BdCkKo220tLIsgzQEJ1NK3RJmkrMCid3AMalRBFUWl0qvc4olzJoag3aVrpQAXXQtKahgSA1ahsg8xZFlVa19haAZEPJ56oFoAmhPW3UWINOCBBay8/SGpHgjy2aSFA/SBuCM2owbtE4DAgoAnFIq8dSmQaXPAkKuix0nMPqHfJnAKLrjonBUQSTOijVDFsZ7gJJrFQWpTdaT6SR+QYoFEFPF9+oNlsFBEwg9ViMS6q2IAb9XuzFOGs/ABEoTLUvXPZwAmXX/r6tWEIM6pA06z2XokAR0MLFfrDrappBWkWHbJ8liVj5NOt9DPoG7caqS0Zb3R0h4/a92bpeUANR7A3orgyIwXZeJTh9eNij4fY2bKwBNj83St7STwLUiIfkt31g5Xg1qW9itpLI1A8EbjKwTAVLTobjQ9rC+HGcAdGC9R2vtMneIRm3otUrbiRabvXP3VDvHteHj8vwy/5wmO7S8//t5VlfTRdvefwL);lineShape=1;" parent="1" vertex="1">
                    <mxGeometry x="386.23754763301775" y="647.2510006577992" width="32.924036624673136" height="39.8989822527592" as="geometry"/>
                </mxCell>
                <mxCell id="73" value="" style="shape=stencil(rVjZbttADPwavRLce/c5Tf8jQJzaqGsHjtPj70tVWNXkQuMG6JujzKx4DcnVFB7e9k+vu8nz2/Vy/rr7cXi+7qfwafL+cNrvLoer/JrC4xQeXs6X3ZfL+f30vPz9+jQj51/fzt/nE34uPEeRZ5LnX/2Bz38efF7gx8PpBp6JnYG3tA1vFLOCM0W/DXeBYjR4ZoAv1Oz5FZzv5fxgzY8A3ygkhfdUQHRColINPoLwRGfxjjLwNxYqzsazbOOT+GvxXAG+EScbT4DPkbK2PxADe3KjWhQ+UwHxL7Gnc42PJCwAgiSsaUIl37YJNVDWBC/vBCmuhZIOUXDkQIyaszENGSatxa6RToiePKjqVvt5KyGTQ6qs1HTaYiXnAKFZ3STf47ZFKNokKa0IKlsIzVSGBBqUxkzQiSsZdi4hVN1bqlQvilLrBnSCpBJ1FyE4rbZWiJEPlbIhNKgHIXC1BOiDBNEQcm85WwSXrdMRKE7OM5KWsDqUBzFA11KRronCmm0tSWkwqtZsaylV2DXE6aDzIOUdUB6KNUk6c0MmrV3oVqJY06bzyRugpqXz6UGemBpWnOndaY3bpuK0SdL+UeIcr9N7TXXoA3XzFToR9c5+IU7ocq3yBGvU68y1RAmVa7UjepY51qjXJt3E4X8xIrHWUMNzsbFdHGTwRTQXC/lBpaj+6rBaZdyPZVQ7U38yhIBJsgyYXCcH52IehpCIzoOwzuuM9kEmL6rweV/SIyIybK/zQuYtIdzZ+PT2IDsjKj/5d3XWhwrCKjtr1SKNES6h41IsYWXwhnHrFgJqTeNaL/sJg/Ie7w1CqB+5lwgeTbnh2nPPA3uriusg3sBzHs4H84T7mnCTM6R/Hvx18CLD5PX5AdvPdi8Jsh+CKh0Gg5d+A/21eNel+m/2uHznfOOvw9fgIZ4FKmBIV4DZHaoBN/cPXuHvwuXH368FL4fjcfnYcPt/+3VBHi1fJsLjbw==);lineShape=1;" parent="1" vertex="1">
                    <mxGeometry x="566.4077370960913" y="674.136169874424" width="105.48062434711187" height="6.403267881637021" as="geometry"/>
                </mxCell>
                <mxCell id="74" value="" style="shape=stencil(7VhdT1sxDP01fbWSOE7sZ8b+BxJlVGMUFdjHv5+7KqXxbQ+atJdJvF0uPr12fHzseMVXz/c3T+tVSc8vu+3X9Y/N7cv9ij+tStk83q93mxd/WvH1iq/utrv1l9329fH28PfTzd5y//Rt+33/Cz8PODaqvEeV9OvwplKVPy8+H+wfNo+n9o2KTfYlU0oAwNRnABfqCgCZSpo9qmTApaLUygSQTgxcKkI6x9yMGgMAU6kTQBNxBYBE2maAkpXLgGxUZAJYJQVBZx2nfgQ06h0AOtU5BuvUMwA0kvmUTElA0FmI8wzwqFDQPEI8AUCXSsyDAwwFnUj6BMgpQbp6mnjhkl2277F83J5B3hpliYeKQhbKM5E8awb8r4ukNTJQbZWKRnt0PnXBIqEE/E/UQuV0EvD7ifLMIc3EwP8Uy6ALFUQhklmNGsP8GuWgLZUSKoJFmUmiCoqAheoccT1y6jwj3AGNgAIALm41CGqjijjtFJ6DdgVOgNQOSHOZ1TLenK8yP5MA8MQDl7SQzjGwqz7ghbrGzzGwyx0qfBu8OQEgjbcS244DGgIINYsxCIjBpSFZPCVEPtceCdTIpOBYT9TwiOChgJc+EUS+ChnyqUcJrrjveOOzEITTqwFAjtxwAOqd3ou5RYAh9rnGcQRUxO8SZb4qJJMXRPyCt3MgG11JwylV3Kg0Dj1eox245EWtC/ahwc2VOvROHy4z4JK6x3MevIIMZNoTlxYA1B2cGrIoapQ4J18PRa1jHL1Eb9YYNGpw+5kosDWP2e8SINYDvwdogd4yhvZ/A/AenmZ6i2C2lpg4UThxCw9uHgE2JpXzbVSHMp4AMhrRe5ysWsLTqsWgm8BRbz9AzwXkswkjNfaeNUuleqMGQX9cAj4uAf/DJUBHdz29BOAU51A5fqBALpx1YSZu3u7QFxZTiTTMa2dA6OiVMjjTsphKOMMhozC12SW/3CAVXq4xGI7Ee9qF1Q0Ubbe3uZQ9JKyoFupszK/n7W1saYZ9gqzgFONNUOG5jE3Wmz3cVNU4bifov9/cWvx9eNPrccZLcK/lLS3IRB4MuWRvs30ZOnDe3kY3euMPmo3+elX4rr0/vO0l7zYPD4e15un/4x7TXx12oHz9Gw==);lineShape=1;" parent="1" vertex="1">
                    <mxGeometry x="570.1914738245596" y="691.6078621943177" width="24.78779316626901" height="41.61953104044824" as="geometry"/>
                </mxCell>
                <mxCell id="75" value="" style="shape=stencil(lVfLctswDPwaXTEkwRfOafofmYlTa+raGcdtk78vVA1VgZJ3mpsiY0UAuwsiAz+8HZ9eD0Nwb7fr5fvh9/h8Ow78ZQhhPB8P1/GmTwM/Dvzwcrkevl0vP8/P89+vT1Pk9PTj8mv6wvuM886RcxMsuI/5VaSY/774OgNO43kFkEjexgf9AgBUISkGwI5SBIBE7G1GjmoCAE2gGkDyFOU+oMSWQAPkQDHcB2StQQygBAqg6MxUkgFU39qwC0h6gi1aEokDgEKSLaDAlBKTszxIpQjaGhOV7gQhBidwpiI9oAIeQiHve4DU+wBfqHAPyAzU2n5d1VwBDUx509QCEnIUrZAkU4TxvGHZA5aZglW2MMxHyFnZSaAM6tWGui4hTxUcEDJx6AHIayqK7QkJy67XaSAH5kUK7XsrgAA3q3V6liNkQc1Zu5RSI34fUEm6lDJVlFLsB4wK1QEeonp3Yx2oJGnjZAUoyM2qVVvD6q7Y14bbGRgFaMMH8hs7ezTD2vxZdckjeZOvPQ0CxsXmLlSeE8jns/HKqTWP3gow/0TBAoqnjOypN6WVRfbQC1NLbQnJwRGsI6ZaDuIilH0d6T5hSVZleZASL5wuwpNW1T1AZ55IAehUE+5WGIaqi8s4WVYe8kDWsfRT28MO6QAT2yEHSdZx1A0812Syv4zovRy7eOTjslnxNB64ZhKxdPEM+KqFUh9f0SUe+mmKb5DJ5Lbe0CS4H69rjY1nuA1+emf+D4A+/FvRX8bTad7w17/3K72+mv8d4Mc/);lineShape=1;" parent="1" vertex="1">
                    <mxGeometry x="589.3964913867917" y="693.9139040276057" width="5.876069864728379" height="41.2631051043968" as="geometry"/>
                </mxCell>
                <mxCell id="76" value="" style="shape=stencil(fZbdcgIhDIWfZm8zQAg/17Z9j85U606tdqz9e/tmZ0c0uJ47xP0I5JwEBl59bp8/1kNwn6fj4W39M76ctgM/DCGM++36OJ50NPDjwKvN4bh+PR6+9i/z74/n6ctp9H74nlb4nbmSKZeJCu5vngmZ6jzzNAO7cX8FVKEsBuBKrgKg9oAE8gkCbLeUhEoEQKSUDZDLeWYRKIl8MEDRmHwfyBrBG6Amyu4+kDxxMoB3jhwgYu7TVAsVkFcWCs4CTBEoF4RctKeOxHIf8IXYpikHikAIf+MNUW94AGSSaoAoFIE3AlOyeWU+p2E5S9yfQZcQILVuQOwZdJNoS9Ls3wA5u2XZTIHECqeJ9kDpSaauRiNVcAY1QhdBzeLBli5WazpkSsBLV25uRaqWRyFawTQzRRIQYirJzq5atkBqLfouwqUxLBepthWb10vrWZY6UOAeyKCCtDV625mm9gmUC4Wc3VLJMMIE1BsA2FW9JraVlQB7n3c9oMKhCLEvIM1zBPZ25/umNQ1tVEC2G+fFCC8g398O2hNQuQlVu752DBfA+q0ptnqO5JFmeuIuo9DY7KjY71UxdJV4EntifPWorW++R/dC4t7V3DlIB5cHx2bc7eb3yvX//QNFp+bHDT/+Aw==);lineShape=1;" parent="1" vertex="1">
                    <mxGeometry x="610.5479596980665" y="722.3753307690661" width="4.67253977211567" height="4.665236216357243" as="geometry"/>
                </mxCell>
                <mxCell id="77" value="" style="shape=stencil(7VjLbhsxDPwaX4kVKYnSOU3/I0CcxmgaB07Sx9+XW0fuivKOm1NRoLe1V7PiczjSRq6e72+ethuenl8O+8/bb7vbl/uNfNgw7x7vt4fdiz1t5HojV3f7w/bTYf/6eHv8/XQzr5yfvuy/zl/4fsRpIZlmFE8/jv/kRCX8+ufjEfCwe1wA7HUKPUBIp3VAVOLSAwpxXQeIUOIOoJEK2iFR1X6H3PY8C0iRNHaAVClm4DRT6J1OgSZgUlZS6QAxUABO69Si3gByAcA+cRyIGQACldoBgtCEnC4U+ihliqgyStv/FCQco+q/L5QTDlHqPYb2qBD36wMJqAq1oukjOlFG36+UxK1/c+js+mLhTm49ik/JlPx6RusrFXbr34rw7PrKlIuLTwLxr9G3mX0Afd/s9/ktoKKrkrgmIwb1WaWxwsn+SAEk2Bx2CTMPBGSshlZgJw8E8kS1iulDFK1nQM4MUPumNCZShT6EPmlW5hWZZHydO0BJrY/OA6yM+h3sE4gnZkDvtGU+orAW0t4kS70ik3IjhhOgUMGloc6kimt18pkO08XurNFvUQH/Wvtr8ADEXyW0sC+8TpiQWH1cBY2E4idtPY3SNUB1PkRKoKfLROJMEhKQiMJD5hgDrJpdHkLjtTWadHpkbnNUTDwkznZARJZIy+ADbogwRgkBTtW8yEMG1bqo5mWqEVlWPz3nYkItpBSHJk2g+sxk7bnvQkNY2B2VzS2HaqPQ5Cbcpa6OXrddIA5r0jI0KaJXa1Id4qog19ZznvyMXoFJ7wckzxtGbugMYFJS+p4zhY52yGU4NJhWQtoztcQuBikSY3lg/HlUIwB7KmPc1f/l8N+Xw9Gt/+flMCLg98phi7+Tw1biSHvWVu/LDsAjYeozLIxNUp/iiJtyVug9m85HdZAEm/6hT7IxB7pcmLmuj6r1BeJrI5bQO22Uj5yOtb1esKkCgAwHc1OjDEwKw+C0WkdngNCE6eIIkMH6QSuoUQuQhcHy7Og9NHV8PkbsB4jlWUCtpuLJK3FL5Bp7uVo1AFIjcwjVmwQF0sBfKV2ShdkNhIz7Tb08T4opY5j8dppkxEnFj1mbyxkrVel3sDk64aObOyZZQwmmVVfc2bQFCqsZMFAAGmymCv0OqZ3C10iGHSA3xbQmCp2KnAGoWt97C/sHAHv4fel7t3t4ON4ZL9/7S2L763jBLNc/AQ==);lineShape=1;" parent="1" vertex="1">
                    <mxGeometry x="627.210592694867" y="695.2596524025719" width="15.058252947487517" height="37.819234659034464" as="geometry"/>
                </mxCell>
                <mxCell id="78" value="" style="shape=stencil(7VnZbhsxDPwavxKiqPM5bf8jQJzGaBoHSXr9fSm4slfUeowARYECfnM2mpV4DDnibuTm9eH2ebvx7vXtZf9l+2N39/awkQ8b73dPD9uX3Zv+2sjHjdzc71+2n1/2357uDn8/37aV7dfX/ff2hp8HnPeUa0N59+vPk0h8ePLpAHjcPS0BTNUNAMkUEgT4cYcQKYbzAK6Uxx2SvkIAIFNNAyBHKhkAEoVxhxIoAhtY32cAiQQBAuXxSEUPWQBASOIIqCQMAEwpDIDquqNXAepVsesLCEOmPL2/xvPrI+Vs1yd3fr3YoKnBxYM8IhnTqBRK4DxMnG0EGITMTQGIFEDWOXImJYQiSDpHPPq/aARBRnhy4/qE/ROIeVyP45Uoj/ZGB2l53P3I+0oRnEcz2o8AXygiCiRbWbgQAwvUpXFMIT4GcT3lFDDm0DGI6y6N5IJZj+pKDN3AYwxIwPuTpzC6qPZqvE5J3X7MCVZWgBzNlVy2HmJgQcthbywooAo1jowx0wfo/dmGLPSQrK+v3eGn9agVVG+TLlAA56/6b8OCTqP19anXhJN/YNEt5Exr6km+vr6SN1UXkl7XW85wr6vrJHNT3dJehRq+bhFN0mlWgxirzRZQSADxayY3BqEVSxQFPdJY67S0ZOTWTGUkvooWCIhUjWjJsFrXqZ3FAstj1ThN9T0hqmmox9QoDlYLBZgOqOxICFBs+VI3MGgJraOOXlJHIzpoueDRS5osFRntu9ePgNpr4DrA2bbZKAJ6Qlb1Ou3gAYNUW/rJaHSkLN3rC7ciUmdPxXhJoBRpAGODg27VIxlxV3C2qtFi1FrqLD/n1mjkV+wC6Fzg2Bwp4FYy3VwUkIANegA/KTyk2DS9/STiPcrW0g+wFPGgaqxQlKEo1x1MP9QOhiRPmWV8ooTiEG1HUYoGdCTpsnFBIFjINDdHLy2a0noylS6jFlsgKanpWqc6gwKRg80+dRNSw8og07M0EB7VGU1Xw1HuoflLgGDVqvotIUCcxEzGXprvDAkSIh8vvYu7P6MdJkLIxbLhRxv8hfxmW8k498v9VRJvrpL4P5XEelUtFoAUrnYSPw3+0ISqdXTDtNqHXOu322gTW1U6CkSMtszrkZBbQ+gqZ2G0AwBV/TLmEgsxGlJxv18fd/CwvKiJJnDiIf0buwydpdfxdYAeYAREoYLHJGGMdNKKgQYxxWq3U7e7zlP/4Tx10vTXeepy/fvmqWznoxmPI8XmtIojJFIjJTMAYHwtpDyeR1KfoK8XbHt19hfuR/2rzKJywb5p43v6cHOmbdrrFFfcZ7lXzkUTrOBEbYI8ATwCaD8w406sLbRwGRI3ADK62Ilte4I+NU1TG30iiJbqddMEHUVgg4bVEKF9okM7TA3EC7z8v/8b4WWA/jh9krzfPT4evmgu/28/Yeqjw+dP+fgb);lineShape=1;" parent="1" vertex="1">
                    <mxGeometry x="592.1281623368807" y="619.9972197734708" width="29.41563912865695" height="31.024311107779113" as="geometry"/>
                </mxCell>
                <mxCell id="84" value="" style="shape=stencil(rVfZbttADPwavRK75J7PafofAeLURl07cJwef1+qglSRtiYo0DdZ5iyv4XA1yMPb/ul1N3B4u17OX3c/Ds/X/SCfBubDab+7HK76NMjjIA8v58vuy+X8fnqefr8+jZbj07fz9/GEnxMuUAgjiMOv6UWLlMufN58n++PhtLKPlKx96cRh274SF2OfGsUMzq+UsgFwn13eBUgkbgYQhaJsA1KlnCyASt+2HxO09kvN7tq3SrXb85ly2wb0QikagDD0EMNN13KCiN6IbVVbow7arDFVW9XO1CsACHW2gEICGt36fN4CaFSBh5ZJbB96hzm0QDl6QAWdrsWXVUMSRG4mdjlkKoB7yqUafVkDSLo0Km4+K3VAJvUQbJWa4KSjT7pqWUHjavJJa90aAjTKzkOiBqqkETu2KiCApJXMQTygonlgEvE5lAgA2TdOqwQBlVrwfUA6plRLN53OaOJUKd08YCHTHIIjn44UA0AkcSKghQYeWrkRgYXw9wFM0Ya00rb7ZNKsxcfUEwAIiZVjFaaCAMHLsWqboKFuN63uJHioqy2Talv8nwAdalfXUj/MwXrQNckopIU6q6WVAJmyttqSibHep0DF6kxSqQIe9CbQrGzkDGWDM3VLDa1bBvzmdLNGde0BfrPMI7wAClQB1o1i6a3aVlAOYd5QC1sDFCa9YHUHYFilqFSzVzidh4A8sK/SOEBgQXRPpdEB4t58Q11lEEEGab4PrkpUQTzsE9YeoAWnpzn7Mm/tDXu3rZpGCIj9r3f0j+314e8HwcvheJy+J9b/+w8IfTV9fMjjbw==);lineShape=1;" parent="1" vertex="1">
                    <mxGeometry x="462.00818261497585" y="640.5137070234307" width="18.2447627057893" height="20.966228950236314" as="geometry"/>
                </mxCell>
                <mxCell id="85" value="" style="shape=stencil(lVbZctswDPwavWJI8AKf0/Q/MhOn1tS1M457/X2haugGsLXTvOnYlQhgd8kpPbztn153E4e3y/n0dfdzfr7sp/RpYp6P+915vujVlB6n9PByOu++nE/fj8/r/evTglyuvp1+LF/4tfJ6oZwWFoff6xOu1MvfJ59XwmE+viO0RlUMISeKsk0ojXowhMpUwjYhBwrZEFonTtuE2Kh1Q+iNBPwh5rHiK6GPqu4TAqXsCdK2CZVqsXihBEpIVKLFF+IMFjTeXvGBOm/jtaW2Q1JIIsLHavGBckXryc2OTHUF1pNIbH9ahCNuFOzAqvYTrF8HJrahVWWNJpz9xGqjhAhC0ba0dtgi7VFwPUoUQA3M1O0fFu8Ba2pXm1WF8PDeFoFt0SLEiBCp2Bq61gDmrF0SK6ReSZCXb/JInQadEKmyIcSgagdFaDbceDmAJWWvbS0hoxJIXLjw+MKG11y2SBtd3vKyzVOdMvJO8PmrMkL18sj/Kx7ndaFuJ6ZGiEATH8WzatIOoGjBwGm5+nhPDU5MsyG6TVADEIxA0rDJlUAFhIWmrdOQ5lMHeN0zPR7ZTNO/FI8HI1tc6/ECTKa7kdOoShqsX/dfdoeEEfj38ULNaW5s6ffx3R9CNAYi8mS4cc2S+PgXzRFkpOVWDeI0odGEhqAbjC1au1SArj98VvsPgl78Oxq+zIfDerJ8/94fJfXRegxNj38A);lineShape=1;" parent="1" vertex="1">
                    <mxGeometry x="483.9532453059456" y="646.1367643652112" width="20.004243298349593" height="14.380992995712177" as="geometry"/>
                </mxCell>
                <mxCell id="86" value="" style="shape=stencil(lVbLbttADPwaXYl9ktxzmv5HgDi1UNcOHKdt/j5UBanmWp6iN5nmLB8z5O6QH972T6+7IYW3y/n0ffdrfL7sh/xlSGk87nfn8WJfQ34c8sPL6bz7dj69H5/n369Pk+f09eP0czrh94xLTFomVAofsyWT8B/D19n/MB6v/Eukxs4/VmK9D+BKNfgAQlzvA5pQ8BlJpZABoFFJHtBIGgQ0dQAti2UboEvGC6AFCqgGK7p5QKGCIkSK0QOENNwH6Nr1FdCI5T7AeqLcAxSkJIVSF0GpAB649UxbGwroEnPPtLUhAfGxpeR5UKYMumSAnD3AGo0A3EcQpojkbU30ESRRQDwUYi8NOyIhpgNlL28WSJz1JHYApZSg+DriJFCKUN7qa5BMXOAAaTeiShFoKQYbMJ+TZkooRFuUsAJMrqgIXpbEqr68DOE2IJF4qtu6PLeJEKo3I4eIMHGqr+GqD9tq4kVsVyEC2H3GbJO+iAoAJrbgqZv6gIZ0EwAmIis1v/uqwJSizZwH2JWCNlOl6HkwC1rfidgTbZYCeAukvqeWYYb+nbbtDm1ASObf3bmWD6Ag3uxVuPRSP80Mu3N7oVMBbGk/NbZtwOlWWvbNDIth2982du780cRMf/fnF3C+VdddtJEEaec/H1T/9rePv6+3l/FwmB9/1//3rz0zzS/F/PgJ);lineShape=1;" parent="1" vertex="1">
                    <mxGeometry x="484.5189060983167" y="646.9471138195087" width="13.132204860815364" height="14.667257074790541" as="geometry"/>
                </mxCell>
                <mxCell id="87" value="" style="shape=stencil(lVfLbhsxDPyavRKinuQ5Tf8jQJzaqGsHjtsmf18uFuuasjVBbus1Z0VyhiNpSg9v26fXzRTD2/l0/Ln5u3s+b6f0bYpxd9huTruzPU3pcUoPL8fT5sfp+PvwvPx+fZoj56dfxz/zF94XXCLRGRTDx/IiEC8vvi/h+93hKpwzheDilRqP4yMTs4u3L0gGAKXgE7JP5DoGpEbVrxCFmowBuVISB0j2Jo0BJZNGB8iJGKRUIxVfQxaKEQCUanWAEikAQCuUsgdkKqAGCRQ9b6VSRYC6NvECaKRlDNDaM10DCahBG+UOEGGXVKj4LtUCi1al7IlrgXKAAPUpNZMGkPcMaA4gkSrqkvZqFVMr0JIVLcUP3GUER21tPiV7I6iGSqUbaSVBK5RV/VcAWMONyVhKFbiMRpLkAQnXYOMifVsLsBllan4FIy6jFXgV85U0QoMppRvxMfAlK5F9l0zeCa2QKXlp2AAxmofS28w8oojpStqlxHjipLeZmikiHpTYq7UK9KVZaj6lZisA8XEI/ZZlZgi1of0EmRnCNlkR3o1n8pG+5WaC6qrHIRHdCrqSP6TaF33VhyGCv4SwrnRDp3gTakqxa6zZIVC4UZs92VKoAerqjVsKQ8c3PTffJxvrjA4DqXd8G+sKdq1c+uOGjQSDGuw0UvwKtvNm0CU77wTPXAnrPnYfEFbnupxPrNEgJY6kXq9J1gPI/RWoeRoSw62de59JAToZU/KsxYvx3I0P1LwXxwItINx8P8JzgDXU94dl1dUovpvODBkLvcEwr745iM8+n/ZJOurpynB75l6guDmxb+aFjfv67y8A2IW+eIH5NNwe/t+VXnb7/XLVuv6/v1vZq+Velh7/AQ==);lineShape=1;" parent="1" vertex="1">
                    <mxGeometry x="452.8806889418525" y="668.9227984845103" width="52.390424255426296" height="11.060492978301227" as="geometry"/>
                </mxCell>
                <mxCell id="88" value="" style="shape=stencil(rVfbbtswDP0avxKSSN2eu+4/CjRdgmVJkaa7/P3oefIs2j7DgL05Nk/IQx5S1MAPb8en18MQ3Nv9dv18+HZ6vh8H/jCEcLocD7fTXZ8Gfhz44eV6O3y6Xd8vz9Pv16fRcnz6cv06/sP3CecruTyigvsxvSmRvPx683ECnE+XJcBRDR0gF5K8D3DkXGefAoWC7KW3l0DFw4CMg6AMACAIxR6gf5FBRCLEqQOofdq3T4V8MPa/Q9y0L5lq7AMSmNKaKPYADlQZ5WiVpMjkKnBRKfUuNMoESNRCriddAzlQhiqUDSBSRqxdi3gGqPIAhyKUfA+oVABAlVzyCgA4ZCaJNqQAOKg0qljSEgBAc2JIe4rIg4p1VTiPPEgT8wwIFMEESIlqsRMgoLS6VtcZIFSAh6yk+yxlHFLxxMaDpwRIa07M2FMPAclbP0fLAQKSrUPOsNKqnGrqoJVGgGqlUVJjtefBVFpbKqIhEKka8QlMq2ozm37Ircu365BaBy86LoJZXFZaWsy2PTH5Xq51bsI9ubIZG6mdGHsNkUxeA/SgLZe4r1yhhAHSz0qdbS7+X4AZTDFSQYdcIOnTKg6eKDFT6UPSc5rBoSUrD8zkgQd2VHr1ibYc4MCeal/ppB5ASFzbuTw3tWvq2ubgSXoPOmcY1EFJp9WcKShL3Jad5ZwBU0A92HnvIGnlYNUaoFo1S7kvnIoPaYkzsVHr3FLbALFL4rhDoZA8ebPmlsZqe0nM7YRaAkBax62yWoAD0gjebidKugDAv6/qfwfow5+bwcvpfJ4uFsvv9iahr6ZbCD/+BA==);lineShape=1;" parent="1" vertex="1">
                    <mxGeometry x="465.10659360715846" y="688.635337434422" width="16.10140481852386" height="20.119739279116175" as="geometry"/>
                </mxCell>
                <mxCell id="89" value="" style="shape=stencil(lVbZUhsxEPyafe2SNDqfCfkPqrDxVhybMk4Cf88sW7tYUtzgtz26pek5Whrk7mX38LwZnHk5n46/Nv/Gx/NukB+Dc+NhtzmNZ30a5H6Qu+3xtHk6Hf8cHuf354cJOT39Pv6dVnidedaglInlzNv8xSPFjw8/Z/x+PFzgxcDW+AAh+OCQaryDyHV8Ti3ewJjr+GIR2/WjI/jQxq8ZcGyDhGLrDSyKJ4SCkCqCREQi2ZpV4ppTzZqlW9hQEWJGYIQEW4vIWoZECB6mTlNxyEy1gXc1ISOzQkf4WBMKFa0Rx1q01lLydUIqy+9VdISQUqeIUhOSwJOQUkCqRYcMw0LqCF6b6aaQXFza65uirSwT8s20ejpAU93q9tb5Iev3jWFheefZehi0d4nB9K1tEyKfz2Z4xCKQGvxnPn2C8PlsLCAKhCWpM5mkjcSy1NlYLsgspM4ndU8W0mTETSMZbsW9dX/F6A8HDSoS2f3po+3Cit0fb5o5RwgZ4mu8oBAbC4srrniVzM7PdtqyIBO8RW4sSS2EpNQs6Vg7L8IQvf3RE+DDDXjvEej6TTyi+bxFr9oR8+wunzbCknj6etHDvGuHSMfy1tvU13h9+Ly6bcf9fr75Xf5vr3r6ab4myv07);lineShape=1;" parent="1" vertex="1">
                    <mxGeometry x="520.1430873843906" y="668.1289165013669" width="18.815438913349453" height="4.602240239453749" as="geometry"/>
                </mxCell>
                <mxCell id="90" value="" style="shape=stencil(rVbRchshDPyae9UgBAKe0/Q/MhM7vqlrZxynSf4+utzgmsPeOjN9O+MVSNrVwiB3L5uH59Xg3cvxsP+1ehsfj5tBfgzej7vN6jAe7WuQ+0Hu1vvD6umwf909zr+fHybk9PV7/2fa4X2OY0cSpijvPuaVSKxfCz9n/HbcneG9klvipVzHh0Q5Nnih6dc1vGo9vuKZHMgnZwquwTty7jq+eGJu8J4U5FMiBWnzceTRAZmcbw9gKgEEFIql7ZCSyvUAdqcSTxx4SgyP4PYIzRRRQCLfspY9SQIBoaqgBlijM6raUWlrsMZlUHVOxK3wrCpUdBaKLRHGpWQQ4Ci00shKAqhOeZlSkrrF5QCtSjgRZ2oBKfUBgWvfbkzJBjYC4vqiWUjBQPdtDXCAJt5aKdn8gP17YTDxt5SXoIFN0l4YTCLF87kYHmGKgIML82kuKHg+FxagAl11MpmWNSPeoS51NpYLZZRS55PWOJRSb8RnffhPEf3lYI1A3trfPkUpgYHrrzfTl4I+9fenBSDj6zOygQL4WLV2RhyyPemItv3BPDCl1CrJpAKU5EjbfDRCR+rvqlhpvw0fQh2O2/KRQIymc1mv+VcE/tX1k7Wu3MYXY7/r9GDbI7q++V77N94+/j4O1+N2O78tz/9fPiZtaX6Iyv0n);lineShape=1;" parent="1" vertex="1">
                    <mxGeometry x="518.4510218416153" y="675.2050944415311" width="20.874574192794626" height="4.849847738031713" as="geometry"/>
                </mxCell>
                <mxCell id="91" value="" style="shape=stencil(lVfLctswDPwaXTEkQfBxTtP/yEyc2lPXzjhOH39fqKrkAIo2k5ssYQkQ2AXgge9e9g/PuyGFl+vl/H336/B43Q/8ZUjpcNrvLoerPg18P/Dd0/my+3Y5v54ep9/PD6Pl+PTj/HM84feEy8R5BKXwZ3oRKLV/L75O5sfD6Y15FGI29lEBaRuQhKpYQKMCAFyIkwGkQoW3Abn6K3CmUrcBsgQwAzJTCtuA0ik3A5BIBQBapNQNoATqfRvQqwfURIwAzWepMvbQKRYLKNQEAlzhWqCCqBEChWARQgEUQl10B+gkGJBtTJ2p4DTVaAGVAmCffna3Vp+IG73MXLsJYsnD+wgh6d7Ffwa/D1A6ry7ByANTs4rQI2AhmNiSo+sdIgQk2wa01AJEqoBsQ1KNROyhO0VUXIhMzSkiz0Fu1aHZO6jmMiJTob4CRJTWurqDJhpdulG3la7aPoHmlDmOS7XPjWFTck7VTII9dMvv1ijgRlMc+T5sZS5Lmmio0SWABYBHyqh5F1KnhkIS6itARR4+C9BeGl1asYBK81NO+3cFXJJKYgF6hABALpRsSDq0GuhLLBStB2E4FnXZcHNUfaJWGdmTj1VSBXjwAyWpQMCQS3NbXOwbZVC26Lcf3U0EXCDMJFjseVb4hn2yCRpPAEQNntixwlGymtCa4Qrtox9ulGD8YrtLgeXSEWDDybCfRmquupA9aSbjbbVFnU4nVHXm6PRPLs4fmuvDbUd/OhyP04r/9rvf6fXV9H+A7/8C);lineShape=1;" parent="1" vertex="1">
                    <mxGeometry x="315.74406395013864" y="845.9305506128254" width="43.79763011937598" height="10.655240884395425" as="geometry"/>
                </mxCell>
                <mxCell id="92" value="" style="shape=stencil(lVfZbttADPwavxLk3vucpv8RIE5t1LUDx+nx96VrrGJS0hR5UxyOdnnMDLWJD2+7p9ftJvDb5Xz6vv21f77sNvHLJoT9cbc97y/6tImPm/jwcjpvv51P78fn29+vT9fI69OP08/rG37fcCJU6hUV+M/tF6bK/374eos/7I938SFTzya+Ugrr8bFQjSZeArWyDkiVcrCARh0AcqNob6R3RCmUToENIEYKIIfaSWwOian1dUCr1MQCGnFaB/REtRhATpQaAHSqyQCKEOd1gDAT26xLG61fu1Nznc4Q0ApxN4AmFCKoq/bJntAyJXBCSSTNAjoxAGShZE/ogQJoRMz+hJ4pghOULmxno1fqqEoktkjayg6mVfnWZvGADtF3TePRJIUxmFN8GwRcjGfPZ81XwH20PsUXNON4Vx/NCNRTmejuox0G3Aye/J1hv9Ls/gyJVvz7dUQLqGejJD6+ggkVpjS7UAQJq96KFdQulMHESRysvSspGjkFOA9R7SgCAck1QcsGmqA5JDellSpKWsfC0UZdBEk2dduGq8KCnNXWnEt9COzKHOU0OwAZLRX2CSDPERL2FSpgTnnGg0ICejazD+1xAuLOlF1B1ffR1FFxvBcovPMRUhpAHU12Rhuu/2fjpVCzDW5tSMdyAjKWjjv3E6RExZf06q+gxboZuR7XNtR1eaibp1lNQ16XWRN8F/QVEBCHkkwAHoa1vCM076+6GVWkv5OdTruXSgVaKtgvnGma3eWyTgZwtz8mMBpRHcDmoPLRQZVCp2jVS+nBwESkD0+d5CjDpNNQz4k9g35rZHN7F3XgUTO1rtg//EpR4AyJd8w8pHIt3N49je+FlfBu7x5JQHgYZZ46hUlP3dkGXJ5097Spqvkj/nrT42EKK56XowtHDqaeKsXFBxT/yU/L/8frw8d37Mv+cLh9Bt//33/36k+3b+b4+Bc=);lineShape=1;" parent="1" vertex="1">
                    <mxGeometry x="351.81972030760096" y="840.0000031291553" width="28.058997725115887" height="36.952980296022815" as="geometry"/>
                </mxCell>
                <mxCell id="93" value="" style="shape=stencil(lVjZctswDPwav2JIgAf4nKb/kZk4jadunHHc6+8L1SNFBKN1++Y4WhPHYrHUTu7enh9e9zsOb5fz6ev+5+Hx8ryTTzvmw8vz/ny42Ked3O/k7ul03n85n76/PF7/fn2Ynpw+fTv9mH7h1xXXEnGcUBx+X7+JlYT/fvP5CjgeXtYApig9IJLWbYBmCv0JjbhtP1+VKvcHBMogohqGFIQCiCg3aqkHKMW0DUhKJXQAziRhGyCVQg8QoQqStt/TPqQkFOM2IBYq2gGyART0jUp/QMFFKsS5e77GuQgfF5W49M9bHwuKR3saaYG8i2lObwG0ucgfl9RoUXveBWrgBK5zQRaAMRsAxEIaABXxiCkkD0igSNlySD6HAE7IAy3UsgK0yNXzwvqgKCSl3IYTMpy2lD2gAGqX4BVGlRIYHgNkd0Kbg9wClOLLqjik5AA8q9qmxPR9aDZuqKxt6LRAWbU+SJ+0SbkI7LSoBySUQ/GNM0BEEpA9lyyHhELKwzwwnofkd4MNEBLiCeCWT8DzMGwrI19DVcofzENDSRffBwPwjca5kGxEAb2NGqwe0JBqtEFbF7Js0nsY0Yi2iQ2Qk5k2b+1/H9EEOj2JgAPYwgLqPcmMU2+mivpgouK4JFQQQIcczG2BkP4fECk6QKUEALaBuGdraySAGrbjnA8wANoPPNA7hgAXdRw2SlNIVzOcwalAmXf9hjeRQTUUrKw4TGimCjII3u3VCn3AYisWL7Z43g0vFvppMyqilRsX2V3cpNUYeSXxqmcOVpHBTV6TWKGdTGWOeKGF5YBEzExCP57WdgZFtRom54jh7NTB+UTK+B6j/axhWk8cc9cSEmSI1bNaYTw2h7WPxywyoxuAibaraIaivRrcBVFg0961YQVoGOCsm10/FWhqW1izurtlMAtWVqfaRjzkYkxB3VXMAAk1olJkD0Cbx9RKmgfAHBb5WQGQ4BkgqK9SRdxIM9fWV2Kwn6fF5EK68d7g9osG+/D+muLpcDxe33Ks/+9fa9hX11cicv8H);lineShape=1;" parent="1" vertex="1">
                    <mxGeometry x="427.15499650660774" y="846.2391730557416" width="55.035686483246764" height="43.54625747802993" as="geometry"/>
                </mxCell>
                <mxCell id="94" value="" style="shape=stencil(lVfZUhtBDPwav6pGo7n0TMh/UIUJrhBMGXL9fbRxjbFkbye8rXenratb0mzk5vXx7mW7yen17bD/uv25u3973MinTc6758ftYfdmTxu53cjNw/6w/XLYf3++P/5+uVtOLk/f9j+Wf/h1xI1GqS6onH4f33Cjnv+++XwEPO2ezwBNqbEHFOpjHVArleIBg3pbB5RGPBwgF2LgklRqHiBMAlzKlYZ3qSRKfR3AnUbyAKUBLLCQeEBVKghQSLID9EwKspTNJfEASwOIQQal5gFCigqXYh16oqaAGpmST2tr1Mo6wBwIFuwvBq8DBlNuMa09rQO0EgeXmIoAgJKqD9roCOqgQsMDRqKCAI2yr7RF1QC9dcQYhlBDFjQqzlQuoHCcjP6erkOporxa2n3b0DxFuBZE91FbaRqy0CkFQCdFlSs0AkBxITKJJ9NZHq7TT2OtzURFfO1TkifAmBq5DqikJaapI4BF3WMhRoWA6jVnUaG+YS6lQPBGFbnUYl6Nrx3QbwzKnkymCKjqRNUHvWgOWDCRht5ngIwAdXbrM5fQDDJy1mAhT7KsKSgFC2YTWbDOFDQ6ps5XAUEQDNuxATiIumBRG70DoFNGFirVCwElwFYrHF8AYBc4jagzACKfAXr6CGBc9BmbEBUAls+erV1nR78+Ry1LfrQPrOkqk5snQCcBFkTnADmjRgEWbGPqoc0ItMAXo90SzSBLErlnCu2gtV5MrCVrKALqPqeVp4fXeRHbpO1PqE2yUvZ7sW1oFRiQFLue7cUZdL3CkXic4Aitee53p5inj9eJmiKN/jEO29zj388XdN7iG+F8R6NKo5YZltgYFjpkhhcN4/zw/pe5ta8tDDVwbo7GtfM9tHhKqHfl2IoYF8AAkUIMryWLysPKI7M5raVUvO7toqJoW9A4ae0+CUnU40hg3E4/fGP9D4A9vF+QH3ZPT8f79fn3eKG2V8fLuNz+AQ==);lineShape=1;" parent="1" vertex="1">
                    <mxGeometry x="462.5819576347036" y="865.5091672954169" width="30.030244430413177" height="23.481037874152207" as="geometry"/>
                </mxCell>
                <mxCell id="95" value="" style="shape=stencil(lVfLctswDPwaXTEESILkOU3/IzNxak1dO+M4ffx9oWpUm5C1bW60jBUILLCAhvjwtn963Q0S3i7n09fdj/H5sh/ip0FkPO535/FipyE+DvHh5XTefTmf3o/P8+/Xp8lyOn07fZ/e8HPGcQgUwgST8Gt+FCmkPw8+z4DDeLwB1EpcOnsupLINKJWk9g4iJQUAodh7SIkC8KDqATmTBgAIlLgDaKFYtwE5Ue4BNVADMWSmFjtAMwDyECm3HmBXagAgFLQHWKIBcalQLR7QgIfElNyVGuWyDTBes3pAA8RJ8lm6Kce7CNY7d6oA0Iijt48gS3Gp5ZskKeAtUE6etgrtJXh7VNtCmnt7Xd5wv3lIXbyZMkpoWgWcYFXYjWr1gBJBRplyXgEQBY2K+BgC8JB0RUJeKnGrO6Wtsoq7M7mgCzHD7vTNVqBgpLaKoVLJABCpuiw1SoDpaCq5AlSQVqsl5+Gf3dlI1i5AMTF7IZ4kBrRDJmGfJaQwRvRK8xjQsBqGkwoDnj9qH6k4+7AUyka8tS9UmzsF3N8SKn3/22RjUEaToPYZtdkZgQdLqSsjq8QCesdiKP1UsDnBeIxo3wq2YcDJJl70ZHnDVuu0XpFsWoMLmb5UdfZohpi8cM+akYzEQkm9PRr9+ndDu9oz2o+aFyPcxkUXQm/sQQ3VuCxPV3sBJVSb3wgD3CBtXrghzlB8rQfV81XQjtD8kBXYAh/emf8DYIfriv4yHg7zhn/7v1/p7dH8ORAffwM=);lineShape=1;" parent="1" vertex="1">
                    <mxGeometry x="499.1491250988403" y="844.3973547852503" width="5.3016580222229095" height="53.59737428588005" as="geometry"/>
                </mxCell>
                <mxCell id="96" value="" style="shape=stencil(lZfLctswDEW/RlsMHyBArtP0PzITp/bUtTOO08ffF6qGqgnbt81OlnxEARcXIKf88LZ9et1MKbydT8evmx+75/N2yp+mlHaH7ea0O9vVlB+n/PByPG2+nI7vh+fl9+vT/M/56tvx+/yGnwtXhUKbqRR+LXcSU01/7nxegP3ucAFoIgkDECsEChPLCBQq+T6QK3EegUYRAKlQGldIjaQBIFAcAS5UBQDS39cBSZTLfYAzpTIAqhRRliwnOgA1UapAh0DBAYUYC1fjCAhxAEChMCpdKwWgg9r7eACaJZoh0EYdWqKCPkn64xWwakVZKr1yVkApRJilVkegkmAdkgMaKVhBlPKoQwyhZ/o2wZTVL1HQEpG0+SAyWKE0qi5NpiWIulRvCBMiAQcZwA6IVBV+kjN1taCB5SRQc/WtGDCPOgdJ99RtQCg6QxToUWm+uc4A+CSN1NgDDXQy5d6GLoKGXcBCvEor7AJC9Uo4xYA6U3PP2z2PinOQUEZtI5M6P1SKKEuRUvIGYlQa1XvUAKSDFMpXKyjwwwzkjwAsPesrYDMLxGAzMLriq7BabY67XqkNprX6CWRpE6Bb8vYpAjcCwc+feaqCAKx1j//PAWao3dpnoAQ1L3IMsK3m6Id67o35tsbsFQgkqKmqj+Afg8QidqMHTs8auz6rYiSgQVpFxrEbxQhbsBm9jTUabXsJJpsZnceMRoYhz0Z3K1gMoOguhvFKaE/bvSXcLsYKJYElDMhjwzPdUHexqJPbpNs+CQHWLEYhrPIa+iTu+9+LY0ADXraNmo5esNoooFZtK8jFAwpqY+5WwQOM2tFHjzL/AdjF35PTy26/Xw5el8/9SctuLae0/Pgb);lineShape=1;" parent="1" vertex="1">
                    <mxGeometry x="509.7526321417603" y="871.2189199191049" width="22.486953071268772" height="28.049898938187653" as="geometry"/>
                </mxCell>
                <mxCell id="97" value="" style="shape=stencil(lVfLctswDPwaXTEEwec5Tf8jM3FqT1074zht8/eBqqFsQtJ2cpMlrEkssAtykIe3/dPrbvDu7Xo5/9z9OTxf94N8G7w/nPa7y+GqT4M8DvLwcr7sflzO76fn6ffr0xg5Pv06/x7/4e+E855SGlHefUxvMsX678X3Kf54ON3Fc6Xou3ifiMs2wDuKsQMEJg9W0B2VfoXoKCcAiJT7FRKTAyuIIyd9zrpC2AbojgN3gOIp8zYgFkoG4CiBLaVMhe2WomwDspDv6xaFCsghB7tCEBJQOAX4HiBamQgATNwDvLTarwMcVdNL+iYDgCfXA7hQALSOOeQekEhAL+VMoaeVZ95WAUWbOViAQ4BoaR0BoNKlNE7utwRYqp7Y26QDqEMNJGJpTQ4AYiNxLpzWHgOWrZFQDmIFpDbjEIAb6zOgtGZZp3X2uRlQSYCAilB2FoDqkKv1JQVEBFAnjTaHgADSnPSOpYQ0za0RZoDWHgnINVO5q3RBvsQUTXtXaPeag/FWzlBAypIYgEoK2UylupAogy1ppUtPKwtVJNFMeSHRiPSgckk2B+Stqoe8YAnZ/ag4I1HXnGoTEL8EKJZWnQ9Ioux07vYKCgFOdl0i9bxGfNio+rl3Mh2sASXhrLnmApPQ3jA5jEaCNWrcWO2W0WEjL2bWjbj184x2Z9+vVbMG/armKwbAbe6tly42H5qzFnieqYvjjE5isKPYbGuum1obSrlZ9dwYHroMU+3VEDwcuotO1R0KmCbOnllTm18b25E+PEB/8RT6cE0ftFxoHTxvHuaarFO41k7rCmjtfguHzKvV2XjUzGq1pnVcE9B6fLJc6kkbyIsX+9eJBeL17wz5Ht9GuH2+1RbZqP5d7C1LJwG6T33xwvb/eH243Q5fDsfjdLm8/25vk/pquonK4yc=);lineShape=1;" parent="1" vertex="1">
                    <mxGeometry x="539.946809186223" y="875.8872821283031" width="18.593380678116546" height="28.62046022702816" as="geometry"/>
                </mxCell>
                <mxCell id="98" value="" style="shape=stencil(lVfZchoxEPyafZ3SaHQ+O85/uMo4UCHgwuT6+4yyJUCzbFN+W5ZuaXruneTpY/vyvpm8+zifjt83v3ev5+0kXybvd4ft5rQ769Mkz5M8vR1Pm2+n48/D6/z7/aUh29OP4692wp+ZVyvl2lje/Z3fCEn+/+LrjN/vDjf44inlAc+VWNYJ2ZNPA8FXqn6dkDxlPxACEwNCFIqjhKhGApNCsBpSIAaiJVOOAyEHKuAGEeKRUCIVoEGYXBgINVMAJjUnjqJrIWFA0PNkJFRyERCEkreEBG7gQjVbQgVeYqEaF4S6TlCDq8XnBAJNlS3eF2AQlWB9mtw63pE35+deTSt4Ng5K2EGUg8UziEDo3rjgIwWQdRowN+LDo4BlsYQMHKQpYS0KXdNa0oVgJcAszeSrJaCYtcJh61QBJrXSNKIzMcgicRRN4ZR+xH2TykJ0gd3Cq08WiR2Ql9SkYgkFVA5HW/zsHDkUakcpLa4AHSyRdwsNqOPZsdCcBDQvJWsUwPkXeTdh9qDYPouPlMeY6UiI2KE85p0OHdThOdl2kXQyoqyIxGPIdHCiGOtYS6OG4PpUud+QdPiPJmn5wVnOFMYbtIUwaKkpURrD7ElAcabck+ZyQY/LffxlWbnikQBdd/LY412vpPt4LQNv8B4UZtG0KwaP+mMJ3dwbPAhxKX3CXPFIb+Xeqa74AM5v7VwMHrU6Lapo44X20zbhTcY9aFuLOvY9o9Yu+NTC/BivD9ft/G2338/L/e3/dpvXV/OXgDz/Aw==);lineShape=1;" parent="1" vertex="1">
                    <mxGeometry x="572.7618457871087" y="850.7536200132305" width="9.333160962750526" height="54.51468449116328" as="geometry"/>
                </mxCell>
                <mxCell id="99" value="" style="shape=stencil(rVbLbttADPwaXQkuuc9zmv5HgDi1UNcOHLdN/r5UhXW9TDRFgd5kmbNLzpAjTnr3sn943k3CL5fz6evu5/x42U/6aRKZj/vdeb7Y06T3k949nc67L+fT9+Pj+vv5YYlcnr6dfiwnvK64mqjFBSX8tr5plOvvF5/X+MN8vIlvSrEM8VIp6TYgMBPzgEhCGsAVkUIaALVRKtsA+7vKWIOSgCJqIHaATDFuA3LtpFwBlQqoOkViB2jUeBugdl72gApSkkgqPqWUgBBCUnzRAdCqVF289F75MP6dzqaLgJJNhPF860UFBWRqI0MmY2ng/OIvKJUqaAtlT2nJsOJoCasHIEozU4oekEHNxVSOvgYFjbdwyJ4lBgATVRytsY/41ngmd0MlATq0q0w3jcQAsCQw3tASTKkoheBngYHSqVFwN5jtIaW1D2MH3Pjax/NZqam/IgDbC+kd4NrAG/MQHK0R0spURlttTBGQxBRcY1ivyv+Lb/5LYt8F5Hit93GPt3mtYHaYZKzXHJChf6mzbIogfTPDkf4MzaV4dW2MQHiI1MaWFtig5tZpPD9QQF6nfWZ7PMNPpg1AFheP2j8pNR8Pzd3yby5/tCQU0zI7fipQa7H+7PivIP+qfeW4Gi8F7Lv/tEf9Pd4e/ixtT/PhsO58t//7Jc9erQui3v8C);lineShape=1;" parent="1" vertex="1">
                    <mxGeometry x="622.4461383763118" y="879.0361996847315" width="4.835640623465451" height="19.19194227390608" as="geometry"/>
                </mxCell>
                <mxCell id="100" value="" style="shape=stencil(fZbdcgIhDIWfZm8zQAg/17Z9j85U606tdqz9e/tmZ0c0uJ47xP0I5JwEBl59bp8/1kNwn6fj4W39M76ctgM/DCGM++36OJ50NPDjwKvN4bh+PR6+9i/z74/n6ctp9H74nlb4nbmSKZeJCu5vngmZ6jzzNAO7cX8FVKEsBuBKrgKg9oAE8gkCbLeUhEoEQKSUDZDLeWYRKIl8MEDRmHwfyBrBG6Amyu4+kDxxMoB3jhwgYu7TVAsVkFcWCs4CTBEoF4RctKeOxHIf8IXYpikHikAIf+MNUW94AGSSaoAoFIE3AlOyeWU+p2E5S9yfQZcQILVuQOwZdJNoS9Ls3wA5u2XZTIHECqeJ9kDpSaauRiNVcAY1QhdBzeLBli5WazpkSsBLV25uRaqWRyFawTQzRRIQYirJzq5atkBqLfouwqUxLBepthWb10vrWZY6UOAeyKCCtDV625mm9gmUC4Wc3VLJMMIE1BsA2FW9JraVlQB7n3c9oMKhCLEvIM1zBPZ25/umNQ1tVEC2G+fFCC8g398O2hNQuQlVu752DBfA+q0ptnqO5JFmeuIuo9DY7KjY71UxdJV4EntifPWorW++R/dC4t7V3DlIB5cHx2bc7eb3yvX//QNFp+bHDT/+Aw==);lineShape=1;" parent="1" vertex="1">
                    <mxGeometry x="625.5979535945509" y="867.795330769066" width="4.67253977211567" height="4.665236216357243" as="geometry"/>
                </mxCell>
                <mxCell id="101" value="" style="shape=stencil(lVfLctswDPwaXzEkwQd4TtP/yEycxtM0zjhOH39fqC4VAbJ2kpsscwVgsQSXO755fbx72e9SeD2fjt/3vw7358cdf9mldHh+3J8OZ33a8e2Obx6Op/230/Ht+f7y++VuWjk9/Tj+nL7w+4KLnaRMqBT+XN6kSLH9e/P1Ang6PC8AKVBtBsCdagKASGwjlEgJRUiULaA2CrwNaFSjXV+ogACxUOwGkJl6gDVnC+BITQCgUhbLaqAQtwHMlCwgBoogQk4kyUagVrbXl0wlmPWaECi51hH+/fsC8mmFJPoCGpCFJN+1SVmAImkjgUUTEkipJ8+pkpYrAGgNVtrKWgCkdiG2TVClImnHMLM+EFpWBn3ofUh5ALpWjXJq1G1OPVPDVScHaHD7aAL/vzcDOjFoxLpzCx6uI/LYLcsQICcJVMqqCFB1a37uTTRlAKiU4qoRaCoVanZoKA+IJo1Q2QKYKmCpCVXbCKUhdcBSpGqLVhrQHJNCbOWqSTJQn3TPkgIikmui3n1KEdTQtQ/ZAlQaSN/iB42Ongw6rVITR6vWACbTFUCnjiaTjL7OWuLRmc2i3R6t1ID4Jlrd2BB4xGnG7kzUqjqIoNJIzQPgwI9e3poSmt+TvG2ndVQ1MATWG6jPVuKjW1SGu/kEANWQR8azWuOYVNfP3T6+t3BLEfShJgpWfOolkLz1THPSUIcmIEJem5k+PnEdoBlbtWY1UADA1QNKgiZUT362KVUendkyoc0CVF2I1kLBjaUKXa521TmBOLzBxnonVaVIgC5WviFhaYdR3dKAAoLCkMB8RDcoipXq1FQLmC883Om8Po+eb/Avtt6I/adQEL8eKUjdaV4BkEOf4mcPyIAhJSQ4SpkYtCBW79yUIwE7OQpl57lVpChCXwEER/js7fADAH14v4w+HJ6eLnfZ5f/+8qqvLhdfvv0L);lineShape=1;" parent="1" vertex="1">
                    <mxGeometry x="638.3996514271829" y="878.7749080861819" width="21.465440659485694" height="21.75622927317636" as="geometry"/>
                </mxCell>
                <mxCell id="102" value="" style="shape=stencil(lVfZbhsxDPyafSUkUQf1nKb/ESBObdS1A8e9/r7cLuRYVDRF39byzIrHjKhd+OFt//S6W4J7u17OX3c/D8/X/cKflhAOp/3ucrjq08KPCz+8nC+7L5fz99Pz9vv1aUWuT9/OP9Y3/Np4tZIPKyu439tKIid/Fz5v+OPhdI935LjDeyYPCMJUc0+oVP2cUDJJTwiFSp4TcrEELsQgpCQU+5xjoVzmhCiUY18kXQEhcSXud8i6ApIOQlI7gjgSnhO82LJW3/b8mMDtfTdCoYp2CJRdT9AgEyBoxL4nVEqAoDVki0cRZWI34EGfI7li8ajNgXy2eAfid1SKLRCyglon2w74iPDe5JvbGyZ4MfGkZtZJvmz6FWH8kYKJnylV1K/kLR6ZQAaFMvSxCq5WSxAHJV2izThh01RvSxqRB2KL+K5ncAcVqcmhwKJqSM7sIJSAqr2nOMiaQQ51SKGSAJkWG5B3qnTQhkhl3AAdjkPXKgVUosHHeuADvKMQhhaA+G/Z3fU4gh47SkbXiRj6+P/wxZ5zInDC+mzHWdECAaOpk3Nvg5zhycvJTtiUKYCQ4s2Ht5Gc4Nmb9NaROgLHVraPDyNvx5nqEE0Dndje6Do34c4uLrZvUNaip3mfs4enl5RWkXe8B7JTFcQ+YwcPijroWgcQsI1eOIwvse3XacEWD+qjqg/F4APIV10oyeAzer8MDSaP6jMKol08Z3gximu+m4yzoQFMEQdkLiCx3ZCmCRhX4rv+P/H68P5h8XI4Hrfvkvv/7YeILm0fMfz4Bw==);lineShape=1;" parent="1" vertex="1">
                    <mxGeometry x="669.5399182510513" y="855.6045676013074" width="20.51491777629053" height="44.06467738339279" as="geometry"/>
                </mxCell>
                <mxCell id="103" value="" style="shape=stencil(lVjZbttADPwavxK7yz2f0/Y/AsRpjKZxkKTX33dUY1WTtibImyzviOcMKe305vXh9nm/S+H17eX4bf/rcPf2sNNPu5QOTw/7l8Mbrnb6eac398eX/deX44+nu9Pv59vl5HL1/fhzecLvE65IiQsohT+nG5qkpn93vpzOPx6ezs7HJM0BssSxDUgqPVhAkxa2AXheUwPIeIRuAzJiKAZQgiiJoRQZzQKyJAKozWepqKS+DWj4O3qXMomhX6Z1SGwE0CTatKYqORNAkNYtoEtnMWTpNks5yIjUgnMJiY7MpSzVWqgqo2wDRpFkAS1JqgTQJNjWQGU6s9Cl2OZrdVbmOmD45kMaCgk6hiDBpgl5oFGP2f4rYEhmUQ8JNk1DpbIgwMhhAXVS5DqgSkwWwNt1gGDZAM7ycB2RRIs3oSzqINUBGpUBZFEt5+BlJC71LtnlFTEwVvcpK2vlyuyvLUB1vRElEHXtF+3XIAw8S077wPPIui95OQbnlLiEJNYLQGAWIFxWmUBS2kxdggOUaXOLEF430K5E+wAYrnAqmXN0VAtoMrgFdZRDWhkf+lS6FVCmza20upGyiBtzKc95cMa4ziqdfC8B0Ij2fRiArLs6IOhCOA21vqxDIjEszWwtNIxFopUVaXVDq1HBx0xr1sKybZBurciS25jG3D+uA8A4G3TKkhmgi1qKRqXLAwjpKJqpRwu9rCy9I/Zh+rtGIIH1dhG1/kRMXSYZTXr2KWJFAHt69UVgizFGrNOYEufGtTlNbJlrpHsAdsTkZC/Q7addLPeghxIL6Itis4RCNmIBHmcLwLxKpA5o/eL4GWiWsPu7bQlRDUJojZ49iIq9PqToKw0CskUjRr9Jl3UgXY9hyu56fp1410PwowF7dCdJXQfHmcBUwrY4w1vPY8aTtsBiZYu8vMwQKoQ5W1exaO8835U4Zzp38Hzb1hlqQdQoXLzjDjoT4tw+1vOrGGzkPzip4P6rX55V52K50T/J9gPe0dkb9Eff6d8/j4v/HxDuD4+Pp+8P5//7Dw64dfpYoZ//Ag==);lineShape=1;" parent="1" vertex="1">
                    <mxGeometry x="667.1552836370719" y="878.6319577379119" width="43.11233989665038" height="18.15493326092019" as="geometry"/>
                </mxCell>
                <mxCell id="104" value="" style="shape=stencil(rVjZbhsxDPwavxKSqPO5x38EiNMYTZMiTa+/72wNbU2ud5oCfbPXGksUh8PhHvTNl/ubz8dDCl9enp8+Hr+fbl/uD/r2kNLp8f74fHrBp4O+O+ibu6fn44fnp6+Pt+fvn2+WlcunT0/fln/4ccb1Kq0vqBR+np/EKCH9fvL+DHg4PV4AapNoAV107K/PQ3Iz64do31+vQ2K0B1IJSgBdmt0g4kncBxSVVgwgRUlkhxakZgtIkskd9ShdLaBIIUF33EkwAA2SCWBE0WoBXVKhOxR7pFykNwLAiW0eSpZMbqnjxMMAqoqya80y7LW2RAEV1EiWekE6CRoHaPZIvU26X6cGLtEGPVRKJuxWSTYPMQQJYR8Brg3LvsHpWqXaehtpVsjV9VFK8jEHEvN63HV9pP+PpNorapwXY5bKSgsIBime2GTYeq5JWiU3CoDdoeAJi6D78lwkgdEiTAVaAUGUFE+FYtgk5yadsAJ33mwt5CyByOpSng6gMhhgSEp+h0xuCTRTWzxQDCUxjDx5vAKqFJK4UXwp5C6BXOsCsNRAd6kMkH13KyA3uSUE7USs4AmJYVFuGwO4xKiBxLl6BuAv1OgbQGO62qeKXgAiEbFWJhEugo6kRJvOir+oh0aEGMJebAxIXCJBA+Az3aQStkKEiuNSlUgS19r8+aIeaAEF3xABYLah42cXg86orgO6l5llB5IHuIC8OdJgFQdR2d4SE4Ey6+siD4VkeuD/bDtBphn5RvHWZ+ESkxn11gdspaoRvANd6oEEDU/sjMlScf8TsDgjF3SnbIX0RrtDzRSgzdtotF3m6+FQu1W+VmkMMALBmSvlfbrPn1fAmHS8HjS02tYDUklnjerbLtSWAdANhjMzfabyOqD6Pr0MB8yzBi/3dW31u55101DoQFZm+7jo08zwVXRlWw+LIWJuBipkY9A0a/B6Hpr3Ghr5DFe8dUjr2HidS9lzCT45k2uN1XdRGOVOqBHzvPXV2dc5+e75Vg8IVIxRQMUNTHRIVPXDiVLdWzTDHgjnIcIKCSrBrWeTDHq0cwFhzpiv9FZpztV7zcoRW6lcoPV0fz+VzdB90z3nAa+vHxtvyCkXNqNVpaTGBl6N5iy3t96VWecJ2ExWgwaAC01W7MBo5tqQMSfYALCWAAPjxC7G6R92p5gtgLm2f32/9QoAPvx5nXZ3eng4v427/N2/fsOj86s7ffcL);lineShape=1;" parent="1" vertex="1">
                    <mxGeometry x="716.2186546261402" y="876.9151886173883" width="20.874870766250297" height="49.824219426698164" as="geometry"/>
                </mxCell>
                <mxCell id="105" value="" style="shape=stencil(7VjLbhsxDPwaXwlR1POcpv8RIE5t1I0DJ+nj70vX0MbkesdpbwVyW681IkXOkNSu5OZ5c/e0XsXw/HLYf13/2N6/bFbyaRXj9nGzPmxf9Gkltyu5edgf1l8O+9fH+9Pvp7vjyuPTt/334w4/TziuJOmIiuHX6U3KJOHPm88nwG77aAGcDaDIeLME6GwALVJsANCpFAtQJzsGVAPogQIGuDP0SJUBoBFHC8jECFCoOAsatwQAiZqNUm9U0BnUY+fSFLfLgEA5GAAHDRNIdRtpOrcAXCrEzR+hAmYkEvExirK8PlJLPgkxghNT7T7LDezPFN3+Ae6v/tsc10IC1ncSm+KcKCMhTKSctBmGlhZZZwGxUgUW9MhOCLqFgBBJpm61ySTAQCqe1phyuVC1+0dKgEJF3bXSr5SAzFqmaterQwUY6GVQYABEcwAipJxPVmYi1BArOlUHqGOLJUC3OksMC6oCouNRpoAA6oBVTmowzT15l3IYYr0MYOqWeDkOJy8nrnktKEBwpotNXGZsIc7C2oaTlwFMofqwNlRPw+gZEyCOLRYB1iXRRoQAekTrkqRR9S8DhKLNtDAWUBn6nQTUYdFrffS9CaBcAn1Ki7QUD4ASzX6EkSluS/R2RUbiKAtLAnJVRgqeed4664SYVLtkIjv2adlAp1Ym2EOkiuOq5LSpVo0yqmQqCAfgscVSql3DVY0mYKHN+pVaqIhM4i2kDovrXwNqGlE/K64ZlA3tQE7U2iNhi+NZi9MwoB6qDliXdPJgkAfVvOd3hqOhzCYf5RJqu6rIYC0U7YogrDGPujX1aa08aFr9uAR8XAL+h0vArNC3qWwurBe7/sr1eT4z4Pt58N1TZwxU8PQGYP3RO0ZCVwbPBx1JEthfRrTPWmcFDM1exlq7MohnHWw8m3hQ/PusNuL1zOMG9U6HWPzgeeXEPKuNV0J6vKO5HoVzxnVUwveS4h++Cl0D6MPbR6iH7W53+oZ1/r//aKWvTh+85PY3);lineShape=1;" parent="1" vertex="1">
                    <mxGeometry x="742.3598028962657" y="872.5789403556479" width="24.87262138788492" height="20.618730404116832" as="geometry"/>
                </mxCell>
                <mxCell id="106" value="" style="shape=stencil(lVfLctswDPwaXzEkwOc5Tf8jM3FqT90447ivvy9UD2UBkbbTm0xpDQKLXZA7eXg/PL3tdxzer5fz1/3P4/P1sJNPO+bj62F/OV71aSePO3l4OV/2Xy7n76/Pt99vT9OX09O384/pH37dcDVQrhOKw+/bSmLK8e/K5xvgdHxdAEqk3gxAhFLYBuRA1UbgTqFuA6SN/5sjBLglrpTEAhrVBABCIRpAFqodADrlZAClUC3bgCSUs42gWYEt5U6JLQ+ZmLcBVUhsWSURgxy6bol9lRjwEEOgYImoSj4gomsSxQIqZVCmXqlYQGMqDQASVdt9TYkQAIgUbdatE4MIrVKwW+paBgTQZko+QkDMaZWqz4FBDnVOcVGlACRXM4VueShDhOsALattV2U6gGbSCNWWteTR8euAOjpnBgSo0RZ9DrlSBBFaom6rlDNF0Hx3mmZAGt623ktM3TKdCxWQQy9DYDOgUwc59EbFAkoa/ryluGb1oIYesESraw2lEgEaiQVMzKAtZWpOD9oaSKLs/b5pGYCA9LXz+0miCJBIbHsr96isTQeOs5lKApiefM5JVLAetCbOWxtlpLjkFacTAJrA/wK0SmxzUE1HtKXoh9zdR9aHXBq8LpjuoDV0jEZbpY4Vp4Pa2cxiiq1PuTrKvgghKGtqH9wbff9hiOoJCvkYjym+nOsogTxG7JxyhIcZyX5gBej1k41m/z1uPHfQiNgxdJo559YIBbSFdmpxAIGupw7kSGNdATkrp84AtLMiEk/xahO1NTSuyjiGzIAMxaM5+MZo1FDSQs12XorwDKrG3h1AhkttnWSqA6RR6C2bFEucnnITPph09gAGQ72ytxjdEiMjXr0AoaT/fWPSh/t96+V4Ot2ua8v3/n6mS7e7nTz+AQ==);lineShape=1;" parent="1" vertex="1">
                    <mxGeometry x="773.0000600339134" y="877.6633736978775" width="22.319021479548837" height="16.01779339240693" as="geometry"/>
                </mxCell>
                <mxCell id="107" value="" style="shape=stencil(lVdJcttADHwNr6gBZsXZcf7hKssRK4rkkpXt9wHD0OKAUqd8oyj0DJZuABziw9v+6XU3SHi7nE9fdz/H58t+iJ8GkfG4353Hiz0N8XGIDy+n8+7L+fT9+Dz/fn2aLKenb6cf0wm/Zpw2SjqhJPye30SS8PfF59n+MB5X9q1SaZ09JwoJADJV7gDCVDMABNLce8SU2n1ALRR7l5JQAjfUSFo6QI4YkIh7l4oFDbJUK9XUAezOgoOWPkstUSv3AVY3DR1ALQ0VAJRaH4NWigIAhUqfJbtTUKWVSu0BCqlRDRA8oMT7gFIpswcoSGtON1xSkKWJObJxSe8DolDIHsAgrZKWEFdpjSAG2ejBCpdAWk1faUONBGKQTOqCzpRR0O+SfwdgtqZEyh6Ags7GTfUABtSogXgD+Cep22xl0k0MBWhaecn6KktID7pplVaHAMjHISxdZVVq1GeMOlw9AAlCxfdKO6KCUjcbB46uSgmUuvImaus8oH3n5guxysNtNpWFO+srQK2jFWqj6ogkVKiKTxPqTNNMi74QaMp9GGCttO/GNiBQJ8u+0DaBGkgq+/FQ8FzfUHWaoeD8sMh3NaRRCZhyzwrbAiKoQKTc+zOdADjBFkDfkjjCTs/VV0CoAYe4LX9f7eFgsON6LTNcSmSjmwB1FssS3tU+Af9T9vM/wA6c81Kfqz1Sccl+qQp4W0iU/fkCGlETPzcDFby+uI2KFwdvC9L05zZhqiD/U2d2DKWEFrYPbub/t7eH62fAy3g4zF8R6//9Z4O9mj854uMf);lineShape=1;" parent="1" vertex="1">
                    <mxGeometry x="800.8030221745929" y="852.4209604476529" width="3.681646074580385" height="49.68829141011611" as="geometry"/>
                </mxCell>
                <mxCell id="108" value="" style="shape=stencil(lVjLctswDPwaXzEgwOc5Tf8jM3FqT90447ivvy80GqomZG2bmy1pSWKxC0Da6cP74eltvxN+v17OX/c/j8/Xw04/7USOr4f95Xi1Xzt93OnDy/my/3I5f399nv+/PU1PTr++nX9MK/yacSGRpgkl/Hu+IpnafOXzDDgdX28A0kjjCCiUeRsQ7baOgEpctgGZiZPfQdo2oAQKZQQIBQGARJEHQIjUdBuQ7AB1BGTiAIIOFN2RGAZtITbxLEWwg6jfQRulCAE5D4CYqYBMK1MLAyAb0SDTapl2gEKKpJGojbQWpZBBHhLJyFIpPar7WsoU2gCoQgJorcbJyJJdqUB8tfnE1UIV7NCE4ugHW0KBWlskHh3XAglQqwHSSGtTUiA+u91GllqiBBJnMegYQytQrRZicUeqVCvMQx4t2pYl7gNMOeoBDVUNW28FSCCGstjlJgYFRyqxr7cAbAlUl5TE7RCpoCMpsUucwCJgR3K1tTFFYCALmp1aK2UUtOV15QdFBrJaPcp78iDSUvINZQIAP9iJ1xaNgCXzV64+6AJYMgNl8bQmBDBpOPEJZVCMDaBOS/FfZcZ7OmMAd9Zv5B3BkYxEDzADIUDsbXzpomxdEdSZylRXHkU968OAFH0btVwK0IZ1dq/v2k24NTBV11EEttHQelVZmpylGhwpsNeGtT0FhrByP8acTBqAJO5uWSaHQgE+z2PttskgoeGnF4ibgQ82B99BjbII4g3VHyiErpOtnIljlCLIcZTVyNrnjvuqs3oxMsokuAqn5J5HvmnrwaqX8Q0FrVIWlAoaGWzBUdXTQIonADdCa6CC+nPxnUcrCQg6WwUdZW1eZWTl3Ne7AQjQnSyT3QLg/upxn1f1xULxjGG6jCsAmlebD8FIQlYrvgRPQzsYSZKPWDNM81KplucTflHyVlaFBEXfaFWgE5KvpYobc/adf2IY8Fl9abQrKF9Wq9Pq5RZ12WB9nD2AQcY+/Eb/HwD78fcDwsvxdJq/P9ze9x8c7NL8sUIf/wA=);lineShape=1;" parent="1" vertex="1">
                    <mxGeometry x="804.5536778529855" y="879.848714324659" width="21.782548951454373" height="35.12464038456528" as="geometry"/>
                </mxCell>
                <mxCell id="124" value="" style="shape=image;verticalLabelPosition=bottom;labelBackgroundColor=default;verticalAlign=top;aspect=fixed;imageAspect=0;image=https://cdn.discordapp.com/attachments/913402651796979732/1042017810030805032/image.png;" parent="1" vertex="1">
                    <mxGeometry x="301.13" y="926.12" width="485" height="520" as="geometry"/>
                </mxCell>
            </root>
        </mxGraphModel>
    </diagram>
    <diagram id="MurieuarsAMq3Q9SOGrH" name="Page-2">
        <mxGraphModel dx="502" dy="561" grid="1" gridSize="10" guides="1" tooltips="1" connect="1" arrows="1" fold="1" page="1" pageScale="1" pageWidth="827" pageHeight="1169" math="0" shadow="0">
            <root>
                <mxCell id="0"/>
                <mxCell id="1" parent="0"/>
                <mxCell id="BAF3k1QQnq8i3rHk44BT-1" value="" style="shape=table;html=1;whiteSpace=wrap;startSize=0;container=1;collapsible=0;childLayout=tableLayout;" vertex="1" parent="1">
                    <mxGeometry x="320" y="270" width="120" height="120" as="geometry"/>
                </mxCell>
                <mxCell id="BAF3k1QQnq8i3rHk44BT-2" value="" style="shape=tableRow;horizontal=0;startSize=0;swimlaneHead=0;swimlaneBody=0;top=0;left=0;bottom=0;right=0;collapsible=0;dropTarget=0;fillColor=none;points=[[0,0.5],[1,0.5]];portConstraint=eastwest;" vertex="1" parent="BAF3k1QQnq8i3rHk44BT-1">
                    <mxGeometry width="120" height="40" as="geometry"/>
                </mxCell>
                <mxCell id="BAF3k1QQnq8i3rHk44BT-3" value="Key" style="shape=partialRectangle;html=1;whiteSpace=wrap;connectable=0;fillColor=none;top=0;left=0;bottom=0;right=0;overflow=hidden;fontStyle=4" vertex="1" parent="BAF3k1QQnq8i3rHk44BT-2">
                    <mxGeometry width="60" height="40" as="geometry">
                        <mxRectangle width="60" height="40" as="alternateBounds"/>
                    </mxGeometry>
                </mxCell>
                <mxCell id="BAF3k1QQnq8i3rHk44BT-4" value="Value" style="shape=partialRectangle;html=1;whiteSpace=wrap;connectable=0;fillColor=none;top=0;left=0;bottom=0;right=0;overflow=hidden;fontStyle=4" vertex="1" parent="BAF3k1QQnq8i3rHk44BT-2">
                    <mxGeometry x="60" width="60" height="40" as="geometry">
                        <mxRectangle width="60" height="40" as="alternateBounds"/>
                    </mxGeometry>
                </mxCell>
                <mxCell id="BAF3k1QQnq8i3rHk44BT-5" value="" style="shape=tableRow;horizontal=0;startSize=0;swimlaneHead=0;swimlaneBody=0;top=0;left=0;bottom=0;right=0;collapsible=0;dropTarget=0;fillColor=none;points=[[0,0.5],[1,0.5]];portConstraint=eastwest;" vertex="1" parent="BAF3k1QQnq8i3rHk44BT-1">
                    <mxGeometry y="40" width="120" height="40" as="geometry"/>
                </mxCell>
                <mxCell id="BAF3k1QQnq8i3rHk44BT-6" value="Text" style="shape=partialRectangle;html=1;whiteSpace=wrap;connectable=0;fillColor=none;top=0;left=0;bottom=0;right=0;overflow=hidden;" vertex="1" parent="BAF3k1QQnq8i3rHk44BT-5">
                    <mxGeometry width="60" height="40" as="geometry">
                        <mxRectangle width="60" height="40" as="alternateBounds"/>
                    </mxGeometry>
                </mxCell>
                <mxCell id="BAF3k1QQnq8i3rHk44BT-7" value="Text" style="shape=partialRectangle;html=1;whiteSpace=wrap;connectable=0;fillColor=none;top=0;left=0;bottom=0;right=0;overflow=hidden;" vertex="1" parent="BAF3k1QQnq8i3rHk44BT-5">
                    <mxGeometry x="60" width="60" height="40" as="geometry">
                        <mxRectangle width="60" height="40" as="alternateBounds"/>
                    </mxGeometry>
                </mxCell>
                <mxCell id="BAF3k1QQnq8i3rHk44BT-8" value="" style="shape=tableRow;horizontal=0;startSize=0;swimlaneHead=0;swimlaneBody=0;top=0;left=0;bottom=0;right=0;collapsible=0;dropTarget=0;fillColor=none;points=[[0,0.5],[1,0.5]];portConstraint=eastwest;" vertex="1" parent="BAF3k1QQnq8i3rHk44BT-1">
                    <mxGeometry y="80" width="120" height="40" as="geometry"/>
                </mxCell>
                <mxCell id="BAF3k1QQnq8i3rHk44BT-9" value="" style="shape=partialRectangle;html=1;whiteSpace=wrap;connectable=0;fillColor=none;top=0;left=0;bottom=0;right=0;overflow=hidden;" vertex="1" parent="BAF3k1QQnq8i3rHk44BT-8">
                    <mxGeometry width="60" height="40" as="geometry">
                        <mxRectangle width="60" height="40" as="alternateBounds"/>
                    </mxGeometry>
                </mxCell>
                <mxCell id="BAF3k1QQnq8i3rHk44BT-10" value="" style="shape=partialRectangle;html=1;whiteSpace=wrap;connectable=0;fillColor=none;top=0;left=0;bottom=0;right=0;overflow=hidden;" vertex="1" parent="BAF3k1QQnq8i3rHk44BT-8">
                    <mxGeometry x="60" width="60" height="40" as="geometry">
                        <mxRectangle width="60" height="40" as="alternateBounds"/>
                    </mxGeometry>
                </mxCell>
                <mxCell id="BAF3k1QQnq8i3rHk44BT-11" value="" style="endArrow=none;html=1;rounded=0;" edge="1" parent="1">
                    <mxGeometry width="50" height="50" relative="1" as="geometry">
                        <mxPoint x="220" y="110" as="sourcePoint"/>
                        <mxPoint x="310" y="220" as="targetPoint"/>
                    </mxGeometry>
                </mxCell>
                <mxCell id="BAF3k1QQnq8i3rHk44BT-12" value="" style="endArrow=none;html=1;rounded=0;" edge="1" parent="1">
                    <mxGeometry width="50" height="50" relative="1" as="geometry">
                        <mxPoint x="300" y="110" as="sourcePoint"/>
                        <mxPoint x="390" y="220" as="targetPoint"/>
                    </mxGeometry>
                </mxCell>
                <mxCell id="BAF3k1QQnq8i3rHk44BT-13" value="" style="endArrow=none;html=1;rounded=0;" edge="1" parent="1" target="BAF3k1QQnq8i3rHk44BT-14">
                    <mxGeometry width="50" height="50" relative="1" as="geometry">
                        <mxPoint x="270" y="220" as="sourcePoint"/>
                        <mxPoint x="370" y="160" as="targetPoint"/>
                    </mxGeometry>
                </mxCell>
                <mxCell id="BAF3k1QQnq8i3rHk44BT-14" value="Distinct" style="text;strokeColor=none;fillColor=none;html=1;fontSize=24;fontStyle=1;verticalAlign=middle;align=center;" vertex="1" parent="1">
                    <mxGeometry x="364" y="130" width="100" height="40" as="geometry"/>
                </mxCell>
                <mxCell id="BAF3k1QQnq8i3rHk44BT-15" value="Text" style="text;html=1;strokeColor=none;fillColor=none;align=center;verticalAlign=middle;whiteSpace=wrap;rounded=0;" vertex="1" parent="1">
                    <mxGeometry x="310" y="200" width="60" height="30" as="geometry"/>
                </mxCell>
                <mxCell id="BAF3k1QQnq8i3rHk44BT-16" value="" style="shape=stencil(rZnZbhQ9EIWfZm5LXsrbNfC/BxKBjAgJCvlZ3p7TGty0y86ZROIumdQ3add6yn2Kb77dvv96cwru29Pjw+ebH+cPT7en+PYUwvn+9ubx/ISfTvHdKb75+PB48+nx4f/7D5ffv77fLLefvjx8377h54XzzolzGxbcr8tH+wf/XYC78/01oLRXAV5SeR5oVaof7IMot/fV2LdE7It4HeyjVCX2SWoc7FVqIPYqabRP0jyxx+OWwT5LIw5tXnwa7Ev/gqV9bRLDYF+lZWJfJI3xatQ/NYmO3+9d99gaiOLGA3vfQ74GXE+AHQhSSJKWInEMsY+SKgFUgjmD0iQtziaFT5JJ1uUiOkbNZynES1nF5REoNI+ym+KAQBMvJTyAcWuTRryUosQ2VprvD7kEtEkZ44DaDCSXNIsz/yGKEi8pEsE0C5VMvBSnakB5sv4VUb3mDJnWWwySxkij4CJJDdSXjrmETzI5NB4gjhUaHU0NOLEYIHRHrwFv4xD3ol13+SphPENESZFDb+UyxgGOTuTQqGBngEwPjS5kAhfxkOTQmDtj3JArhWT3VD7qe9tZ52ofS7t9oG1vqjbV/sk6aLbpaepPuHaQzSIt4kjIMOfHOauYvCRiTsLYwNAOPDnvpBMSlyIre1bJsz0XIrM9PEzyYbaPfVK/2L6R/JntVQoRIpP/U6Kt0UkaCwwDIlH/m3xIGLtkfEz5llCPxP9oUeb7G20pqKbxvJiIbNjE3j52e99VwMvqN2OYsfnaZdxuj3wg+YnqG1soJIBnwk6isU/iSX5i8hmdmbsSfq6BGkEBoLEW7Xs+7kChGbrJOBOySlMOQ6COOZQb7embjKsWYBpnnkuQepl10dz/vAO+F94aKFayAKhsVFbRMZEKJAYLXOt1tQORduqttSQLsMDN+mBT0EyBBLt0AWASHtVptrqC7OZAyxZIbFwm209L7h3nhbILABsgYVpDsJiwit42M28BJkHitBmVSlMDui+YwLXeRtZAtKoI2xjrkpBxeQxc9XSMx9K79AGgirzaJlCDKAmcuj63dyDSOEDImZoGUNmiM60hVfu+twZQX8kCbPhD+5UxcNvezTaj1HNzB3JX0M/tXtlbgOkFyEU1cSi9QtYAGplagF11QDCqyaVK9/g0aZjaaKQ3CZgtwCouTSqjObrdQaSZ7a45Guk06Ybmu9/WQLELJwA2p6Gj4ujWFvpWvN50fBc6B4CtLlA6wfyHSOcDpIsp0RbpfJjvU5pSdYW5b67ltos6Jsd8j+sBqOwSaRpZAJjWwAjU1wHJpjeAwoBpZAFQdujc7zYPAOveCwB7K4n0NjNNpEM/1UvP4OnN2TbGxzZzpeLgVrPJAGBKeo5D3cX1c4DZxdDIaOAmcQKALf9LgG4b/wR49SNdObT10lW32nq4Grg50jQ1VsnH7uYW9cB763xXjQJyrIDKNIF4qyzVXiQ1fpEEIJvOl6gyXgJsaVo8UuaBK5KdBdh9+6LN8NutOflaodd5ZVo4AGQGBKuXALAXJdg8jYQDwAY7tmejKlvtlwprYF/oDwDbFPO+hB2AwIDY95EDwHQrtEarFshMnOwlfwDY8pqmi5PtlSMDkEveAo0BKtmkd6Pae6Eq+V1pmi7TALCxO0tpAMrVfZ4eKTFgek8KgO4Paq8pAFS2P0xb1uHl8h8CP/x91/3xfHd3eVV+/Lt9N46PLu/V47vf);fillColor=none;" vertex="1" parent="1">
                    <mxGeometry x="301.20001220703125" y="229.60000610351562" width="38.39996337890625" height="101.60000610351562" as="geometry"/>
                </mxCell>
                <mxCell id="BAF3k1QQnq8i3rHk44BT-17" value="" style="shape=stencil(rZrbbls3EEW/Rq8EyeFtnt3kPwzEqYW6tuE4bfL33QcCZXFIbfkAfZNlriNyrpsjHeTux+P968Mh+h/vby9/Pfx7/Pb+eJA/DjEenx8f3o7veHWQLwe5+/7y9vDn28vP52+nv1/vt5Xbq79f/tme8OvEeef9BkX/27zx9bT86fjMl9fClocyLA9OKlsuySxX+vSkw/LoorLl1S5nTw8utGG5uCJsea3D8uSEbCa6PFomu5CvLxcneVhenA/Xl+OzxSxXYvfsShiWV6fx+vLi2mjI5hp5eus+78vVNWZIxJiJAniuESC4Nm4f75REAHFpdG2ILpGoD9lFE8fiAjlyqM6LBSrbEkw4JlaAD4mHEc2lWqCxgMMRjVmzExL/CKIQLNDIGRBGJsFCcZHEEcKsFAsU4gdEThILsEMLktiYtfa0XgOxh9oFwEqWJJezBRIxq5xtcgFkBlSbbrcAdbnuAVJwMe0CZAoNuJKUr5Sdn8xaGVB7ObwAWPAlnbbUeg6ua16YttRcZIA4ny2QSHhnHDpaoJCczmVKoHNZWAOth9olQPKhzLW1OWVAcNmcQWkClThFq7pIEqgk2x4AJAagCmULsFgqyODxDJsuIZ4uUzHeqi1xXPX2DB/qYQ1EG0sAGjlDFeuHTUGQ4KvZKjVoiEA8XYttigDoliASzBkS35L2/DoDmW6peZeDBRqpSw1930i84jLxdJvKPXpSIBnXpG/gAihM/CSnY8ZteogUspadigWUBF8rVv5sbZIEX0Pp9RZgSrg1Gxriu5hYA9rV0QXAFCUAY1Z07kzOoL73mzMQ+11jDQR7twDQyJY0WgknyEESrQDKmKLQBkISSMXF0XGS+zvXAB0dBzHhSfBpsjckiAnPDj316U19MD9kqzWk0T6t2LHxtPakvQaYm1LyXXKtgWprK/RNYmaF2BlDI0VavQGYFAWg7NDN3segoFhDAVDHWEqJb0mt1gDAmiIAGYMPGk1YaKgtxgCUlEoApsykQhs7ANN2NxXIzKo2HwA0Ytbgp/lFanRPK0K7Mz9LZE/b3IoIPYY/TUQ6t1kRsvszkos7PyPTXrciCq37KwLtbKc/Gp2GLAjoZlaYV0SgtX9FRHr3XRFCS+2KyHxssSAKr51TCkJt01I4VYXC5f5cdyqSgzUMtW0VaptVBRTbNtbOmvqc4RpghCzEM5veoWGY2QvEc2WHLvZiV7mmm/swtDCbEEIaZDPEi1TTQXzk0XHQwmwsBz2URrO2zMXHJNEgbammgwodOz2kbeAy0wzNACiTyq2rnzPQ6Bxve54xq9IEAhBHs+JUnm2pWLMCoFvKdmgGQ2e2pWTNCleyKzwCIZoJr9DZC0LNqwXY3AI3QR1zWrm8QbqYnNbMr/Bnv56BQgd/dRpeKlcrqBHmGwIAlW0p21EKCg+9wucplri6QZ0zg38AmQNxAugnyOSHG2eYBh3KNR0Ao60BsDkeAFO9P64YnwUyHcstAc9CYwbSLbPOAKsaC4Bn3P8B7N7S7kPvNutux+0OjUpvB4tobVS4L/LhRorOGadU6C9yWqn8AWAk3CbqeCGTCWBXRwBqZvOefy89F9ebRLVzhZtEs1/C3iS0z5l3EBp3EWiNNdwg8OLj+//vx6en088HLv9vfy+At06/NZAv/wE=);fillColor=none;" vertex="1" parent="1">
                    <mxGeometry x="349.20001220703125" y="226.39999389648438" width="101.5999755859375" height="104.80001831054688" as="geometry"/>
                </mxCell>
                <mxCell id="BAF3k1QQnq8i3rHk44BT-18" value="ToMap" style="text;strokeColor=none;fillColor=none;html=1;fontSize=24;fontStyle=1;verticalAlign=middle;align=center;" vertex="1" parent="1">
                    <mxGeometry x="130" y="60" width="100" height="40" as="geometry"/>
                </mxCell>
                <mxCell id="BAF3k1QQnq8i3rHk44BT-19" value="" style="shape=table;html=1;whiteSpace=wrap;startSize=0;container=1;collapsible=0;childLayout=tableLayout;" vertex="1" parent="1">
                    <mxGeometry x="296" y="690" width="120" height="120" as="geometry"/>
                </mxCell>
                <mxCell id="BAF3k1QQnq8i3rHk44BT-20" value="" style="shape=tableRow;horizontal=0;startSize=0;swimlaneHead=0;swimlaneBody=0;top=0;left=0;bottom=0;right=0;collapsible=0;dropTarget=0;fillColor=none;points=[[0,0.5],[1,0.5]];portConstraint=eastwest;" vertex="1" parent="BAF3k1QQnq8i3rHk44BT-19">
                    <mxGeometry width="120" height="40" as="geometry"/>
                </mxCell>
                <mxCell id="BAF3k1QQnq8i3rHk44BT-21" value="Cluster" style="shape=partialRectangle;html=1;whiteSpace=wrap;connectable=0;fillColor=none;top=0;left=0;bottom=0;right=0;overflow=hidden;fontStyle=4" vertex="1" parent="BAF3k1QQnq8i3rHk44BT-20">
                    <mxGeometry width="60" height="40" as="geometry">
                        <mxRectangle width="60" height="40" as="alternateBounds"/>
                    </mxGeometry>
                </mxCell>
                <mxCell id="BAF3k1QQnq8i3rHk44BT-22" value="Value" style="shape=partialRectangle;html=1;whiteSpace=wrap;connectable=0;fillColor=none;top=0;left=0;bottom=0;right=0;overflow=hidden;fontStyle=4" vertex="1" parent="BAF3k1QQnq8i3rHk44BT-20">
                    <mxGeometry x="60" width="60" height="40" as="geometry">
                        <mxRectangle width="60" height="40" as="alternateBounds"/>
                    </mxGeometry>
                </mxCell>
                <mxCell id="BAF3k1QQnq8i3rHk44BT-23" value="" style="shape=tableRow;horizontal=0;startSize=0;swimlaneHead=0;swimlaneBody=0;top=0;left=0;bottom=0;right=0;collapsible=0;dropTarget=0;fillColor=none;points=[[0,0.5],[1,0.5]];portConstraint=eastwest;" vertex="1" parent="BAF3k1QQnq8i3rHk44BT-19">
                    <mxGeometry y="40" width="120" height="40" as="geometry"/>
                </mxCell>
                <mxCell id="BAF3k1QQnq8i3rHk44BT-24" value="A" style="shape=partialRectangle;html=1;whiteSpace=wrap;connectable=0;fillColor=none;top=0;left=0;bottom=0;right=0;overflow=hidden;" vertex="1" parent="BAF3k1QQnq8i3rHk44BT-23">
                    <mxGeometry width="60" height="40" as="geometry">
                        <mxRectangle width="60" height="40" as="alternateBounds"/>
                    </mxGeometry>
                </mxCell>
                <mxCell id="BAF3k1QQnq8i3rHk44BT-25" value="Ariane, Alice" style="shape=partialRectangle;html=1;whiteSpace=wrap;connectable=0;fillColor=none;top=0;left=0;bottom=0;right=0;overflow=hidden;" vertex="1" parent="BAF3k1QQnq8i3rHk44BT-23">
                    <mxGeometry x="60" width="60" height="40" as="geometry">
                        <mxRectangle width="60" height="40" as="alternateBounds"/>
                    </mxGeometry>
                </mxCell>
                <mxCell id="BAF3k1QQnq8i3rHk44BT-26" value="" style="shape=tableRow;horizontal=0;startSize=0;swimlaneHead=0;swimlaneBody=0;top=0;left=0;bottom=0;right=0;collapsible=0;dropTarget=0;fillColor=none;points=[[0,0.5],[1,0.5]];portConstraint=eastwest;" vertex="1" parent="BAF3k1QQnq8i3rHk44BT-19">
                    <mxGeometry y="80" width="120" height="40" as="geometry"/>
                </mxCell>
                <mxCell id="BAF3k1QQnq8i3rHk44BT-27" value="B" style="shape=partialRectangle;html=1;whiteSpace=wrap;connectable=0;fillColor=none;top=0;left=0;bottom=0;right=0;overflow=hidden;" vertex="1" parent="BAF3k1QQnq8i3rHk44BT-26">
                    <mxGeometry width="60" height="40" as="geometry">
                        <mxRectangle width="60" height="40" as="alternateBounds"/>
                    </mxGeometry>
                </mxCell>
                <mxCell id="BAF3k1QQnq8i3rHk44BT-28" value="Bob" style="shape=partialRectangle;html=1;whiteSpace=wrap;connectable=0;fillColor=none;top=0;left=0;bottom=0;right=0;overflow=hidden;" vertex="1" parent="BAF3k1QQnq8i3rHk44BT-26">
                    <mxGeometry x="60" width="60" height="40" as="geometry">
                        <mxRectangle width="60" height="40" as="alternateBounds"/>
                    </mxGeometry>
                </mxCell>
                <mxCell id="BAF3k1QQnq8i3rHk44BT-29" value="" style="endArrow=none;html=1;rounded=0;" edge="1" parent="1">
                    <mxGeometry width="50" height="50" relative="1" as="geometry">
                        <mxPoint x="196" y="530" as="sourcePoint"/>
                        <mxPoint x="286" y="640" as="targetPoint"/>
                    </mxGeometry>
                </mxCell>
                <mxCell id="BAF3k1QQnq8i3rHk44BT-30" value="" style="endArrow=none;html=1;rounded=0;" edge="1" parent="1">
                    <mxGeometry width="50" height="50" relative="1" as="geometry">
                        <mxPoint x="276" y="530" as="sourcePoint"/>
                        <mxPoint x="366" y="640" as="targetPoint"/>
                    </mxGeometry>
                </mxCell>
                <mxCell id="BAF3k1QQnq8i3rHk44BT-31" value="Ariane" style="text;html=1;strokeColor=none;fillColor=none;align=center;verticalAlign=middle;whiteSpace=wrap;rounded=0;" vertex="1" parent="1">
                    <mxGeometry x="286" y="620" width="60" height="30" as="geometry"/>
                </mxCell>
                <mxCell id="BAF3k1QQnq8i3rHk44BT-32" value="" style="shape=stencil(rZnZbhQ9EIWfZm5LXsrbNfC/BxKBjAgJCvlZ3p7TGty0y86ZROIumdQ3add6yn2Kb77dvv96cwru29Pjw+ebH+cPT7en+PYUwvn+9ubx/ISfTvHdKb75+PB48+nx4f/7D5ffv77fLLefvjx8377h54XzzolzGxbcr8tH+wf/XYC78/01oLRXAV5SeR5oVaof7IMot/fV2LdE7It4HeyjVCX2SWoc7FVqIPYqabRP0jyxx+OWwT5LIw5tXnwa7Ev/gqV9bRLDYF+lZWJfJI3xatQ/NYmO3+9d99gaiOLGA3vfQ74GXE+AHQhSSJKWInEMsY+SKgFUgjmD0iQtziaFT5JJ1uUiOkbNZynES1nF5REoNI+ym+KAQBMvJTyAcWuTRryUosQ2VprvD7kEtEkZ44DaDCSXNIsz/yGKEi8pEsE0C5VMvBSnakB5sv4VUb3mDJnWWwySxkij4CJJDdSXjrmETzI5NB4gjhUaHU0NOLEYIHRHrwFv4xD3ol13+SphPENESZFDb+UyxgGOTuTQqGBngEwPjS5kAhfxkOTQmDtj3JArhWT3VD7qe9tZ52ofS7t9oG1vqjbV/sk6aLbpaepPuHaQzSIt4kjIMOfHOauYvCRiTsLYwNAOPDnvpBMSlyIre1bJsz0XIrM9PEzyYbaPfVK/2L6R/JntVQoRIpP/U6Kt0UkaCwwDIlH/m3xIGLtkfEz5llCPxP9oUeb7G20pqKbxvJiIbNjE3j52e99VwMvqN2OYsfnaZdxuj3wg+YnqG1soJIBnwk6isU/iSX5i8hmdmbsSfq6BGkEBoLEW7Xs+7kChGbrJOBOySlMOQ6COOZQb7embjKsWYBpnnkuQepl10dz/vAO+F94aKFayAKhsVFbRMZEKJAYLXOt1tQORduqttSQLsMDN+mBT0EyBBLt0AWASHtVptrqC7OZAyxZIbFwm209L7h3nhbILABsgYVpDsJiwit42M28BJkHitBmVSlMDui+YwLXeRtZAtKoI2xjrkpBxeQxc9XSMx9K79AGgirzaJlCDKAmcuj63dyDSOEDImZoGUNmiM60hVfu+twZQX8kCbPhD+5UxcNvezTaj1HNzB3JX0M/tXtlbgOkFyEU1cSi9QtYAGplagF11QDCqyaVK9/g0aZjaaKQ3CZgtwCouTSqjObrdQaSZ7a45Guk06Ybmu9/WQLELJwA2p6Gj4ujWFvpWvN50fBc6B4CtLlA6wfyHSOcDpIsp0RbpfJjvU5pSdYW5b67ltos6Jsd8j+sBqOwSaRpZAJjWwAjU1wHJpjeAwoBpZAFQdujc7zYPAOveCwB7K4n0NjNNpEM/1UvP4OnN2TbGxzZzpeLgVrPJAGBKeo5D3cX1c4DZxdDIaOAmcQKALf9LgG4b/wR49SNdObT10lW32nq4Grg50jQ1VsnH7uYW9cB763xXjQJyrIDKNIF4qyzVXiQ1fpEEIJvOl6gyXgJsaVo8UuaBK5KdBdh9+6LN8NutOflaodd5ZVo4AGQGBKuXALAXJdg8jYQDwAY7tmejKlvtlwprYF/oDwDbFPO+hB2AwIDY95EDwHQrtEarFshMnOwlfwDY8pqmi5PtlSMDkEveAo0BKtmkd6Pae6Eq+V1pmi7TALCxO0tpAMrVfZ4eKTFgek8KgO4Paq8pAFS2P0xb1uHl8h8CP/x91/3xfHd3eVV+/Lt9N46PLu/V47vf);fillColor=none;" vertex="1" parent="1">
                    <mxGeometry x="277.20001220703125" y="649.6000061035156" width="38.39996337890625" height="101.60000610351562" as="geometry"/>
                </mxCell>
                <mxCell id="BAF3k1QQnq8i3rHk44BT-33" value="" style="shape=stencil(rZrbbls3EEW/Rq8EyeFtnt3kPwzEqYW6tuE4bfL33QcCZXFIbfkAfZNlriNyrpsjHeTux+P968Mh+h/vby9/Pfx7/Pb+eJA/DjEenx8f3o7veHWQLwe5+/7y9vDn28vP52+nv1/vt5Xbq79f/tme8OvEeef9BkX/27zx9bT86fjMl9fClocyLA9OKlsuySxX+vSkw/LoorLl1S5nTw8utGG5uCJsea3D8uSEbCa6PFomu5CvLxcneVhenA/Xl+OzxSxXYvfsShiWV6fx+vLi2mjI5hp5eus+78vVNWZIxJiJAniuESC4Nm4f75REAHFpdG2ILpGoD9lFE8fiAjlyqM6LBSrbEkw4JlaAD4mHEc2lWqCxgMMRjVmzExL/CKIQLNDIGRBGJsFCcZHEEcKsFAsU4gdEThILsEMLktiYtfa0XgOxh9oFwEqWJJezBRIxq5xtcgFkBlSbbrcAdbnuAVJwMe0CZAoNuJKUr5Sdn8xaGVB7ObwAWPAlnbbUeg6ua16YttRcZIA4ny2QSHhnHDpaoJCczmVKoHNZWAOth9olQPKhzLW1OWVAcNmcQWkClThFq7pIEqgk2x4AJAagCmULsFgqyODxDJsuIZ4uUzHeqi1xXPX2DB/qYQ1EG0sAGjlDFeuHTUGQ4KvZKjVoiEA8XYttigDoliASzBkS35L2/DoDmW6peZeDBRqpSw1930i84jLxdJvKPXpSIBnXpG/gAihM/CSnY8ZteogUspadigWUBF8rVv5sbZIEX0Pp9RZgSrg1Gxriu5hYA9rV0QXAFCUAY1Z07kzOoL73mzMQ+11jDQR7twDQyJY0WgknyEESrQDKmKLQBkISSMXF0XGS+zvXAB0dBzHhSfBpsjckiAnPDj316U19MD9kqzWk0T6t2LHxtPakvQaYm1LyXXKtgWprK/RNYmaF2BlDI0VavQGYFAWg7NDN3segoFhDAVDHWEqJb0mt1gDAmiIAGYMPGk1YaKgtxgCUlEoApsykQhs7ANN2NxXIzKo2HwA0Ytbgp/lFanRPK0K7Mz9LZE/b3IoIPYY/TUQ6t1kRsvszkos7PyPTXrciCq37KwLtbKc/Gp2GLAjoZlaYV0SgtX9FRHr3XRFCS+2KyHxssSAKr51TCkJt01I4VYXC5f5cdyqSgzUMtW0VaptVBRTbNtbOmvqc4RpghCzEM5veoWGY2QvEc2WHLvZiV7mmm/swtDCbEEIaZDPEi1TTQXzk0XHQwmwsBz2URrO2zMXHJNEgbammgwodOz2kbeAy0wzNACiTyq2rnzPQ6Bxve54xq9IEAhBHs+JUnm2pWLMCoFvKdmgGQ2e2pWTNCleyKzwCIZoJr9DZC0LNqwXY3AI3QR1zWrm8QbqYnNbMr/Bnv56BQgd/dRpeKlcrqBHmGwIAlW0p21EKCg+9wucplri6QZ0zg38AmQNxAugnyOSHG2eYBh3KNR0Ao60BsDkeAFO9P64YnwUyHcstAc9CYwbSLbPOAKsaC4Bn3P8B7N7S7kPvNutux+0OjUpvB4tobVS4L/LhRorOGadU6C9yWqn8AWAk3CbqeCGTCWBXRwBqZvOefy89F9ebRLVzhZtEs1/C3iS0z5l3EBp3EWiNNdwg8OLj+//vx6en088HLv9vfy+At06/NZAv/wE=);fillColor=none;" vertex="1" parent="1">
                    <mxGeometry x="346.00001220703126" y="646.3999938964844" width="101.5999755859375" height="104.80001831054688" as="geometry"/>
                </mxCell>
                <mxCell id="BAF3k1QQnq8i3rHk44BT-34" value="groupingBy" style="text;strokeColor=none;fillColor=none;html=1;fontSize=24;fontStyle=1;verticalAlign=middle;align=center;" vertex="1" parent="1">
                    <mxGeometry x="110" y="470" width="100" height="40" as="geometry"/>
                </mxCell>
                <mxCell id="BAF3k1QQnq8i3rHk44BT-35" value="Alice" style="text;html=1;strokeColor=none;fillColor=none;align=center;verticalAlign=middle;whiteSpace=wrap;rounded=0;" vertex="1" parent="1">
                    <mxGeometry x="265.2" y="585" width="60" height="30" as="geometry"/>
                </mxCell>
                <mxCell id="BAF3k1QQnq8i3rHk44BT-36" value="Bob" style="text;html=1;strokeColor=none;fillColor=none;align=center;verticalAlign=middle;whiteSpace=wrap;rounded=0;" vertex="1" parent="1">
                    <mxGeometry x="241.2" y="554.5" width="60" height="30" as="geometry"/>
                </mxCell>
            </root>
        </mxGraphModel>
    </diagram>
</mxfile>